<svg width="560" height="142" viewBox="0 0 560 142" fill="none" xmlns="http://www.w3.org/2000/svg">
<g opacity="0.5">
<path d="M0 114.03V90.3636L117.278 0H171.573V142H134.653V114.03H0ZM48.6487 90.3636H134.653V24.097L48.6487 90.3636Z" fill="url(#paint0_linear_1606_361)"/>
<path d="M197.669 112.955V29.0455C197.669 0 223.731 0 249.793 0H317.119C343.181 0 369.243 0 369.243 29.0455V112.955C369.243 142 343.181 142 317.119 142H249.793C223.731 142 197.669 142 197.669 112.955ZM234.59 110.803C234.59 118.333 241.106 118.333 247.621 118.333H319.291C325.806 118.333 332.322 118.333 332.322 110.803V31.197C332.322 23.6667 325.806 23.6667 319.291 23.6667H247.621C241.106 23.6667 234.59 23.6667 234.59 31.197V110.803Z" fill="url(#paint1_linear_1606_361)"/>
<path d="M388.427 114.03V90.3636L505.705 0H560V142H523.079V114.03H388.427ZM437.075 90.3636H523.079V24.097L437.075 90.3636Z" fill="url(#paint2_linear_1606_361)"/>
</g>
<defs>
<linearGradient id="paint0_linear_1606_361" x1="294.494" y1="-107.486" x2="439.227" y2="253.317" gradientUnits="userSpaceOnUse">
<stop stop-color="#B1B5C0"/>
<stop offset="1" stop-color="#22282F"/>
</linearGradient>
<linearGradient id="paint1_linear_1606_361" x1="294.494" y1="-107.486" x2="439.227" y2="253.317" gradientUnits="userSpaceOnUse">
<stop stop-color="#B1B5C0"/>
<stop offset="1" stop-color="#22282F"/>
</linearGradient>
<linearGradient id="paint2_linear_1606_361" x1="294.494" y1="-107.486" x2="439.227" y2="253.317" gradientUnits="userSpaceOnUse">
<stop stop-color="#B1B5C0"/>
<stop offset="1" stop-color="#22282F"/>
</linearGradient>
</defs>
</svg>
