<svg width="72" height="18" viewBox="0 0 72 18" fill="none" xmlns="http://www.w3.org/2000/svg">
<g clip-path="url(#clip0_2001_761)">
<path d="M1.92383 3.61258H3.2313L6.03838 11.6774L9.37136 3.06445L12.529 11.6774L15.6389 3.61258H16.9467L12.4812 14.9352L9.35529 6.32226L6.00623 14.9352L1.92383 3.61258ZM23.9637 3.61258V4.74174H19.626V7.93529H23.8362V9.06445H19.626V13.2416H23.9637V14.3708H18.4456V3.61258H23.9637ZM26.1327 3.61258H28.0465C29.1097 3.61258 29.9227 3.83865 30.4865 4.29C31.1242 4.78471 31.4434 5.52678 31.4434 6.51581C31.4434 7.44058 31.0924 8.1451 30.3908 8.62897C31.071 8.80084 31.5789 9.14768 31.9138 9.6691C32.2487 10.1905 32.4159 10.7472 32.4159 11.3386C32.4159 11.8225 32.3126 12.2685 32.1051 12.6772C31.8977 13.0856 31.6401 13.4139 31.3316 13.6612C30.736 14.1343 29.8856 14.3708 28.7798 14.3708H26.1327V3.61258ZM27.3127 4.74174V8.33865H28.2057C28.3653 8.33865 28.5195 8.33052 28.6684 8.31426C28.8173 8.298 28.9953 8.25503 29.2028 8.18536C29.4098 8.11529 29.5905 8.02123 29.7447 7.90316C29.899 7.78471 30.0291 7.60742 30.1355 7.3709C30.2419 7.134 30.2951 6.85994 30.2951 6.54832C30.2951 6.21503 30.2312 5.92703 30.1037 5.6851C29.9759 5.44316 29.8324 5.26316 29.6732 5.1451C29.5135 5.02665 29.3222 4.93529 29.099 4.87065C28.8755 4.80639 28.7056 4.76845 28.5884 4.758C28.4717 4.74716 28.3546 4.74174 28.2378 4.74174H27.3127ZM27.3127 9.40316V13.2416H28.6684C29.5296 13.2416 30.1516 13.091 30.5343 12.7903C31.0021 12.4461 31.2359 11.9514 31.2359 11.3061C31.2359 10.5857 30.9328 10.0589 30.3269 9.72561C29.9441 9.51039 29.3436 9.40316 28.5249 9.40316H27.3127ZM40.2784 5.11258L39.3376 5.74161C39.1673 5.40832 38.9602 5.13968 38.7156 4.93529C38.3964 4.68794 37.998 4.56445 37.5195 4.56445C36.9879 4.56445 36.5573 4.71736 36.2277 5.02394C35.8982 5.33052 35.7332 5.73116 35.7332 6.22549C35.7332 6.59129 35.866 6.9029 36.132 7.1611C36.3445 7.37632 36.7169 7.602 37.2481 7.83852L38.2689 8.29026C39.0237 8.62355 39.5714 8.96226 39.9117 9.30639C40.4219 9.82239 40.6772 10.4727 40.6772 11.2577C40.6772 12.2363 40.358 13.0322 39.7203 13.645C39.0823 14.2577 38.2797 14.5643 37.3121 14.5643C36.3552 14.5643 35.5843 14.274 34.9995 13.6934C34.5211 13.2203 34.1915 12.5859 34.0109 11.79L35.1591 11.4676C35.2334 12.0052 35.4462 12.462 35.7971 12.8386C36.1902 13.2362 36.7008 13.4352 37.3281 13.4352C38.0087 13.4352 38.5346 13.2285 38.907 12.8143C39.279 12.4005 39.465 11.8976 39.465 11.3061C39.465 10.7901 39.2897 10.3709 38.9388 10.0481C38.7367 9.85452 38.3114 9.60716 37.663 9.30639L36.7062 8.85465C36.0574 8.55349 35.5843 8.25774 35.2866 7.96742C34.7978 7.49439 34.5532 6.90832 34.5532 6.20961C34.5532 5.38161 34.8322 4.71232 35.3903 4.20136C35.9483 3.69078 36.6637 3.43529 37.5352 3.43529C38.1947 3.43529 38.7635 3.59671 39.2419 3.91916C39.6778 4.20949 40.0231 4.60742 40.2784 5.11258ZM44.0263 3.61258V7.98368H49.4804V3.61258H50.6604V14.3708H49.4804V9.11284H44.0263V14.3708H42.8459V3.61258H44.0263ZM62.2945 12.9676C61.2259 14.0321 59.9157 14.5643 58.3633 14.5643C56.8112 14.5643 55.5007 14.0321 54.4321 12.9676C53.3638 11.903 52.8295 10.5803 52.8295 8.99981C52.8295 7.40845 53.3665 6.08303 54.4401 5.02394C55.5141 3.96484 56.8216 3.43529 58.3633 3.43529C59.905 3.43529 61.2128 3.96484 62.2865 5.02394C63.3605 6.08303 63.8971 7.40845 63.8971 8.99981C63.8971 10.5803 63.3631 11.903 62.2945 12.9676ZM61.4253 5.85465C60.5855 4.99452 59.5647 4.56445 58.3633 4.56445C57.1618 4.56445 56.1414 4.99452 55.3013 5.85465C54.4615 6.71478 54.0413 7.76342 54.0413 8.99981C54.0413 10.2362 54.4615 11.2848 55.3013 12.145C56.1414 13.0051 57.1618 13.4352 58.3633 13.4352C59.5647 13.4352 60.5855 13.0051 61.4253 12.145C62.2654 11.2848 62.6853 10.2362 62.6853 8.99981C62.6853 7.76342 62.2654 6.71478 61.4253 5.85465ZM66.0661 3.61258H67.9959C69.2077 3.61258 70.1011 3.86536 70.6752 4.3709C71.3236 4.92987 71.6477 5.69865 71.6477 6.67723C71.6477 7.51607 71.3687 8.22832 70.8107 8.81439C70.2526 9.40045 69.4098 9.69349 68.283 9.69349H67.2461V14.3708H66.0661V3.61258ZM67.2461 4.74174V8.56432H68.2191C68.9207 8.56432 69.471 8.39245 69.8699 8.04832C70.2683 7.7042 70.4677 7.22574 70.4677 6.61258C70.4677 5.36536 69.6865 4.74174 68.1234 4.74174H67.2461Z" fill="white" fill-opacity="0.219608"/>
<path d="M1.00391 3.62723H2.31176L5.11846 11.692L8.45144 3.0791L11.6091 11.692L14.719 3.62723H16.0268L11.5613 14.9498L8.43575 6.33691L5.08669 14.9498L1.00391 3.62723ZM23.0438 3.62723V4.75639H18.7061V7.94994H22.9163V9.0791H18.7061V13.2563H23.0438V14.3854H17.526V3.62723H23.0438ZM25.2128 3.62723H27.1265C28.1898 3.62723 29.0032 3.8533 29.5666 4.30465C30.2046 4.79936 30.5234 5.54142 30.5234 6.53046C30.5234 7.45523 30.1725 8.15975 29.4709 8.64362C30.1514 8.81549 30.6589 9.16233 30.9938 9.68375C31.3288 10.2052 31.4964 10.7618 31.4964 11.3533C31.4964 11.8372 31.3927 12.2831 31.1852 12.6919C30.9778 13.1006 30.7202 13.4285 30.4117 13.6759C29.8165 14.1489 28.966 14.3854 27.8603 14.3854H25.2128V3.62723ZM26.3928 4.75639V8.3533H27.2862C27.4454 8.3533 27.5996 8.34517 27.7485 8.32891C27.8974 8.31304 28.0754 8.26968 28.2828 8.20001C28.4903 8.12994 28.6709 8.03588 28.8248 7.91781C28.9791 7.79936 29.1096 7.62207 29.2156 7.38555C29.322 7.14904 29.3752 6.87459 29.3752 6.56297C29.3752 6.22968 29.3113 5.94207 29.1838 5.70013C29.0564 5.45781 28.9128 5.27781 28.7532 5.15975C28.5936 5.0413 28.4023 4.94994 28.1791 4.8853C27.956 4.82104 27.7856 4.7831 27.6689 4.77265C27.5518 4.76181 27.435 4.75639 27.3179 4.75639H26.3928ZM26.3928 9.41781V13.2563H27.7485C28.6097 13.2563 29.2317 13.1061 29.6144 12.8049C30.0821 12.4608 30.316 11.9661 30.316 11.3208C30.316 10.6004 30.0132 10.0736 29.407 9.74026C29.0242 9.52504 28.4237 9.41781 27.605 9.41781H26.3928ZM39.3585 5.12723L38.4177 5.75626C38.2477 5.42297 38.0403 5.15433 37.7957 4.94994C37.4769 4.70259 37.078 4.5791 36.5996 4.5791C36.068 4.5791 35.6374 4.732 35.3078 5.03859C34.9783 5.34517 34.8133 5.74581 34.8133 6.24013C34.8133 6.60594 34.9465 6.91755 35.2121 7.17575C35.4249 7.39097 35.797 7.61665 36.3286 7.85317L37.349 8.30491C38.1042 8.6382 38.6515 8.97691 38.9918 9.32104C39.502 9.83704 39.7573 10.4877 39.7573 11.2724C39.7573 12.251 39.4384 13.0468 38.8004 13.6596C38.1624 14.2724 37.3597 14.579 36.3921 14.579C35.4353 14.579 34.6644 14.2886 34.08 13.708C33.6015 13.235 33.272 12.6005 33.0909 11.8047L34.2392 11.4822C34.3138 12.0199 34.5262 12.477 34.8772 12.8533C35.2707 13.2512 35.7809 13.4498 36.4082 13.4498C37.0887 13.4498 37.615 13.2431 37.9871 12.8289C38.3591 12.4151 38.5451 11.9123 38.5451 11.3208C38.5451 10.8048 38.3698 10.3856 38.0188 10.0627C37.8171 9.86917 37.3915 9.6222 36.7431 9.32104L35.7863 8.8693C35.1379 8.56813 34.6644 8.27239 34.367 7.98207C33.8779 7.50904 33.6333 6.92297 33.6333 6.22426C33.6333 5.39626 33.9123 4.72697 34.4704 4.216C35.0288 3.70542 35.7438 3.44994 36.6157 3.44994C37.2748 3.44994 37.8435 3.61136 38.322 3.93381C38.7579 4.22413 39.1035 4.62207 39.3585 5.12723ZM43.1063 3.62723V7.99833H48.5605V3.62723H49.7405V14.3854H48.5605V9.12749H43.1063V14.3854H41.9263V3.62723H43.1063ZM61.3746 12.9822C60.3063 14.0467 58.9958 14.579 57.4434 14.579C55.8913 14.579 54.5808 14.0467 53.5125 12.9822C52.4439 11.9177 51.9096 10.595 51.9096 9.01446C51.9096 7.4231 52.4466 6.09768 53.5202 5.03859C54.5942 3.97949 55.902 3.44994 57.4434 3.44994C58.9851 3.44994 60.2929 3.97949 61.3665 5.03859C62.4405 6.09768 62.9775 7.4231 62.9775 9.01446C62.9775 10.595 62.4432 11.9177 61.3746 12.9822ZM60.5053 5.8693C59.6656 5.00917 58.6448 4.5791 57.4434 4.5791C56.2419 4.5791 55.2215 5.00917 54.3814 5.8693C53.5416 6.72942 53.1217 7.77807 53.1217 9.01446C53.1217 10.2508 53.5416 11.2995 54.3814 12.1596C55.2215 13.0197 56.2419 13.4498 57.4434 13.4498C58.6448 13.4498 59.6656 13.0197 60.5053 12.1596C61.3455 11.2995 61.7654 10.2508 61.7654 9.01446C61.7654 7.77807 61.3455 6.72942 60.5053 5.8693ZM65.1462 3.62723H67.076C68.2882 3.62723 69.1811 3.88 69.7553 4.38555C70.404 4.94452 70.7282 5.7133 70.7282 6.69188C70.7282 7.53071 70.4492 8.24297 69.8907 8.82904C69.3327 9.4151 68.4903 9.70813 67.3631 9.70813H66.3266V14.3854H65.1462V3.62723ZM66.3266 4.75639V8.57897H67.2991C68.0011 8.57897 68.5511 8.4071 68.95 8.06297C69.3488 7.71884 69.5478 7.24039 69.5478 6.62723C69.5478 5.38 68.7666 4.75639 67.2035 4.75639H66.3266Z" fill="white"/>
</g>
<defs>
<clipPath id="clip0_2001_761">
<rect width="71" height="12" fill="white" transform="translate(1 3)"/>
</clipPath>
</defs>
</svg>
