<svg width="40" height="40" viewBox="0 0 40 40" fill="none" xmlns="http://www.w3.org/2000/svg">
<rect width="40" height="40" rx="8" fill="#22282F"/>
<path fill-rule="evenodd" clip-rule="evenodd" d="M18.3046 6.13618C18.8603 6.06892 19.4261 6.03431 20 6.03431C20.5739 6.03431 21.1397 6.06892 21.6954 6.13618C21.81 6.06044 21.9389 5.96477 21.9744 5.89721C22.0369 5.77848 22.1068 5.62315 22.1802 5.46007C22.2563 5.29079 22.3363 5.11315 22.4156 4.95947C22.6556 4.49414 23.0787 4 23.0787 4C23.0787 4 23.8344 4.12125 24.3116 4.24913C24.7889 4.377 25.5039 4.64981 25.5039 4.64981C25.5039 4.64981 25.6233 5.28935 25.5986 5.81235C25.5904 5.98508 25.5708 6.17888 25.5521 6.36358C25.5341 6.54149 25.517 6.71098 25.5117 6.84502C25.5084 6.92833 25.5848 7.09629 25.6507 7.22469C26.5588 7.62696 27.416 8.12323 28.2101 8.70116C28.356 8.69449 28.5498 8.67694 28.6226 8.63096C28.7361 8.55938 28.8743 8.45981 29.0194 8.35527L29.022 8.35341C29.1718 8.24545 29.3289 8.13235 29.4736 8.03943C29.9141 7.75646 30.5277 7.54012 30.5277 7.54012C30.5277 7.54012 31.1215 8.02295 31.4708 8.3723C31.8202 8.72165 32.303 9.31544 32.303 9.31544C32.303 9.31544 32.0866 9.92902 31.8037 10.3695C31.7102 10.515 31.5964 10.6731 31.4878 10.8237L31.485 10.8276C31.3816 10.9712 31.283 11.108 31.2122 11.2205C31.1713 11.2851 31.1529 11.4449 31.1446 11.5822C31.7889 12.4338 32.3378 13.3615 32.7754 14.3496C32.9038 14.4154 33.0716 14.4916 33.1549 14.4884C33.2889 14.4831 33.4584 14.466 33.6363 14.448C33.821 14.4293 34.0148 14.4097 34.1876 14.4015C34.7105 14.3767 35.3501 14.4961 35.3501 14.4961C35.3501 14.4961 35.623 15.2111 35.7508 15.6883C35.8787 16.1656 36 16.9212 36 16.9212C36 16.9212 35.5058 17.3444 35.0406 17.5845C34.8869 17.6637 34.7092 17.7437 34.5399 17.8199C34.3769 17.8933 34.2215 17.9632 34.1029 18.0256C34.0353 18.0612 33.9396 18.1901 33.8639 18.3047C33.9311 18.8604 33.9657 19.4261 33.9657 20C33.9657 20.5739 33.9311 21.1396 33.8639 21.6953C33.9396 21.8099 34.0353 21.9388 34.1029 21.9744C34.2215 22.0368 34.3769 22.1067 34.5399 22.1801C34.7092 22.2563 34.8869 22.3363 35.0406 22.4155C35.5058 22.6556 36 23.0788 36 23.0788C36 23.0788 35.8787 23.8344 35.7508 24.3117C35.623 24.7889 35.3501 25.5039 35.3501 25.5039C35.3501 25.5039 34.7105 25.6233 34.1876 25.5985C34.0148 25.5903 33.821 25.5707 33.6363 25.552C33.4584 25.534 33.2889 25.5169 33.1549 25.5116C33.0716 25.5084 32.9038 25.5846 32.7754 25.6504C32.3378 26.6385 31.7889 27.5662 31.1446 28.4178C31.1529 28.5551 31.1713 28.7149 31.2122 28.7795C31.2822 28.8907 31.3793 29.0255 31.4813 29.1674L31.485 29.1724L31.4878 29.1763C31.5964 29.3269 31.7102 29.485 31.8037 29.6305C32.0866 30.071 32.303 30.6846 32.303 30.6846C32.303 30.6846 31.8202 31.2783 31.4708 31.6277C31.1215 31.977 30.5277 32.4599 30.5277 32.4599C30.5277 32.4599 29.9141 32.2435 29.4736 31.9606C29.3281 31.8671 29.17 31.7532 29.0194 31.6447C28.8743 31.5402 28.7361 31.4406 28.6226 31.369C28.5498 31.3231 28.356 31.3055 28.2101 31.2988C27.416 31.8768 26.5588 32.373 25.6507 32.7753C25.5848 32.9037 25.5084 33.0717 25.5117 33.155C25.517 33.289 25.5341 33.4585 25.5521 33.6364C25.5708 33.8211 25.5904 34.0149 25.5986 34.1877C25.6233 34.7106 25.5039 35.3502 25.5039 35.3502C25.5039 35.3502 24.7889 35.623 24.3116 35.7509C23.8344 35.8788 23.0787 36 23.0787 36C23.0787 36 22.6556 35.5059 22.4156 35.0405C22.3363 34.8868 22.2563 34.7092 22.1802 34.5399C22.1068 34.3769 22.0369 34.2215 21.9744 34.1028C21.9389 34.0352 21.81 33.9396 21.6954 33.8638C21.1397 33.9311 20.5739 33.9657 20 33.9657C19.4261 33.9657 18.8603 33.9311 18.3046 33.8638C18.19 33.9396 18.0611 34.0352 18.0256 34.1028C17.9631 34.2215 17.8932 34.3769 17.8198 34.5399C17.7437 34.7092 17.6637 34.8868 17.5844 35.0405C17.3444 35.5059 16.9213 36 16.9213 36C16.9213 36 16.1656 35.8788 15.6884 35.7509C15.2111 35.623 14.4961 35.3502 14.4961 35.3502C14.4961 35.3502 14.3767 34.7106 14.4014 34.1877C14.4096 34.0149 14.4292 33.8211 14.4479 33.6364C14.4659 33.4585 14.483 33.289 14.4883 33.155C14.4916 33.0717 14.4152 32.9037 14.3493 32.7753C13.4412 32.373 12.584 31.8768 11.7899 31.2988C11.644 31.3055 11.4502 31.3231 11.3774 31.369C11.2639 31.4406 11.1257 31.5402 10.9806 31.6447L10.978 31.6466C10.8282 31.7546 10.6711 31.8676 10.5264 31.9606C10.0859 32.2435 9.47235 32.4599 9.47235 32.4599C9.47235 32.4599 8.87853 31.977 8.52921 31.6277C8.17982 31.2783 7.69701 30.6846 7.69701 30.6846C7.69701 30.6846 7.91338 30.071 8.19633 29.6305C8.28981 29.485 8.4036 29.3269 8.51216 29.1763C8.61664 29.0313 8.7163 28.893 8.78784 28.7795C8.82867 28.7149 8.84708 28.5551 8.85537 28.4178C8.21107 27.5662 7.66223 26.6385 7.22459 25.6504C7.0962 25.5846 6.9284 25.5084 6.84511 25.5116C6.71107 25.5169 6.54164 25.534 6.36372 25.552C6.17901 25.5707 5.98519 25.5903 5.81243 25.5985C5.28947 25.6233 4.64993 25.5039 4.64993 25.5039C4.64993 25.5039 4.37704 24.7889 4.24918 24.3117C4.12126 23.8344 4 23.0788 4 23.0788C4 23.0788 4.49416 22.6556 4.95944 22.4155C5.11311 22.3363 5.29076 22.2563 5.46005 22.1801L5.46148 22.1795C5.62405 22.1063 5.7788 22.0367 5.89715 21.9744C5.96474 21.9388 6.06039 21.8099 6.13614 21.6953C6.06889 21.1396 6.03431 20.5739 6.03431 20C6.03431 19.4261 6.06889 18.8604 6.13614 18.3047C6.06039 18.1901 5.96474 18.0612 5.89715 18.0256C5.82616 17.9883 5.74198 17.9482 5.65095 17.9064C5.58981 17.8783 5.52554 17.8493 5.46005 17.8199C5.41556 17.7998 5.37045 17.7795 5.32541 17.7591C5.28526 17.7408 5.24511 17.7225 5.20537 17.704C5.12004 17.6644 5.03668 17.6243 4.95944 17.5845C4.49416 17.3444 4 16.9212 4 16.9212C4 16.9212 4.12126 16.1656 4.24918 15.6883C4.37704 15.2111 4.64993 14.4961 4.64993 14.4961C4.64993 14.4961 5.28947 14.3767 5.81243 14.4015C5.98519 14.4097 6.17901 14.4293 6.36372 14.448C6.45978 14.4577 6.5534 14.4672 6.64029 14.4746C6.71427 14.481 6.78342 14.4859 6.84511 14.4884C6.9284 14.4916 7.0962 14.4154 7.22459 14.3496C7.66223 13.3615 8.21107 12.4338 8.85537 11.5822C8.84708 11.4449 8.82867 11.2851 8.78784 11.2205C8.71698 11.108 8.61841 10.9712 8.51501 10.8276L8.51216 10.8237C8.4036 10.6731 8.28981 10.515 8.19633 10.3695C7.91338 9.92902 7.69701 9.31544 7.69701 9.31544C7.69701 9.31544 8.17982 8.72165 8.52921 8.3723C8.87853 8.02295 9.47235 7.54012 9.47235 7.54012C9.47235 7.54012 10.0859 7.75646 10.5264 8.03943C10.6719 8.13289 10.83 8.24676 10.9806 8.35527C11.1257 8.45981 11.2639 8.55938 11.3774 8.63096C11.4502 8.67694 11.644 8.69449 11.7899 8.70116C12.584 8.12323 13.4412 7.62696 14.3493 7.22469C14.4152 7.09629 14.4916 6.92833 14.4883 6.84502C14.483 6.71098 14.4659 6.54149 14.4479 6.36358C14.4292 6.17888 14.4096 5.98508 14.4014 5.81235C14.3767 5.28935 14.4961 4.64981 14.4961 4.64981C14.4961 4.64981 15.2111 4.377 15.6884 4.24913C16.1656 4.12125 16.9213 4 16.9213 4C16.9213 4 17.3444 4.49414 17.5844 4.95947C17.6637 5.11315 17.7437 5.29079 17.8198 5.46007C17.8732 5.57857 17.9247 5.69298 17.9728 5.79222L17.9972 5.84184C18.0069 5.86104 18.0163 5.87953 18.0256 5.89721C18.0611 5.96477 18.19 6.06044 18.3046 6.13618ZM8.38804 20C8.38804 26.4131 13.5869 31.6119 20 31.6119C26.4131 31.6119 31.612 26.4131 31.612 20C31.612 13.5869 26.4131 8.38807 20 8.38807C13.5869 8.38807 8.38804 13.5869 8.38804 20Z" fill="#6DE754"/>
<mask id="mask0_386_1237" style="mask-type:alpha" maskUnits="userSpaceOnUse" x="11" y="11" width="18" height="18">
<path fill-rule="evenodd" clip-rule="evenodd" d="M19.764 15.8214H28C26.4867 12.9607 23.4763 11 20.0152 11C15.0407 11 11 15.0339 11 20C11 24.9661 15.0407 29 20.0152 29C23.4763 29 26.4867 27.0393 28 24.1786H19.764L17.4297 20L19.764 15.8214ZM20.0152 28.0357V27.9554C15.9422 27.5536 12.7708 24.1625 12.7708 20C12.7708 15.8375 15.9422 12.4464 20.0152 12.0446V11.9643C15.7169 12.1411 12.2879 15.6607 12.2879 20C12.2879 24.3393 15.7169 27.8589 20.0152 28.0357Z" fill="#EDEFF1"/>
<path d="M22.2258 17H29V18.4H23.2903C21.8387 18.4 21.8387 19.9 21.8387 19.9V20.1C21.8387 20.1 21.8387 21.6 23.2903 21.6H29V23H22.3226C22.3226 23 20 22.8 20 20C20 17.2 22.2258 17 22.2258 17Z" fill="#EDEFF1"/>
</mask>
<g mask="url(#mask0_386_1237)">
<circle cx="20" cy="20" r="9" fill="#EDEFF1"/>
</g>
</svg>
