<svg width="560" height="129" viewBox="0 0 560 129" fill="none" xmlns="http://www.w3.org/2000/svg">
<g clip-path="url(#clip0_533_2885)">
<path d="M377.937 0C377.937 0 380.977 0.505882 382.941 1.01176C384.842 1.51765 387.756 2.65588 387.756 2.65588C387.756 2.65588 388.262 5.24853 388.136 7.33529C388.072 8.03088 388.009 8.78971 387.946 9.54853C387.882 10.2441 387.819 10.9397 387.756 11.5088C387.756 11.825 388.072 12.5206 388.326 13.0265C392 14.6706 395.421 16.6309 398.652 18.9706C399.222 18.9706 400.045 18.8441 400.299 18.7176C400.742 18.4015 401.312 18.0221 401.882 17.5794C402.516 17.1368 403.149 16.6941 403.719 16.3147C405.493 15.1765 407.964 14.2912 407.964 14.2912C407.964 14.2912 410.371 16.2515 411.765 17.6426C413.158 19.0338 415.122 21.4368 415.122 21.4368C415.122 21.4368 414.235 23.9029 413.095 25.6735C412.715 26.2426 412.272 26.875 411.828 27.5074C411.385 28.0765 411.005 28.6456 410.688 29.0882C410.498 29.3412 410.434 29.9735 410.434 30.5426C412.652 33.4515 414.552 36.55 416.136 39.8382H405.303C397.068 26.5588 382.308 17.7059 365.457 17.7059C348.606 17.7059 333.91 26.5588 325.611 39.8382H314.778C316.362 36.55 318.326 33.4515 320.48 30.5426C320.416 29.9735 320.353 29.3412 320.226 29.0882C319.91 28.6456 319.529 28.0765 319.086 27.5074C318.643 26.875 318.199 26.2426 317.819 25.6735C316.679 23.9029 315.792 21.4368 315.792 21.4368C315.792 21.4368 317.756 19.0338 319.149 17.6426C320.543 16.2515 322.95 14.2912 322.95 14.2912C322.95 14.2912 325.421 15.1765 327.195 16.3147C327.765 16.6941 328.398 17.1368 329.032 17.5794C329.602 18.0221 330.172 18.4015 330.615 18.7176C330.932 18.9074 331.692 18.9706 332.262 18.9706C335.493 16.6309 338.914 14.6706 342.588 13.0265C342.842 12.5206 343.158 11.825 343.158 11.5088C343.158 10.9397 343.095 10.3074 342.968 9.54853C342.905 8.78971 342.842 8.03088 342.778 7.33529C342.652 5.24853 343.158 2.65588 343.158 2.65588C343.158 2.65588 346.072 1.58088 347.973 1.01176C349.873 0.505882 352.977 0 352.977 0C352.977 0 354.688 2.02353 355.638 3.85735C355.955 4.48971 356.272 5.18529 356.588 5.88088C356.905 6.51324 357.158 7.14559 357.412 7.65147C357.539 7.90441 358.045 8.28382 358.552 8.6C360.769 8.34706 363.05 8.22059 365.394 8.22059C367.738 8.22059 370.018 8.34706 372.235 8.6C372.679 8.28382 373.249 7.90441 373.376 7.65147C373.629 7.14559 373.882 6.57647 374.199 5.88088C374.516 5.18529 374.833 4.48971 375.149 3.85735C376.226 2.02353 377.937 0 377.937 0Z" fill="#6DE754"/>
<path d="M377.937 129C377.937 129 380.977 128.494 382.941 127.988C384.905 127.482 387.756 126.344 387.756 126.344C387.756 126.344 388.262 123.751 388.136 121.665C388.072 120.969 388.009 120.21 387.946 119.451C387.882 118.756 387.819 118.06 387.756 117.491C387.756 117.175 388.072 116.479 388.326 115.974C392 114.329 395.421 112.369 398.652 110.029C399.222 110.029 400.045 110.156 400.299 110.282C400.742 110.599 401.312 110.978 401.882 111.421C402.516 111.863 403.149 112.306 403.719 112.685C405.493 113.824 407.964 114.709 407.964 114.709C407.964 114.709 410.371 112.749 411.765 111.357C413.158 109.966 415.122 107.563 415.122 107.563C415.122 107.563 414.235 105.097 413.095 103.326C412.715 102.757 412.272 102.125 411.828 101.493C411.385 100.924 411.005 100.354 410.688 99.9118C410.498 99.6588 410.434 99.0265 410.434 98.4574C412.652 95.5485 414.552 92.45 416.136 89.1618H405.303C397.068 102.441 382.308 111.294 365.457 111.294C348.606 111.294 333.91 102.441 325.611 89.1618H314.778C316.362 92.45 318.326 95.5485 320.48 98.4574C320.416 99.0265 320.353 99.6588 320.226 99.9118C319.91 100.354 319.529 100.924 319.086 101.493C318.643 102.125 318.199 102.757 317.819 103.326C316.679 105.097 315.792 107.563 315.792 107.563C315.792 107.563 317.756 109.966 319.149 111.357C320.543 112.749 322.95 114.709 322.95 114.709C322.95 114.709 325.421 113.824 327.195 112.685C327.765 112.306 328.398 111.863 329.032 111.421C329.602 110.978 330.172 110.599 330.615 110.282C330.932 110.093 331.692 110.029 332.262 110.029C335.493 112.369 338.914 114.329 342.588 115.974C342.842 116.479 343.158 117.175 343.158 117.491C343.158 118.06 343.095 118.693 342.968 119.451C342.905 120.21 342.842 120.969 342.778 121.665C342.652 123.751 343.158 126.344 343.158 126.344C343.158 126.344 346.072 127.419 347.973 127.988C349.873 128.494 352.977 129 352.977 129C352.977 129 354.688 127.04 355.638 125.143C355.955 124.51 356.272 123.815 356.588 123.119C356.905 122.487 357.158 121.854 357.412 121.349C357.539 121.096 358.045 120.716 358.552 120.4C360.769 120.653 363.05 120.779 365.394 120.779C367.738 120.779 370.018 120.653 372.235 120.4C372.679 120.716 373.249 121.096 373.376 121.349C373.629 121.854 373.882 122.424 374.199 123.119C374.516 123.815 374.833 124.51 375.149 125.143C376.226 127.04 377.937 129 377.937 129Z" fill="#6DE754"/>
<path d="M409.231 47.4267L407.33 43.0002L560 46.4782V47.4267H409.231Z" fill="#EDEFF1"/>
<path d="M409.231 81.5734L407.33 85.9999L560 82.5219V81.5734H409.231Z" fill="#EDEFF1"/>
<path d="M319.91 46.7941H0V82.5221H319.91L334.48 90.4265V89.1618C334.48 89.1618 325.611 80.9412 325.611 64.5C325.611 48.0588 334.48 39.8382 334.48 39.8382V38.5735L319.91 46.7941Z" fill="#EDEFF1"/>
<path fill-rule="evenodd" clip-rule="evenodd" d="M364.253 48.059H396.941C390.986 36.8031 379.14 29.0884 365.52 29.0884C345.945 29.0884 330.045 44.9605 330.045 64.5002C330.045 84.0399 345.945 99.9119 365.52 99.9119C379.14 99.9119 390.986 92.1972 396.941 80.9414H364.253L355.068 64.5002L364.253 48.059ZM365.52 96.1178V95.8017C349.493 94.2208 337.013 80.8781 337.013 64.5002C337.013 48.1222 349.493 34.7796 365.52 33.1987V32.8825C348.606 33.5781 335.113 47.4267 335.113 64.5002C335.113 81.5737 348.606 95.4222 365.52 96.1178Z" fill="#EDEFF1"/>
<path d="M521.674 54.3825H527.058V73.3531C527.058 73.3531 505.52 73.3531 502.669 73.3531C499.818 73.3531 497.918 71.7722 497.918 69.2428V54.3825H503.303V67.0296C503.303 68.6104 504.886 68.6104 504.886 68.6104H521.674V54.3825Z" fill="#EDEFF1"/>
<path fill-rule="evenodd" clip-rule="evenodd" d="M428.234 54.3825H451.673C451.673 54.3825 461.176 54.3825 461.176 63.8678C461.176 73.3531 451.99 73.3531 451.99 73.3531H433.619V78.4119H428.234V54.3825ZM433.619 68.2943H451.673C451.673 68.2943 455.791 68.2943 455.791 63.8678C455.791 59.4413 451.673 59.4413 451.673 59.4413H433.619V68.2943Z" fill="#EDEFF1"/>
<path d="M402.579 54.3824H424.117V58.8088H404.796C401.629 58.8088 400.679 61.9706 400.679 61.9706H424.117V66.0809H400.679C400.679 66.0809 401.629 68.9265 404.796 68.9265H424.117V73.3529H402.896C402.896 73.3529 395.294 72.7206 395.294 63.8676C395.294 55.0147 402.579 54.3824 402.579 54.3824Z" fill="#EDEFF1"/>
<path d="M537.512 54.3825H559.684V58.809H540.996C536.245 58.809 536.245 63.5516 536.245 63.5516V64.184C536.245 64.184 536.245 68.9266 540.996 68.9266H559.684V73.3531H537.828C537.828 73.3531 530.227 72.7207 530.227 63.8678C530.227 55.0149 537.512 54.3825 537.512 54.3825Z" fill="#EDEFF1"/>
<path d="M370.905 54.3824H393.077V58.8088H374.389C369.638 58.8088 369.638 63.5515 369.638 63.5515V64.1838C369.638 64.1838 369.638 68.9265 374.389 68.9265H393.077V73.3529H371.222C371.222 73.3529 363.62 72.7206 363.62 63.8676C363.62 55.0147 370.905 54.3824 370.905 54.3824Z" fill="#EDEFF1"/>
<path fill-rule="evenodd" clip-rule="evenodd" d="M463.71 73.3531V54.3825H489.049C492.85 54.3825 494.751 56.9119 494.751 60.0737C494.751 62.6031 493.484 63.8678 493.484 63.8678C493.484 63.8678 494.751 65.1325 494.751 67.6619C494.751 70.8237 492.914 73.3531 489.049 73.3531H463.71ZM487.782 58.809H469.158V61.9707H487.782C487.782 61.9707 489.049 61.6546 489.049 60.3899C489.049 59.1252 487.782 58.809 487.782 58.809ZM469.158 65.7649H487.782C487.782 65.7649 489.049 66.081 489.049 67.3457C489.049 68.6104 487.782 68.9266 487.782 68.9266H469.158V65.7649Z" fill="#EDEFF1"/>
<path d="M16.1541 73.3529H10.7695V54.3824C10.7695 54.3824 32.308 54.3824 35.1587 54.3824C38.0094 54.3824 39.9098 55.9632 39.9098 58.4926V73.3529H34.5252V60.7059C34.5252 59.125 32.9415 59.125 32.9415 59.125H16.1541V73.3529Z" fill="#22282F"/>
<path fill-rule="evenodd" clip-rule="evenodd" d="M76.0186 54.3825H99.4575C99.4575 54.3825 108.96 54.3825 108.96 63.8678C108.96 73.3531 99.7742 73.3531 99.7742 73.3531H81.4032V78.4119H76.0186V54.3825ZM81.4032 68.2943H99.4575C99.4575 68.2943 103.575 68.2943 103.575 63.8678C103.575 59.4413 99.4575 59.4413 99.4575 59.4413H81.4032V68.2943Z" fill="#22282F"/>
<path d="M50.3612 54.3825H71.8997V58.809H52.5784C49.411 58.809 48.4608 61.9707 48.4608 61.9707H71.8997V66.081H48.4608C48.4608 66.081 49.411 68.9266 52.5784 68.9266H71.8997V73.3531H50.678C50.678 73.3531 43.0762 72.7207 43.0762 63.8678C43.0762 55.0149 50.3612 54.3825 50.3612 54.3825Z" fill="#22282F"/>
<path d="M118.778 54.3824H140.317V58.8088H120.995C117.828 58.8088 116.878 61.9706 116.878 61.9706H140.317V66.0809H116.878C116.878 66.0809 117.828 68.9265 120.995 68.9265H140.317V73.3529H119.095C119.095 73.3529 111.493 72.7206 111.493 63.8676C111.493 55.0147 118.778 54.3824 118.778 54.3824Z" fill="#22282F"/>
<path fill-rule="evenodd" clip-rule="evenodd" d="M186.245 54.3824C182.38 54.3824 179.276 57.4809 179.276 61.3382V66.3971C179.276 70.2544 182.38 73.3529 186.245 73.3529H203.982C207.847 73.3529 210.951 70.2544 210.951 66.3971V61.3382C210.951 57.4809 207.847 54.3824 203.982 54.3824H186.245ZM188.145 58.8088C186.371 58.8088 184.978 60.2 184.978 61.9706V65.7647C184.978 67.5353 186.371 68.9265 188.145 68.9265H202.082C203.856 68.9265 205.249 67.5353 205.249 65.7647V61.9706C205.249 60.2 203.856 58.8088 202.082 58.8088H188.145Z" fill="#22282F"/>
<path fill-rule="evenodd" clip-rule="evenodd" d="M255.927 54.3824C252.063 54.3824 248.959 57.4809 248.959 61.3382V66.3971C248.959 70.2544 252.063 73.3529 255.927 73.3529H273.665C277.529 73.3529 280.633 70.2544 280.633 66.3971V61.3382C280.633 57.4809 277.529 54.3824 273.665 54.3824H255.927ZM257.828 58.8088C256.054 58.8088 254.66 60.2 254.66 61.9706V65.7647C254.66 67.5353 256.054 68.9265 257.828 68.9265H271.764C273.538 68.9265 274.932 67.5353 274.932 65.7647V61.9706C274.932 60.2 273.538 58.8088 271.764 58.8088H257.828Z" fill="#22282F"/>
<path fill-rule="evenodd" clip-rule="evenodd" d="M145.067 73.3531V54.3825H170.407C174.208 54.3825 176.108 56.9119 176.108 60.0737C176.108 62.6031 174.841 63.8678 174.841 63.8678C174.841 63.8678 176.108 65.1325 176.108 67.6619C176.108 70.8237 174.271 73.3531 170.407 73.3531H145.067ZM169.14 58.809H150.515V61.9707H169.14C169.14 61.9707 170.407 61.6546 170.407 60.3899C170.407 59.1252 169.14 58.809 169.14 58.809ZM150.515 65.7649H169.14C169.14 65.7649 170.407 66.081 170.407 67.3457C170.407 68.6104 169.14 68.9266 169.14 68.9266H150.515V65.7649Z" fill="#22282F"/>
<path fill-rule="evenodd" clip-rule="evenodd" d="M285.067 73.3531V54.3825H310.407C314.208 54.3825 316.108 56.9119 316.108 60.0737C316.108 62.6031 314.841 63.8678 314.841 63.8678C314.841 63.8678 316.108 65.1325 316.108 67.6619C316.108 70.8237 314.271 73.3531 310.407 73.3531H285.067ZM309.14 58.809H290.515V61.9707H309.14C309.14 61.9707 310.407 61.6546 310.407 60.3899C310.407 59.1252 309.14 58.809 309.14 58.809ZM290.515 65.7649H309.14C309.14 65.7649 310.407 66.081 310.407 67.3457C310.407 68.6104 309.14 68.9266 309.14 68.9266H290.515V65.7649Z" fill="#22282F"/>
<path d="M214.751 73.3531H240.09C243.955 73.3531 245.792 70.8237 245.792 67.6619C245.792 65.1325 244.525 63.8678 244.525 63.8678C244.525 63.8678 245.792 62.6031 245.792 60.0737C245.792 56.9119 243.891 54.3825 240.09 54.3825H214.751V58.809H238.823C238.823 58.809 240.09 59.1252 240.09 60.3899C240.09 61.6546 238.823 61.9707 238.823 61.9707H219.185V65.7649H238.823C238.823 65.7649 240.09 66.081 240.09 67.3457C240.09 68.6104 238.823 68.9266 238.823 68.9266H214.751V73.3531Z" fill="#22282F"/>
</g>
<defs>
<clipPath id="clip0_533_2885">
<rect width="560" height="129" fill="white"/>
</clipPath>
</defs>
</svg>
