<svg width="193" height="45" viewBox="0 0 193 45" fill="none" xmlns="http://www.w3.org/2000/svg">
<g clip-path="url(#clip0_520_2142)">
<path d="M130.253 0C130.253 0 131.301 0.176471 131.978 0.352941C132.633 0.529412 133.637 0.926471 133.637 0.926471C133.637 0.926471 133.812 1.83088 133.768 2.55882C133.747 2.80147 133.725 3.06618 133.703 3.33088C133.681 3.57353 133.659 3.81618 133.637 4.01471C133.637 4.125 133.747 4.36765 133.834 4.54412C135.1 5.11765 136.279 5.80147 137.393 6.61765C137.589 6.61765 137.873 6.57353 137.96 6.52941C138.113 6.41912 138.31 6.28676 138.506 6.13235C138.724 5.97794 138.943 5.82353 139.139 5.69118C139.751 5.29412 140.602 4.98529 140.602 4.98529C140.602 4.98529 141.432 5.66912 141.912 6.15441C142.392 6.63971 143.069 7.47794 143.069 7.47794C143.069 7.47794 142.763 8.33824 142.37 8.95588C142.24 9.15441 142.087 9.375 141.934 9.59559C141.781 9.79412 141.65 9.99265 141.541 10.1471C141.475 10.2353 141.454 10.4559 141.454 10.6544C142.218 11.6691 142.873 12.75 143.418 13.8971H139.685C136.847 9.26471 131.76 6.17647 125.952 6.17647C120.145 6.17647 115.08 9.26471 112.22 13.8971H108.486C109.032 12.75 109.709 11.6691 110.451 10.6544C110.429 10.4559 110.408 10.2353 110.364 10.1471C110.255 9.99265 110.124 9.79412 109.971 9.59559C109.818 9.375 109.665 9.15441 109.534 8.95588C109.141 8.33824 108.836 7.47794 108.836 7.47794C108.836 7.47794 109.512 6.63971 109.993 6.15441C110.473 5.66912 111.303 4.98529 111.303 4.98529C111.303 4.98529 112.154 5.29412 112.766 5.69118C112.962 5.82353 113.18 5.97794 113.399 6.13235C113.595 6.28676 113.792 6.41912 113.944 6.52941C114.054 6.59559 114.316 6.61765 114.512 6.61765C115.626 5.80147 116.805 5.11765 118.071 4.54412C118.158 4.36765 118.267 4.125 118.267 4.01471C118.267 3.81618 118.246 3.59559 118.202 3.33088C118.18 3.06618 118.158 2.80147 118.136 2.55882C118.093 1.83088 118.267 0.926471 118.267 0.926471C118.267 0.926471 119.272 0.551471 119.927 0.352941C120.582 0.176471 121.651 0 121.651 0C121.651 0 122.241 0.705882 122.568 1.34559C122.678 1.56618 122.787 1.80882 122.896 2.05147C123.005 2.27206 123.092 2.49265 123.18 2.66912C123.223 2.75735 123.398 2.88971 123.573 3C124.337 2.91176 125.123 2.86765 125.931 2.86765C126.738 2.86765 127.524 2.91176 128.288 3C128.441 2.88971 128.638 2.75735 128.681 2.66912C128.769 2.49265 128.856 2.29412 128.965 2.05147C129.074 1.80882 129.184 1.56618 129.293 1.34559C129.664 0.705882 130.253 0 130.253 0Z" fill="#6DE754"/>
<path d="M130.253 45C130.253 45 131.301 44.8235 131.978 44.6471C132.655 44.4706 133.637 44.0735 133.637 44.0735C133.637 44.0735 133.812 43.1691 133.768 42.4412C133.747 42.1985 133.725 41.9338 133.703 41.6691C133.681 41.4265 133.659 41.1838 133.637 40.9853C133.637 40.875 133.747 40.6323 133.834 40.4559C135.1 39.8823 136.279 39.1985 137.393 38.3823C137.589 38.3823 137.873 38.4265 137.96 38.4706C138.113 38.5809 138.31 38.7132 138.506 38.8676C138.724 39.0221 138.943 39.1765 139.139 39.3088C139.751 39.7059 140.602 40.0147 140.602 40.0147C140.602 40.0147 141.432 39.3309 141.912 38.8456C142.392 38.3603 143.069 37.5221 143.069 37.5221C143.069 37.5221 142.763 36.6618 142.37 36.0441C142.24 35.8456 142.087 35.625 141.934 35.4044C141.781 35.2059 141.65 35.0073 141.541 34.8529C141.475 34.7647 141.454 34.5441 141.454 34.3456C142.218 33.3309 142.873 32.25 143.418 31.1029H139.685C136.847 35.7353 131.76 38.8235 125.952 38.8235C120.145 38.8235 115.08 35.7353 112.22 31.1029H108.486C109.032 32.25 109.709 33.3309 110.451 34.3456C110.429 34.5441 110.408 34.7647 110.364 34.8529C110.255 35.0073 110.124 35.2059 109.971 35.4044C109.818 35.625 109.665 35.8456 109.534 36.0441C109.141 36.6618 108.836 37.5221 108.836 37.5221C108.836 37.5221 109.512 38.3603 109.993 38.8456C110.473 39.3309 111.303 40.0147 111.303 40.0147C111.303 40.0147 112.154 39.7059 112.766 39.3088C112.962 39.1765 113.18 39.0221 113.399 38.8676C113.595 38.7132 113.792 38.5809 113.944 38.4706C114.054 38.4044 114.316 38.3823 114.512 38.3823C115.626 39.1985 116.805 39.8823 118.071 40.4559C118.158 40.6323 118.267 40.875 118.267 40.9853C118.267 41.1838 118.246 41.4044 118.202 41.6691C118.18 41.9338 118.158 42.1985 118.136 42.4412C118.093 43.1691 118.267 44.0735 118.267 44.0735C118.267 44.0735 119.272 44.4485 119.927 44.6471C120.582 44.8235 121.651 45 121.651 45C121.651 45 122.241 44.3162 122.568 43.6544C122.678 43.4338 122.787 43.1912 122.896 42.9485C123.005 42.7279 123.092 42.5073 123.18 42.3309C123.223 42.2426 123.398 42.1103 123.573 42C124.337 42.0882 125.123 42.1323 125.931 42.1323C126.738 42.1323 127.524 42.0882 128.288 42C128.441 42.1103 128.638 42.2426 128.681 42.3309C128.769 42.5073 128.856 42.7059 128.965 42.9485C129.074 43.1912 129.184 43.4338 129.293 43.6544C129.664 44.3162 130.253 45 130.253 45Z" fill="#6DE754"/>
<path d="M141.038 16.5442L140.383 15.0001L192.999 16.2133V16.5442H141.038Z" fill="#EDEFF1"/>
<path d="M141.038 28.4558L140.383 30L192.999 28.7867V28.4558H141.038Z" fill="#EDEFF1"/>
<path d="M110.255 16.3235H0V28.7868H110.255L115.276 31.5441V31.1029C115.276 31.1029 112.219 28.2353 112.219 22.5C112.219 16.7647 115.276 13.8971 115.276 13.8971V13.4559L110.255 16.3235Z" fill="#EDEFF1"/>
<path fill-rule="evenodd" clip-rule="evenodd" d="M125.538 16.7648H136.803C134.751 12.8383 130.668 10.1471 125.974 10.1471C119.228 10.1471 113.748 15.6839 113.748 22.5001C113.748 29.3162 119.228 34.853 125.974 34.853C130.668 34.853 134.751 32.1618 136.803 28.2354H125.538L122.372 22.5001L125.538 16.7648ZM125.974 33.5295V33.4192C120.451 32.8677 116.15 28.2133 116.15 22.5001C116.15 16.7868 120.451 12.1324 125.974 11.5809V11.4707C120.145 11.7133 115.495 16.5442 115.495 22.5001C115.495 28.4559 120.145 33.2868 125.974 33.5295Z" fill="#EDEFF1"/>
<path d="M179.791 18.9706H181.646V25.5883C181.646 25.5883 174.223 25.5883 173.241 25.5883C172.258 25.5883 171.604 25.0368 171.604 24.1545V18.9706H173.459V23.3824C173.459 23.9339 174.005 23.9339 174.005 23.9339H179.791V18.9706Z" fill="#EDEFF1"/>
<path fill-rule="evenodd" clip-rule="evenodd" d="M147.588 18.9706H155.666C155.666 18.9706 158.941 18.9706 158.941 22.2795C158.941 25.5883 155.775 25.5883 155.775 25.5883H149.444V27.353H147.588V18.9706ZM149.444 23.8236H155.666C155.666 23.8236 157.085 23.8236 157.085 22.2795C157.085 20.7353 155.666 20.7353 155.666 20.7353H149.444V23.8236Z" fill="#EDEFF1"/>
<path d="M138.746 18.9706H146.169V20.5147H139.51C138.419 20.5147 138.091 21.6176 138.091 21.6176H146.169V23.0515H138.091C138.091 23.0515 138.419 24.0441 139.51 24.0441H146.169V25.5882H138.855C138.855 25.5882 136.235 25.3676 136.235 22.2794C136.235 19.1912 138.746 18.9706 138.746 18.9706Z" fill="#EDEFF1"/>
<path d="M185.25 18.9706H192.891V20.5148H186.451C184.813 20.5148 184.813 22.1692 184.813 22.1692V22.3898C184.813 22.3898 184.813 24.0442 186.451 24.0442H192.891V25.5883H185.359C185.359 25.5883 182.739 25.3677 182.739 22.2795C182.739 19.1912 185.25 18.9706 185.25 18.9706Z" fill="#EDEFF1"/>
<path d="M127.83 18.9706H135.471V20.5147H129.031C127.393 20.5147 127.393 22.1691 127.393 22.1691V22.3897C127.393 22.3897 127.393 24.0441 129.031 24.0441H135.471V25.5882H127.939C127.939 25.5882 125.319 25.3676 125.319 22.2794C125.319 19.1912 127.83 18.9706 127.83 18.9706Z" fill="#EDEFF1"/>
<path fill-rule="evenodd" clip-rule="evenodd" d="M159.814 25.5883V18.9706H168.547C169.857 18.9706 170.512 19.853 170.512 20.9559C170.512 21.8383 170.076 22.2795 170.076 22.2795C170.076 22.2795 170.512 22.7206 170.512 23.603C170.512 24.7059 169.879 25.5883 168.547 25.5883H159.814ZM168.111 20.5148H161.692V21.6177H168.111C168.111 21.6177 168.547 21.5074 168.547 21.0662C168.547 20.6251 168.111 20.5148 168.111 20.5148ZM161.692 22.9412H168.111C168.111 22.9412 168.547 23.0515 168.547 23.4927C168.547 23.9339 168.111 24.0442 168.111 24.0442H161.692V22.9412Z" fill="#EDEFF1"/>
<path d="M5.56768 25.5882H3.71191V18.9706C3.71191 18.9706 11.135 18.9706 12.1175 18.9706C13.0999 18.9706 13.7549 19.5221 13.7549 20.4044V25.5882H11.8991V21.1765C11.8991 20.625 11.3533 20.625 11.3533 20.625H5.56768V25.5882Z" fill="#22282F"/>
<path fill-rule="evenodd" clip-rule="evenodd" d="M26.1992 18.9706H34.2773C34.2773 18.9706 37.5522 18.9706 37.5522 22.2795C37.5522 25.5883 34.3864 25.5883 34.3864 25.5883H28.055V27.353H26.1992V18.9706ZM28.055 23.8236H34.2773C34.2773 23.8236 35.6964 23.8236 35.6964 22.2795C35.6964 20.7353 34.2773 20.7353 34.2773 20.7353H28.055V23.8236Z" fill="#22282F"/>
<path d="M17.3564 18.9706H24.7795V20.5148H18.1206C17.029 20.5148 16.7015 21.6177 16.7015 21.6177H24.7795V23.0515H16.7015C16.7015 23.0515 17.029 24.0442 18.1206 24.0442H24.7795V25.5883H17.4656C17.4656 25.5883 14.8457 25.3677 14.8457 22.2795C14.8457 19.1912 17.3564 18.9706 17.3564 18.9706Z" fill="#22282F"/>
<path d="M40.9365 18.9706H48.3596V20.5147H41.7007C40.609 20.5147 40.2816 21.6176 40.2816 21.6176H48.3596V23.0515H40.2816C40.2816 23.0515 40.609 24.0441 41.7007 24.0441H48.3596V25.5882H41.0457C41.0457 25.5882 38.4258 25.3676 38.4258 22.2794C38.4258 19.1912 40.9365 18.9706 40.9365 18.9706Z" fill="#22282F"/>
<path fill-rule="evenodd" clip-rule="evenodd" d="M64.1877 18.9706C62.8559 18.9706 61.7861 20.0515 61.7861 21.3971V23.1618C61.7861 24.5073 62.8559 25.5882 64.1877 25.5882H70.3008C71.6326 25.5882 72.7024 24.5073 72.7024 23.1618V21.3971C72.7024 20.0515 71.6326 18.9706 70.3008 18.9706H64.1877ZM64.8427 20.5147C64.2314 20.5147 63.7511 21 63.7511 21.6176V22.9412C63.7511 23.5588 64.2314 24.0441 64.8427 24.0441H69.6459C70.2572 24.0441 70.7375 23.5588 70.7375 22.9412V21.6176C70.7375 21 70.2572 20.5147 69.6459 20.5147H64.8427Z" fill="#22282F"/>
<path fill-rule="evenodd" clip-rule="evenodd" d="M88.2033 18.9706C86.8716 18.9706 85.8018 20.0515 85.8018 21.3971V23.1618C85.8018 24.5073 86.8716 25.5882 88.2033 25.5882H94.3165C95.6483 25.5882 96.718 24.5073 96.718 23.1618V21.3971C96.718 20.0515 95.6483 18.9706 94.3165 18.9706H88.2033ZM88.8583 20.5147C88.247 20.5147 87.7667 21 87.7667 21.6176V22.9412C87.7667 23.5588 88.247 24.0441 88.8583 24.0441H93.6615C94.2728 24.0441 94.7531 23.5588 94.7531 22.9412V21.6176C94.7531 21 94.2728 20.5147 93.6615 20.5147H88.8583Z" fill="#22282F"/>
<path fill-rule="evenodd" clip-rule="evenodd" d="M49.9961 25.5883V18.9706H58.7291C60.0391 18.9706 60.6941 19.853 60.6941 20.9559C60.6941 21.8383 60.2574 22.2795 60.2574 22.2795C60.2574 22.2795 60.6941 22.7206 60.6941 23.603C60.6941 24.7059 60.0609 25.5883 58.7291 25.5883H49.9961ZM58.2925 20.5148H51.8737V21.6177H58.2925C58.2925 21.6177 58.7291 21.5074 58.7291 21.0662C58.7291 20.6251 58.2925 20.5148 58.2925 20.5148ZM51.8737 22.9412H58.2925C58.2925 22.9412 58.7291 23.0515 58.7291 23.4927C58.7291 23.9339 58.2925 24.0442 58.2925 24.0442H51.8737V22.9412Z" fill="#22282F"/>
<path fill-rule="evenodd" clip-rule="evenodd" d="M98.2461 25.5883V18.9706H106.979C108.289 18.9706 108.944 19.853 108.944 20.9559C108.944 21.8383 108.507 22.2795 108.507 22.2795C108.507 22.2795 108.944 22.7206 108.944 23.603C108.944 24.7059 108.311 25.5883 106.979 25.5883H98.2461ZM106.542 20.5148H100.124V21.6177H106.542C106.542 21.6177 106.979 21.5074 106.979 21.0662C106.979 20.6251 106.542 20.5148 106.542 20.5148ZM100.124 22.9412H106.542C106.542 22.9412 106.979 23.0515 106.979 23.4927C106.979 23.9339 106.542 24.0442 106.542 24.0442H100.124V22.9412Z" fill="#22282F"/>
<path d="M74.0127 25.5883H82.7457C84.0775 25.5883 84.7107 24.7059 84.7107 23.603C84.7107 22.7206 84.274 22.2795 84.274 22.2795C84.274 22.2795 84.7107 21.8383 84.7107 20.9559C84.7107 19.853 84.0557 18.9706 82.7457 18.9706H74.0127V20.5148H82.3091C82.3091 20.5148 82.7457 20.6251 82.7457 21.0662C82.7457 21.5074 82.3091 21.6177 82.3091 21.6177H75.541V22.9412H82.3091C82.3091 22.9412 82.7457 23.0515 82.7457 23.4927C82.7457 23.9339 82.3091 24.0442 82.3091 24.0442H74.0127V25.5883Z" fill="#22282F"/>
</g>
<defs>
<clipPath id="clip0_520_2142">
<rect width="193" height="45" fill="white"/>
</clipPath>
</defs>
</svg>
