<svg width="100" height="100" viewBox="0 0 100 100" fill="none" xmlns="http://www.w3.org/2000/svg">
<g filter="url(#filter0_b_2009_237)">
<path fill-rule="evenodd" clip-rule="evenodd" d="M14.9892 30.8813C14.9892 40.4936 22.855 48.1967 32.6704 48.1967C42.4822 48.1967 50.3516 40.4936 50.3516 30.8813C50.3516 21.269 42.4822 13.5659 32.6704 13.5659C22.855 13.5659 14.9892 21.269 14.9892 30.8813ZM59.3926 67.802C59.3926 58.9039 47.0833 56.6777 32.6715 56.6777C18.1815 56.6777 5.9505 58.9806 5.9505 67.8856C5.9505 76.7837 18.2598 79.01 32.6715 79.01C47.1616 79.01 59.3926 76.7071 59.3926 67.802Z" fill="url(#paint0_linear_2009_237)"/>
</g>
<g filter="url(#filter1_f_2009_237)">
<path d="M38.4744 62.3848C47.2736 62.3848 54.7891 63.8633 54.7891 69.7728C54.7891 75.6869 47.3214 77.2163 38.4744 77.2163C29.6751 77.2163 22.1596 75.7378 22.1596 69.8283C22.1596 63.9142 29.6274 62.3848 38.4744 62.3848Z" fill="#6DE754"/>
</g>
<g filter="url(#filter2_f_2009_237)">
<path d="M36.9917 39.6428C32.0516 39.6428 28.0928 35.684 28.0928 30.7439C28.0928 25.8038 32.0516 21.845 36.9917 21.845C41.93 21.845 45.8906 25.8038 45.8906 30.7439C45.8906 35.684 41.93 39.6428 36.9917 39.6428Z" fill="#6DE754"/>
</g>
<g filter="url(#filter3_b_2009_237)">
<mask id="path-4-outside-1_2009_237" maskUnits="userSpaceOnUse" x="22" y="6" width="73" height="88" fill="black">
<rect fill="white" x="22" y="6" width="73" height="88"/>
<path fill-rule="evenodd" clip-rule="evenodd" d="M35.7697 29.7081C35.7697 42.3141 46.0853 52.4163 58.9576 52.4163C71.8253 52.4163 82.1455 42.3141 82.1455 29.7081C82.1455 17.1022 71.8253 7 58.9576 7C46.0853 7 35.7697 17.1022 35.7697 29.7081ZM94 78.1291C94 66.4598 77.8571 63.5401 58.9569 63.5401C39.954 63.5401 23.9138 66.5603 23.9138 78.2388C23.9138 89.9081 40.0567 92.8277 58.9569 92.8277C77.9598 92.8277 94 89.8076 94 78.1291Z"/>
</mask>
<path fill-rule="evenodd" clip-rule="evenodd" d="M35.7697 29.7081C35.7697 42.3141 46.0853 52.4163 58.9576 52.4163C71.8253 52.4163 82.1455 42.3141 82.1455 29.7081C82.1455 17.1022 71.8253 7 58.9576 7C46.0853 7 35.7697 17.1022 35.7697 29.7081ZM94 78.1291C94 66.4598 77.8571 63.5401 58.9569 63.5401C39.954 63.5401 23.9138 66.5603 23.9138 78.2388C23.9138 89.9081 40.0567 92.8277 58.9569 92.8277C77.9598 92.8277 94 89.8076 94 78.1291Z" fill="#6DE754" fill-opacity="0.4"/>
<path d="M58.9576 53.4163C45.5528 53.4163 34.7697 42.886 34.7697 29.7081H36.7697C36.7697 41.7422 46.6178 51.4163 58.9576 51.4163V53.4163ZM83.1455 29.7081C83.1455 42.8862 72.3576 53.4163 58.9576 53.4163V51.4163C71.2929 51.4163 81.1455 41.7421 81.1455 29.7081H83.1455ZM58.9576 6C72.3576 6 83.1455 16.5301 83.1455 29.7081H81.1455C81.1455 17.6742 71.2929 8 58.9576 8V6ZM34.7697 29.7081C34.7697 16.5303 45.5528 6 58.9576 6V8C46.6178 8 36.7697 17.674 36.7697 29.7081H34.7697ZM58.9569 62.5401C68.4289 62.5401 77.3278 63.2679 83.8897 65.5124C87.1764 66.6367 89.9496 68.1653 91.9093 70.2399C93.8916 72.3383 95 74.9538 95 78.1291H93C93 75.4697 92.0905 73.3442 90.4554 71.6133C88.7977 69.8584 86.3539 68.4691 83.2424 67.4048C77.0078 65.2722 68.3851 64.5401 58.9569 64.5401V62.5401ZM22.9138 78.2388C22.9138 75.0635 24.014 72.4414 25.9866 70.3322C27.9373 68.2464 30.7004 66.7033 33.9816 65.5652C40.5319 63.2932 49.432 62.5401 58.9569 62.5401V64.5401C49.4789 64.5401 40.8575 65.2972 34.637 67.4548C31.5327 68.5316 29.098 69.9333 27.4474 71.6983C25.8186 73.4399 24.9138 75.5748 24.9138 78.2388H22.9138ZM58.9569 93.8277C49.4849 93.8277 40.586 93.0999 34.0241 90.8554C30.7374 89.7312 27.9642 88.2026 26.0045 86.128C24.0222 84.0295 22.9138 81.414 22.9138 78.2388H24.9138C24.9138 80.8981 25.8232 83.0236 27.4584 84.7546C29.1161 86.5094 31.5598 87.8987 34.6714 88.9631C40.906 91.0957 49.5287 91.8277 58.9569 91.8277V93.8277ZM95 78.1291C95 81.3043 93.8997 83.9264 91.9272 86.0357C89.9764 88.1215 87.2134 89.6645 83.9322 90.8026C77.3819 93.0747 68.4818 93.8277 58.9569 93.8277V91.8277C68.4349 91.8277 77.0563 91.0707 83.2768 88.913C86.3811 87.8363 88.8158 86.4346 90.4664 84.6696C92.0952 82.9279 93 80.7931 93 78.1291H95Z" fill="url(#paint1_linear_2009_237)" mask="url(#path-4-outside-1_2009_237)"/>
</g>
<defs>
<filter id="filter0_b_2009_237" x="-7.04883" y="0.565918" width="79.4414" height="91.4441" filterUnits="userSpaceOnUse" color-interpolation-filters="sRGB">
<feFlood flood-opacity="0" result="BackgroundImageFix"/>
<feGaussianBlur in="BackgroundImageFix" stdDeviation="6.5"/>
<feComposite in2="SourceAlpha" operator="in" result="effect1_backgroundBlur_2009_237"/>
<feBlend mode="normal" in="SourceGraphic" in2="effect1_backgroundBlur_2009_237" result="shape"/>
</filter>
<filter id="filter1_f_2009_237" x="9.16016" y="49.3848" width="58.6289" height="40.8315" filterUnits="userSpaceOnUse" color-interpolation-filters="sRGB">
<feFlood flood-opacity="0" result="BackgroundImageFix"/>
<feBlend mode="normal" in="SourceGraphic" in2="BackgroundImageFix" result="shape"/>
<feGaussianBlur stdDeviation="6.5" result="effect1_foregroundBlur_2009_237"/>
</filter>
<filter id="filter2_f_2009_237" x="13.0918" y="6.84497" width="47.7988" height="47.7979" filterUnits="userSpaceOnUse" color-interpolation-filters="sRGB">
<feFlood flood-opacity="0" result="BackgroundImageFix"/>
<feBlend mode="normal" in="SourceGraphic" in2="BackgroundImageFix" result="shape"/>
<feGaussianBlur stdDeviation="7.5" result="effect1_foregroundBlur_2009_237"/>
</filter>
<filter id="filter3_b_2009_237" x="7.91406" y="-9" width="102.086" height="117.828" filterUnits="userSpaceOnUse" color-interpolation-filters="sRGB">
<feFlood flood-opacity="0" result="BackgroundImageFix"/>
<feGaussianBlur in="BackgroundImageFix" stdDeviation="7.5"/>
<feComposite in2="SourceAlpha" operator="in" result="effect1_backgroundBlur_2009_237"/>
<feBlend mode="normal" in="SourceGraphic" in2="effect1_backgroundBlur_2009_237" result="shape"/>
</filter>
<linearGradient id="paint0_linear_2009_237" x1="59.3926" y1="13.5659" x2="11.1783" y2="82.658" gradientUnits="userSpaceOnUse">
<stop stop-color="#6DE754"/>
<stop offset="1" stop-color="#129465"/>
</linearGradient>
<linearGradient id="paint1_linear_2009_237" x1="82.8434" y1="16.999" x2="26.8406" y2="73.6386" gradientUnits="userSpaceOnUse">
<stop stop-color="#22282F" stop-opacity="0.7"/>
<stop offset="1" stop-color="#22282F" stop-opacity="0"/>
</linearGradient>
</defs>
</svg>
