<svg width="100" height="100" viewBox="0 0 100 100" fill="none" xmlns="http://www.w3.org/2000/svg">
<path d="M50.1595 62.6823C49.8808 62.8432 49.5654 62.9404 49.2392 62.9562L38.7275 63.4637C35.744 63.6065 33.1775 63.3153 30.8786 62.5772C25.8484 60.9644 21.6272 57.6031 18.9955 53.1077L10.3281 38.3149C9.32737 36.6079 9.5517 34.4276 10.8801 32.8883L22.7815 19.1391C23.4839 18.3152 24.4668 17.7419 25.541 17.5254L43.3541 13.8849C45.3466 13.4747 47.3587 14.3491 48.3559 16.0553L57.0297 30.8591C59.6598 35.3466 60.5292 40.6664 59.48 45.8389C58.9983 48.2117 57.9944 50.5905 56.4144 53.1118L50.8459 62.0139C50.674 62.2916 50.4369 62.5192 50.1595 62.6823Z" fill="url(#paint0_linear_2009_89)"/>
<g filter="url(#filter0_f_2009_89)">
<path d="M45.5096 53.8687C45.3206 53.9778 45.1099 54.0493 44.8951 54.0711L37.9733 54.7741C36.0087 54.9728 34.3342 54.8898 32.8521 54.5224C29.6089 53.72 26.9621 51.8146 25.4014 49.1538L20.2606 40.3988C19.667 39.3884 19.8956 38.0421 20.8252 37.048L29.1528 28.1672C29.6448 27.6354 30.3116 27.247 31.0251 27.0741L42.8583 24.1765C44.1819 23.8506 45.4707 24.3123 46.062 25.3222L51.2065 34.0837C52.7665 36.7397 53.1393 39.9719 52.2576 43.1852C51.8529 44.6593 51.1051 46.1565 49.9736 47.7626L45.9853 53.433C45.862 53.6098 45.6978 53.7583 45.5096 53.8687Z" fill="#6DE754" fill-opacity="0.5"/>
</g>
<g filter="url(#filter1_b_2009_89)">
<mask id="path-3-outside-1_2009_89" maskUnits="userSpaceOnUse" x="25.2894" y="14.6287" width="71.2356" height="80.4357" fill="black">
<rect fill="white" x="25.2894" y="14.6287" width="71.2356" height="80.4357"/>
<path d="M55.8896 88.5809C55.4667 88.5159 55.0588 88.3537 54.7075 88.0974L43.3885 79.84C40.1769 77.4949 37.7592 75.0457 35.9912 72.3536C32.1209 66.4655 30.5459 59.429 31.5635 52.5375L34.9043 29.8538C35.2893 27.2358 37.3385 25.1479 39.998 24.6519L63.7903 20.2517C65.2048 19.9791 66.7015 20.2024 67.9953 20.8744L89.4931 31.9657C91.9001 33.2032 93.2573 35.7978 92.8693 38.412L89.526 61.1124C88.5133 67.9943 84.982 74.273 79.5848 78.7941C77.1084 80.8677 74.0859 82.5111 70.3473 83.8215L57.158 88.4572C56.7484 88.6033 56.313 88.6426 55.8896 88.5809Z"/>
</mask>
<path d="M55.8896 88.5809C55.4667 88.5159 55.0588 88.3537 54.7075 88.0974L43.3885 79.84C40.1769 77.4949 37.7592 75.0457 35.9912 72.3536C32.1209 66.4655 30.5459 59.429 31.5635 52.5375L34.9043 29.8538C35.2893 27.2358 37.3385 25.1479 39.998 24.6519L63.7903 20.2517C65.2048 19.9791 66.7015 20.2024 67.9953 20.8744L89.4931 31.9657C91.9001 33.2032 93.2573 35.7978 92.8693 38.412L89.526 61.1124C88.5133 67.9943 84.982 74.273 79.5848 78.7941C77.1084 80.8677 74.0859 82.5111 70.3473 83.8215L57.158 88.4572C56.7484 88.6033 56.313 88.6426 55.8896 88.5809Z" fill="#6DE754" fill-opacity="0.35"/>
<path d="M55.7376 89.5693C56.2835 89.6532 56.794 89.2788 56.878 88.7329C56.9619 88.187 56.5875 87.6765 56.0416 87.5925L55.7376 89.5693ZM54.7075 88.0974L55.2969 87.2896L55.2969 87.2896L54.7075 88.0974ZM43.3885 79.84L42.7988 80.6476L42.7991 80.6478L43.3885 79.84ZM35.9912 72.3536L36.827 71.8047L36.8268 71.8043L35.9912 72.3536ZM31.5635 52.5375L32.5528 52.6835L32.5528 52.6832L31.5635 52.5375ZM34.9043 29.8538L35.8936 29.9995L35.8936 29.9993L34.9043 29.8538ZM39.998 24.6519L39.8162 23.6686L39.8147 23.6688L39.998 24.6519ZM63.7903 20.2517L63.9722 21.2351L63.9796 21.2337L63.7903 20.2517ZM67.9953 20.8744L67.5344 21.7619L67.5368 21.7631L67.9953 20.8744ZM89.4931 31.9657L89.0346 32.8544L89.0359 32.8551L89.4931 31.9657ZM92.8693 38.412L91.8802 38.2652L91.88 38.2663L92.8693 38.412ZM89.526 61.1124L88.5366 60.9666L88.5366 60.9668L89.526 61.1124ZM79.5848 78.7941L80.2268 79.5608L80.2269 79.5607L79.5848 78.7941ZM70.3473 83.8215L70.0166 82.8778L70.0158 82.8781L70.3473 83.8215ZM57.158 88.4572L56.8265 87.5137L56.8221 87.5153L57.158 88.4572ZM56.0338 87.5913C55.4873 87.5117 54.9797 87.8902 54.9001 88.4367C54.8204 88.9832 55.1989 89.4908 55.7454 89.5704L56.0338 87.5913ZM56.0416 87.5925C55.769 87.5506 55.5126 87.447 55.2969 87.2896L54.1181 88.9053C54.6049 89.2604 55.1645 89.4811 55.7376 89.5693L56.0416 87.5925ZM55.2969 87.2896L43.9779 79.0321L42.7991 80.6478L54.1182 88.9053L55.2969 87.2896ZM43.9782 79.0323C40.842 76.7423 38.516 74.3764 36.827 71.8047L35.1553 72.9025C37.0024 75.715 39.5118 78.2475 42.7988 80.6476L43.9782 79.0323ZM36.8268 71.8043C33.0893 66.1183 31.5715 59.3288 32.5528 52.6835L30.5742 52.3914C29.5202 59.5291 31.1524 66.8127 35.1555 72.9029L36.8268 71.8043ZM32.5528 52.6832L35.8936 29.9995L33.915 29.7081L30.5742 52.3917L32.5528 52.6832ZM35.8936 29.9993C36.2144 27.8185 37.9272 26.0553 40.1813 25.635L39.8147 23.6688C36.7497 24.2404 34.3643 26.6531 33.9149 29.7083L35.8936 29.9993ZM40.1799 25.6352L63.9722 21.2351L63.6085 19.2684L39.8162 23.6686L40.1799 25.6352ZM63.9796 21.2337C65.1688 21.0044 66.4367 21.1917 67.5344 21.7619L68.4563 19.987C66.9663 19.2131 65.2409 18.9537 63.6011 19.2698L63.9796 21.2337ZM67.5368 21.7631L89.0346 32.8544L89.9516 31.077L68.4538 19.9857L67.5368 21.7631ZM89.0359 32.8551C91.0738 33.9028 92.2033 36.0876 91.8802 38.2652L93.8585 38.5588C94.3113 35.508 92.7265 32.5036 89.9503 31.0764L89.0359 32.8551ZM91.88 38.2663L88.5366 60.9666L90.5153 61.2581L93.8587 38.5577L91.88 38.2663ZM88.5366 60.9668C87.5602 67.6028 84.1546 73.6616 78.9426 78.0275L80.2269 79.5607C85.8095 74.8844 89.4665 68.3859 90.5153 61.2579L88.5366 60.9668ZM78.9427 78.0274C76.5772 80.0082 73.6669 81.5983 70.0166 82.8778L70.6781 84.7652C74.5049 83.4239 77.6397 81.7272 80.2268 79.5608L78.9427 78.0274ZM70.0158 82.8781L56.8265 87.5137L57.4896 89.4006L70.6789 84.765L70.0158 82.8781ZM56.8221 87.5153C56.5708 87.6049 56.3006 87.6302 56.0338 87.5913L55.7454 89.5704C56.3255 89.655 56.926 89.6016 57.494 89.399L56.8221 87.5153Z" fill="url(#paint1_linear_2009_89)" mask="url(#path-3-outside-1_2009_89)"/>
</g>
<g filter="url(#filter2_bd_2009_89)">
<path d="M57.3014 61.9536C56.6407 61.8554 56.0172 61.5161 55.5835 60.9489L50.0056 53.6464C49.1452 52.5131 49.379 50.9242 50.5309 50.0935C51.6834 49.2595 53.318 49.5006 54.1824 50.6311L58.1963 55.8831L71.4406 46.3127C72.5965 45.4792 74.2311 45.7203 75.092 46.8503C75.9559 47.9841 75.7216 49.5764 74.5702 50.4037L59.235 61.4865C58.6568 61.9049 57.962 62.0518 57.3014 61.9536Z" fill="url(#paint2_linear_2009_89)"/>
<path d="M50.5896 50.1745L50.5894 50.1746C49.4834 50.9722 49.2586 52.4971 50.0853 53.5859L55.663 60.8882C56.0798 61.4334 56.6795 61.7601 57.3161 61.8547C57.9523 61.9492 58.6205 61.8078 59.1763 61.4055L59.1764 61.4055L74.5116 50.3227L74.5118 50.3225C75.6171 49.5283 75.8425 48.0003 75.0125 46.9109C74.1846 45.8242 72.6113 45.5919 71.4992 46.3937L50.5896 50.1745ZM50.5896 50.1745C51.698 49.3723 53.2714 49.6043 54.1029 50.6918L58.1168 55.9438L58.1759 56.0211L58.2548 55.9641L71.4991 46.3938L50.5896 50.1745Z" stroke="url(#paint3_linear_2009_89)" stroke-opacity="0.5" stroke-width="0.2"/>
</g>
<defs>
<filter id="filter0_f_2009_89" x="3.93359" y="8.07324" width="64.791" height="62.8059" filterUnits="userSpaceOnUse" color-interpolation-filters="sRGB">
<feFlood flood-opacity="0" result="BackgroundImageFix"/>
<feBlend mode="normal" in="SourceGraphic" in2="BackgroundImageFix" result="shape"/>
<feGaussianBlur stdDeviation="8" result="effect1_foregroundBlur_2009_89"/>
</filter>
<filter id="filter1_b_2009_89" x="6.26172" y="-4.86182" width="111.674" height="118.471" filterUnits="userSpaceOnUse" color-interpolation-filters="sRGB">
<feFlood flood-opacity="0" result="BackgroundImageFix"/>
<feGaussianBlur in="BackgroundImageFix" stdDeviation="12"/>
<feComposite in2="SourceAlpha" operator="in" result="effect1_backgroundBlur_2009_89"/>
<feBlend mode="normal" in="SourceGraphic" in2="effect1_backgroundBlur_2009_89" result="shape"/>
</filter>
<filter id="filter2_bd_2009_89" x="34.4863" y="30.8164" width="56.127" height="46.1665" filterUnits="userSpaceOnUse" color-interpolation-filters="sRGB">
<feFlood flood-opacity="0" result="BackgroundImageFix"/>
<feGaussianBlur in="BackgroundImageFix" stdDeviation="7.5"/>
<feComposite in2="SourceAlpha" operator="in" result="effect1_backgroundBlur_2009_89"/>
<feColorMatrix in="SourceAlpha" type="matrix" values="0 0 0 0 0 0 0 0 0 0 0 0 0 0 0 0 0 0 127 0" result="hardAlpha"/>
<feOffset dx="5" dy="5"/>
<feGaussianBlur stdDeviation="5"/>
<feColorMatrix type="matrix" values="0 0 0 0 0.454902 0 0 0 0 0.870588 0 0 0 0 0.376471 0 0 0 0.5 0"/>
<feBlend mode="normal" in2="effect1_backgroundBlur_2009_89" result="effect2_dropShadow_2009_89"/>
<feBlend mode="normal" in="SourceGraphic" in2="effect2_dropShadow_2009_89" result="shape"/>
</filter>
<linearGradient id="paint0_linear_2009_89" x1="5" y1="29.0867" x2="65.5052" y2="59.0058" gradientUnits="userSpaceOnUse">
<stop stop-color="#6DE754"/>
<stop offset="1" stop-color="#129465"/>
</linearGradient>
<linearGradient id="paint1_linear_2009_89" x1="45.0882" y1="25.1476" x2="82.3929" y2="78.8522" gradientUnits="userSpaceOnUse">
<stop stop-color="#22282F" stop-opacity="0.7"/>
<stop offset="1" stop-color="#22282F" stop-opacity="0"/>
</linearGradient>
<linearGradient id="paint2_linear_2009_89" x1="73.6932" y1="49.2491" x2="45.6598" y2="46.2184" gradientUnits="userSpaceOnUse">
<stop stop-color="white"/>
<stop offset="1" stop-color="white" stop-opacity="0.2"/>
</linearGradient>
<linearGradient id="paint3_linear_2009_89" x1="52.7117" y1="48.8999" x2="73.9299" y2="52.3286" gradientUnits="userSpaceOnUse">
<stop stop-color="white"/>
<stop offset="1" stop-color="white" stop-opacity="0"/>
</linearGradient>
</defs>
</svg>
