<svg width="24" height="24" viewBox="0 0 24 24" fill="none" xmlns="http://www.w3.org/2000/svg">
<path d="M19.7219 7.7731C19.5274 6.93737 18.8294 6.31622 17.9941 6.22587C16.0145 6 14.0007 6 11.9983 6C9.99583 6 7.9934 6 6.00242 6.21458C5.17857 6.31622 4.48058 6.92608 4.28606 7.7731C4 8.97023 4 10.269 4 11.5C4 12.731 4 14.0411 4.27462 15.2382C4.46914 16.0739 5.16713 16.6951 6.00242 16.7854C7.98196 17 9.99583 17 11.9983 17C14.0007 17 16.0031 17 17.9941 16.7854C18.8294 16.6951 19.5274 16.0739 19.7219 15.2382C19.9965 14.0411 19.9965 12.731 19.9965 11.5C20.0079 10.269 20.0079 8.97023 19.7219 7.7731ZM10.3277 13.6571V9.27515L14.5614 11.4661L10.3277 13.6571Z" fill="#22282F"/>
</svg>
