<svg width="100" height="100" viewBox="0 0 100 100" fill="none" xmlns="http://www.w3.org/2000/svg">
<g filter="url(#filter0_b_2009_288)">
<path d="M63.4519 46.9655C62.846 46.0205 61.9849 45.0755 60.8686 44.477C59.9756 44.036 59.4016 43.3115 58.8913 42.461C57.2647 39.752 58.2215 36.1925 60.9324 34.586C64.1217 32.7905 65.1422 28.79 63.2925 25.6715L61.1557 21.9545C59.3378 18.836 55.3512 17.7335 52.1938 19.5605C49.3873 21.0725 45.7834 20.0645 44.1569 17.387C43.6466 16.505 43.3595 15.56 43.4233 14.615C43.519 13.3865 43.1363 12.221 42.5622 11.276C41.3822 9.323 39.2454 8 36.8853 8H32.3885C30.0603 8.063 27.9235 9.323 26.7435 11.276C26.1375 12.221 25.7867 13.3865 25.8505 14.615C25.9143 15.56 25.6272 16.505 25.1169 17.387C23.4904 20.0645 19.8865 21.0725 17.1119 19.5605C13.9226 17.7335 9.96793 18.836 8.11815 21.9545L5.98135 25.6715C4.16346 28.79 5.18403 32.7905 8.3414 34.586C11.0523 36.1925 12.0091 39.752 10.4144 42.461C9.87225 43.3115 9.29818 44.036 8.40519 44.477C7.32084 45.0755 6.36406 46.0205 5.85377 46.9655C4.67375 48.9185 4.73753 51.3755 5.91756 53.423L8.11815 57.203C9.29818 59.219 11.4988 60.479 13.795 60.479C14.8794 60.479 16.1551 60.164 17.1757 59.534C17.973 58.9985 18.9298 58.8095 19.9822 58.8095C23.1396 58.8095 25.7867 61.424 25.8505 64.5425C25.8505 68.165 28.7846 71 32.4841 71H36.8215C40.4892 71 43.4233 68.165 43.4233 64.5425C43.519 61.424 46.1661 58.8095 49.3235 58.8095C50.344 58.8095 51.3008 58.9985 52.13 59.534C53.1506 60.164 54.3944 60.479 55.5107 60.479C57.775 60.479 59.9756 59.219 61.1557 57.203L63.3881 53.423C64.5363 51.3125 64.632 48.9185 63.4519 46.9655Z" fill="url(#paint0_linear_2009_288)"/>
</g>
<g opacity="0.5" filter="url(#filter1_f_2009_288)">
<path d="M49.7018 43.5196C49.3893 43.0332 48.9453 42.5468 48.3698 42.2388C47.9093 42.0118 47.6133 41.6389 47.3502 41.2011C46.5115 39.8068 47.0048 37.9747 48.4026 37.1478C50.0471 36.2237 50.5733 34.1646 49.6195 32.5595L48.5178 30.6463C47.5804 29.0412 45.5248 28.4738 43.8968 29.4141C42.4497 30.1924 40.5914 29.6735 39.7528 28.2954C39.4896 27.8414 39.3416 27.355 39.3745 26.8686C39.4239 26.2363 39.2265 25.6364 38.9305 25.15C38.3221 24.1448 37.2203 23.4639 36.0034 23.4639H33.6847C32.4842 23.4963 31.3824 24.1448 30.774 25.15C30.4615 25.6364 30.2806 26.2363 30.3135 26.8686C30.3464 27.355 30.1984 27.8414 29.9353 28.2954C29.0966 29.6735 27.2384 30.1924 25.8077 29.4141C24.1632 28.4738 22.1241 29.0412 21.1703 30.6463L20.0685 32.5595C19.1312 34.1646 19.6574 36.2237 21.2854 37.1478C22.6832 37.9747 23.1765 39.8068 22.3543 41.2011C22.0748 41.6389 21.7788 42.0118 21.3183 42.2388C20.7592 42.5468 20.2658 43.0332 20.0027 43.5196C19.3943 44.5249 19.4272 45.7895 20.0356 46.8434L21.1703 48.7889C21.7788 49.8266 22.9134 50.4751 24.0974 50.4751C24.6566 50.4751 25.3144 50.313 25.8406 49.9887C26.2517 49.7131 26.745 49.6158 27.2877 49.6158C28.9157 49.6158 30.2806 50.9615 30.3135 52.5666C30.3135 54.4311 31.8264 55.8903 33.734 55.8903H35.9705C37.8616 55.8903 39.3745 54.4311 39.3745 52.5666C39.4239 50.9615 40.7888 49.6158 42.4168 49.6158C42.943 49.6158 43.4364 49.7131 43.8639 49.9887C44.3902 50.313 45.0315 50.4751 45.6071 50.4751C46.7746 50.4751 47.9093 49.8266 48.5178 48.7889L49.6689 46.8434C50.2609 45.7571 50.3102 44.5249 49.7018 43.5196Z" fill="#6DE754"/>
</g>
<g filter="url(#filter2_b_2009_288)">
<mask id="path-3-outside-1_2009_288" maskUnits="userSpaceOnUse" x="21.6016" y="15.3384" width="74" height="78" fill="black">
<rect fill="white" x="21.6016" y="15.3384" width="74" height="78"/>
<path d="M93.4593 63.1352C92.7247 62.0003 91.6809 60.8653 90.3277 60.1465C89.2452 59.6169 88.5493 58.7468 87.9307 57.7254C85.959 54.4719 87.1188 50.197 90.405 48.2676C94.2712 46.1113 95.5084 41.3068 93.266 37.5615L90.6757 33.0975C88.472 29.3522 83.6393 28.0281 79.8118 30.2223C76.4096 32.0382 72.0408 30.8276 70.0691 27.612C69.4505 26.5527 69.1025 25.4178 69.1798 24.2829C69.2958 22.8075 68.8319 21.4077 68.136 20.2728C66.7055 17.9273 64.1152 16.3384 61.2542 16.3384H55.803C52.9807 16.414 50.3903 17.9273 48.9599 20.2728C48.2253 21.4077 47.8 22.8075 47.8773 24.2829C47.9547 25.4178 47.6067 26.5527 46.9881 27.612C45.0164 30.8276 40.6476 32.0382 37.2841 30.2223C33.4179 28.0281 28.6239 29.3522 26.3815 33.0975L23.7912 37.5615C21.5875 41.3068 22.8246 46.1113 26.6521 48.2676C29.9384 50.197 31.0982 54.4719 29.1651 57.7254C28.5079 58.7468 27.812 59.6169 26.7295 60.1465C25.415 60.8653 24.2551 62.0003 23.6365 63.1352C22.2061 65.4807 22.2834 68.4315 23.7139 70.8905L26.3815 75.4302C27.812 77.8514 30.4796 79.3646 33.2633 79.3646C34.5778 79.3646 36.1242 78.9863 37.3614 78.2297C38.3279 77.5866 39.4878 77.3596 40.7636 77.3596C44.5911 77.3596 47.8 80.4996 47.8773 84.2448C47.8773 88.5954 51.4342 92.0001 55.9189 92.0001H61.1769C65.623 92.0001 69.1798 88.5954 69.1798 84.2448C69.2958 80.4996 72.5047 77.3596 76.3322 77.3596C77.5694 77.3596 78.7293 77.5866 79.7345 78.2297C80.9716 78.9863 82.4794 79.3646 83.8326 79.3646C86.5775 79.3646 89.2452 77.8514 90.6757 75.4302L93.382 70.8905C94.7738 68.3558 94.8898 65.4807 93.4593 63.1352Z"/>
</mask>
<path d="M93.4593 63.1352C92.7247 62.0003 91.6809 60.8653 90.3277 60.1465C89.2452 59.6169 88.5493 58.7468 87.9307 57.7254C85.959 54.4719 87.1188 50.197 90.405 48.2676C94.2712 46.1113 95.5084 41.3068 93.266 37.5615L90.6757 33.0975C88.472 29.3522 83.6393 28.0281 79.8118 30.2223C76.4096 32.0382 72.0408 30.8276 70.0691 27.612C69.4505 26.5527 69.1025 25.4178 69.1798 24.2829C69.2958 22.8075 68.8319 21.4077 68.136 20.2728C66.7055 17.9273 64.1152 16.3384 61.2542 16.3384H55.803C52.9807 16.414 50.3903 17.9273 48.9599 20.2728C48.2253 21.4077 47.8 22.8075 47.8773 24.2829C47.9547 25.4178 47.6067 26.5527 46.9881 27.612C45.0164 30.8276 40.6476 32.0382 37.2841 30.2223C33.4179 28.0281 28.6239 29.3522 26.3815 33.0975L23.7912 37.5615C21.5875 41.3068 22.8246 46.1113 26.6521 48.2676C29.9384 50.197 31.0982 54.4719 29.1651 57.7254C28.5079 58.7468 27.812 59.6169 26.7295 60.1465C25.415 60.8653 24.2551 62.0003 23.6365 63.1352C22.2061 65.4807 22.2834 68.4315 23.7139 70.8905L26.3815 75.4302C27.812 77.8514 30.4796 79.3646 33.2633 79.3646C34.5778 79.3646 36.1242 78.9863 37.3614 78.2297C38.3279 77.5866 39.4878 77.3596 40.7636 77.3596C44.5911 77.3596 47.8 80.4996 47.8773 84.2448C47.8773 88.5954 51.4342 92.0001 55.9189 92.0001H61.1769C65.623 92.0001 69.1798 88.5954 69.1798 84.2448C69.2958 80.4996 72.5047 77.3596 76.3322 77.3596C77.5694 77.3596 78.7293 77.5866 79.7345 78.2297C80.9716 78.9863 82.4794 79.3646 83.8326 79.3646C86.5775 79.3646 89.2452 77.8514 90.6757 75.4302L93.382 70.8905C94.7738 68.3558 94.8898 65.4807 93.4593 63.1352Z" fill="#6DE754" fill-opacity="0.35"/>
<path d="M92.6198 63.6785C92.9199 64.1422 93.539 64.2748 94.0027 63.9747C94.4663 63.6746 94.5989 63.0555 94.2988 62.5918L92.6198 63.6785ZM90.3277 60.1465L90.7968 59.2634C90.787 59.2582 90.7772 59.2532 90.7672 59.2483L90.3277 60.1465ZM87.9307 57.7254L88.7861 57.2073L88.7859 57.2071L87.9307 57.7254ZM90.405 48.2676L89.9179 47.3943C89.9115 47.3979 89.9051 47.4016 89.8987 47.4053L90.405 48.2676ZM93.266 37.5615L92.401 38.0634L92.408 38.0752L93.266 37.5615ZM90.6757 33.0975L91.5406 32.5956L91.5375 32.5903L90.6757 33.0975ZM79.8118 30.2223L80.2826 31.1045C80.2915 31.0998 80.3004 31.0949 80.3091 31.0899L79.8118 30.2223ZM70.0691 27.612L69.2055 28.1163C69.2091 28.1225 69.2128 28.1286 69.2166 28.1347L70.0691 27.612ZM69.1798 24.2829L68.1829 24.2045L68.1822 24.2149L69.1798 24.2829ZM68.136 20.2728L67.2822 20.7935L67.2835 20.7955L68.136 20.2728ZM55.803 16.3384V15.3384C55.794 15.3384 55.7851 15.3385 55.7762 15.3387L55.803 16.3384ZM48.9599 20.2728L49.7994 20.8161C49.8042 20.8087 49.809 20.8011 49.8136 20.7935L48.9599 20.2728ZM47.8773 24.2829L46.8787 24.3352C46.879 24.3404 46.8793 24.3456 46.8796 24.3508L47.8773 24.2829ZM46.9881 27.612L47.8406 28.1347C47.8444 28.1286 47.848 28.1225 47.8517 28.1163L46.9881 27.612ZM37.2841 30.2223L36.7905 31.092C36.7966 31.0955 36.8028 31.0989 36.809 31.1023L37.2841 30.2223ZM26.3815 33.0975L25.5235 32.5837L25.5166 32.5956L26.3815 33.0975ZM23.7912 37.5615L24.6531 38.0686L24.6561 38.0634L23.7912 37.5615ZM26.6521 48.2676L27.1584 47.4053C27.1533 47.4023 27.1482 47.3993 27.143 47.3964L26.6521 48.2676ZM29.1651 57.7254L30.0061 58.2665C30.0125 58.2565 30.0188 58.2464 30.0248 58.2362L29.1651 57.7254ZM26.7295 60.1465L26.29 59.2483C26.2764 59.2549 26.263 59.2619 26.2497 59.2691L26.7295 60.1465ZM23.6365 63.1352L24.4903 63.6559C24.4987 63.642 24.5068 63.628 24.5146 63.6138L23.6365 63.1352ZM23.7139 70.8905L22.8495 71.3934L22.8517 71.3971L23.7139 70.8905ZM26.3815 75.4302L25.5193 75.9368L25.5206 75.9389L26.3815 75.4302ZM37.3614 78.2297L37.8831 79.0828C37.894 79.0762 37.9047 79.0693 37.9154 79.0622L37.3614 78.2297ZM47.8773 84.2448H48.8773C48.8773 84.2379 48.8773 84.2311 48.8771 84.2242L47.8773 84.2448ZM69.1798 84.2448L68.1803 84.2139C68.18 84.2242 68.1798 84.2345 68.1798 84.2448H69.1798ZM79.7345 78.2297L79.1955 79.0721C79.2012 79.0757 79.2069 79.0793 79.2127 79.0828L79.7345 78.2297ZM90.6757 75.4302L89.8167 74.9182L89.8147 74.9215L90.6757 75.4302ZM93.382 70.8905L94.2409 71.4026C94.247 71.3924 94.2528 71.3822 94.2585 71.3718L93.382 70.8905ZM94.313 62.6145C94.0255 62.143 93.4101 61.9939 92.9386 62.2814C92.4671 62.569 92.318 63.1843 92.6056 63.6559L94.313 62.6145ZM94.2988 62.5918C93.5012 61.3595 92.342 60.0842 90.7968 59.2634L89.8586 61.0297C91.0198 61.6465 91.9482 62.641 92.6198 63.6785L94.2988 62.5918ZM90.7672 59.2483C89.9392 58.8432 89.3669 58.1665 88.7861 57.2073L87.0753 58.2434C87.7317 59.3271 88.5512 60.3906 89.8882 61.0448L90.7672 59.2483ZM88.7859 57.2071C87.1142 54.4487 88.0877 50.7878 90.9113 49.13L89.8987 47.4053C86.1499 49.6062 84.8037 54.4952 87.0755 58.2437L88.7859 57.2071ZM90.8922 49.141C95.2561 46.707 96.6533 41.2724 94.124 37.0478L92.408 38.0752C94.3634 41.3412 93.2863 45.5156 89.9179 47.3943L90.8922 49.141ZM94.1309 37.0596L91.5406 32.5956L89.8107 33.5993L92.4011 38.0634L94.1309 37.0596ZM91.5375 32.5903C89.0581 28.3764 83.6208 26.886 79.3144 29.3548L80.3091 31.0899C83.6577 29.1702 87.8858 30.328 89.8138 33.6046L91.5375 32.5903ZM79.3409 29.3401C76.4041 30.9076 72.616 29.8526 70.9216 27.0893L69.2166 28.1347C71.4656 31.8026 76.415 33.1688 80.2826 31.1045L79.3409 29.3401ZM70.9326 27.1077C70.385 26.17 70.1174 25.2337 70.1775 24.3508L68.1822 24.2149C68.0877 25.6018 68.5159 26.9354 69.2055 28.1163L70.9326 27.1077ZM70.1768 24.3612C70.313 22.6277 69.767 21.0196 68.9885 19.7501L67.2835 20.7955C67.8968 21.7958 68.2786 22.9872 68.1829 24.2045L70.1768 24.3612ZM68.9897 19.7521C67.3909 17.1305 64.4885 15.3384 61.2542 15.3384V17.3384C63.7419 17.3384 66.0201 18.724 67.2822 20.7935L68.9897 19.7521ZM61.2542 15.3384H55.803V17.3384H61.2542V15.3384ZM55.7762 15.3387C52.6168 15.4234 49.7142 17.1154 48.1061 19.7521L49.8136 20.7935C51.0665 18.7392 53.3446 17.4046 55.8298 17.338L55.7762 15.3387ZM48.1204 19.7294C47.2797 21.0283 46.7896 22.6346 46.8787 24.3352L48.876 24.2305C48.8104 22.9803 49.1709 21.7871 49.7994 20.8161L48.1204 19.7294ZM46.8796 24.3508C46.9398 25.2337 46.6722 26.17 46.1246 27.1077L47.8517 28.1163C48.5412 26.9354 48.9695 25.6018 48.875 24.2149L46.8796 24.3508ZM46.1356 27.0893C44.4392 29.8558 40.6518 30.9041 37.7591 29.3424L36.809 31.1023C40.6434 33.1723 45.5935 31.7994 47.8406 28.1347L46.1356 27.0893ZM37.7777 29.3526C33.4328 26.8868 28.0413 28.3786 25.5235 32.5838L27.2395 33.6111C29.2065 30.3258 33.403 29.1695 36.7905 31.092L37.7777 29.3526ZM25.5166 32.5956L22.9263 37.0596L24.6561 38.0634L27.2464 33.5993L25.5166 32.5956ZM22.9293 37.0544C20.4463 41.2744 21.8386 46.7035 26.1613 49.1389L27.143 47.3964C23.8107 45.5191 22.7287 41.3392 24.6531 38.0686L22.9293 37.0544ZM26.1458 49.13C28.9695 50.7878 29.9463 54.4529 28.3054 57.2146L30.0248 58.2362C32.2501 54.4909 30.9072 49.6062 27.1584 47.4053L26.1458 49.13ZM28.3242 57.1842C27.6941 58.1635 27.1207 58.8419 26.29 59.2483L27.1689 61.0448C28.5033 60.3919 29.3217 59.3301 30.0061 58.2665L28.3242 57.1842ZM26.2497 59.2691C24.7871 60.0689 23.4793 61.3342 22.7585 62.6566L24.5146 63.6138C25.031 62.6663 26.0428 61.6618 27.2092 61.0239L26.2497 59.2691ZM22.7828 62.6145C21.1416 65.3056 21.2542 68.6511 22.8495 71.3933L24.5782 70.3877C23.3126 68.2119 23.2706 65.6558 24.4903 63.6559L22.7828 62.6145ZM22.8517 71.3971L25.5193 75.9368L27.2437 74.9236L24.576 70.3839L22.8517 71.3971ZM25.5206 75.9389C27.1311 78.6648 30.1262 80.3646 33.2633 80.3646V78.3646C30.8331 78.3646 28.4929 77.038 27.2425 74.9215L25.5206 75.9389ZM33.2633 80.3646C34.7442 80.3646 36.4744 79.9443 37.8831 79.0828L36.8397 77.3766C35.774 78.0283 34.4114 78.3646 33.2633 78.3646V80.3646ZM37.9154 79.0622C38.6574 78.5685 39.5971 78.3596 40.7636 78.3596V76.3596C39.3784 76.3596 37.9984 76.6047 36.8074 77.3972L37.9154 79.0622ZM40.7636 78.3596C44.0549 78.3596 46.8116 81.0723 46.8775 84.2655L48.8771 84.2242C48.7884 79.9268 45.1273 76.3596 40.7636 76.3596V78.3596ZM46.8773 84.2448C46.8773 89.1836 50.9186 93.0001 55.9189 93.0001V91.0001C51.9498 91.0001 48.8773 88.0071 48.8773 84.2448H46.8773ZM55.9189 93.0001H61.1769V91.0001H55.9189V93.0001ZM61.1769 93.0001C66.1418 93.0001 70.1798 89.1805 70.1798 84.2448H68.1798C68.1798 88.0102 65.1042 91.0001 61.1769 91.0001V93.0001ZM70.1794 84.2758C70.2786 81.0723 73.0431 78.3596 76.3322 78.3596V76.3596C71.9664 76.3596 68.3131 79.9268 68.1803 84.2139L70.1794 84.2758ZM76.3322 78.3596C77.4515 78.3596 78.4033 78.5652 79.1955 79.0721L80.2734 77.3874C79.0552 76.6079 77.6874 76.3596 76.3322 76.3596V78.3596ZM79.2127 79.0828C80.6195 79.9431 82.3105 80.3646 83.8326 80.3646V78.3646C82.6483 78.3646 81.3238 78.0295 80.2562 77.3766L79.2127 79.0828ZM83.8326 80.3646C86.9337 80.3646 89.9275 78.6625 91.5366 75.9389L89.8147 74.9215C88.5629 77.0403 86.2214 78.3646 83.8326 78.3646V80.3646ZM91.5346 75.9423L94.2409 71.4026L92.523 70.3785L89.8167 74.9182L91.5346 75.9423ZM94.2585 71.3718C95.7913 68.5804 95.9617 65.3177 94.313 62.6145L92.6056 63.6559C93.8179 65.6436 93.7563 68.1313 92.5054 70.4092L94.2585 71.3718Z" fill="url(#paint1_linear_2009_288)" mask="url(#path-3-outside-1_2009_288)"/>
</g>
<g filter="url(#filter3_bd_2009_288)">
<path d="M58.5971 64.5805C52.5272 64.5805 47.6172 59.8516 47.6172 53.9122C47.6172 47.9727 52.5272 43.2061 58.5971 43.2061C64.6669 43.2061 69.461 47.9727 69.461 53.9122C69.461 59.8516 64.6669 64.5805 58.5971 64.5805Z" fill="url(#paint2_linear_2009_288)"/>
<path d="M58.5971 64.3805C52.6317 64.3805 47.8172 59.7353 47.8172 53.9122C47.8172 48.0882 52.6326 43.4061 58.5971 43.4061C64.5587 43.4061 69.261 48.0854 69.261 53.9122C69.261 59.738 64.5596 64.3805 58.5971 64.3805Z" stroke="url(#paint3_linear_2009_288)" stroke-width="0.4"/>
</g>
<defs>
<filter id="filter0_b_2009_288" x="-8" y="-5" width="85.2949" height="89" filterUnits="userSpaceOnUse" color-interpolation-filters="sRGB">
<feFlood flood-opacity="0" result="BackgroundImageFix"/>
<feGaussianBlur in="BackgroundImageFix" stdDeviation="6.5"/>
<feComposite in2="SourceAlpha" operator="in" result="effect1_backgroundBlur_2009_288"/>
<feBlend mode="normal" in="SourceGraphic" in2="effect1_backgroundBlur_2009_288" result="shape"/>
</filter>
<filter id="filter1_f_2009_288" x="3.5625" y="7.46387" width="62.5742" height="64.4265" filterUnits="userSpaceOnUse" color-interpolation-filters="sRGB">
<feFlood flood-opacity="0" result="BackgroundImageFix"/>
<feBlend mode="normal" in="SourceGraphic" in2="BackgroundImageFix" result="shape"/>
<feGaussianBlur stdDeviation="8" result="effect1_foregroundBlur_2009_288"/>
</filter>
<filter id="filter2_b_2009_288" x="-2.39844" y="-8.66162" width="121.879" height="125.662" filterUnits="userSpaceOnUse" color-interpolation-filters="sRGB">
<feFlood flood-opacity="0" result="BackgroundImageFix"/>
<feGaussianBlur in="BackgroundImageFix" stdDeviation="12"/>
<feComposite in2="SourceAlpha" operator="in" result="effect1_backgroundBlur_2009_288"/>
<feBlend mode="normal" in="SourceGraphic" in2="effect1_backgroundBlur_2009_288" result="shape"/>
</filter>
<filter id="filter3_bd_2009_288" x="32.6172" y="28.2061" width="51.8438" height="51.3745" filterUnits="userSpaceOnUse" color-interpolation-filters="sRGB">
<feFlood flood-opacity="0" result="BackgroundImageFix"/>
<feGaussianBlur in="BackgroundImageFix" stdDeviation="7.5"/>
<feComposite in2="SourceAlpha" operator="in" result="effect1_backgroundBlur_2009_288"/>
<feColorMatrix in="SourceAlpha" type="matrix" values="0 0 0 0 0 0 0 0 0 0 0 0 0 0 0 0 0 0 127 0" result="hardAlpha"/>
<feOffset dx="5" dy="5"/>
<feGaussianBlur stdDeviation="5"/>
<feColorMatrix type="matrix" values="0 0 0 0 0.427451 0 0 0 0 0.905882 0 0 0 0 0.329412 0 0 0 0.5 0"/>
<feBlend mode="normal" in2="effect1_backgroundBlur_2009_288" result="effect2_dropShadow_2009_288"/>
<feBlend mode="normal" in="SourceGraphic" in2="effect2_dropShadow_2009_288" result="shape"/>
</filter>
<linearGradient id="paint0_linear_2009_288" x1="5" y1="8" x2="48.8178" y2="80.3704" gradientUnits="userSpaceOnUse">
<stop stop-color="#6DE754"/>
<stop offset="1" stop-color="#129465"/>
</linearGradient>
<linearGradient id="paint1_linear_2009_288" x1="34.0435" y1="25.1531" x2="82.7704" y2="82.4851" gradientUnits="userSpaceOnUse">
<stop stop-color="#1F252B" stop-opacity="0.7"/>
<stop offset="1" stop-color="#1E242A" stop-opacity="0"/>
</linearGradient>
<linearGradient id="paint2_linear_2009_288" x1="67.9122" y1="47.0659" x2="43.5815" y2="47.8766" gradientUnits="userSpaceOnUse">
<stop stop-color="white"/>
<stop offset="1" stop-color="white" stop-opacity="0.2"/>
</linearGradient>
<linearGradient id="paint3_linear_2009_288" x1="51.0944" y1="45.6962" x2="64.6637" y2="62.8711" gradientUnits="userSpaceOnUse">
<stop stop-color="white" stop-opacity="0.25"/>
<stop offset="1" stop-color="white" stop-opacity="0"/>
</linearGradient>
</defs>
</svg>
