<svg width="24" height="24" viewBox="0 0 24 24" fill="none" xmlns="http://www.w3.org/2000/svg">
<path d="M18.9422 5.1135L4.60403 10.7367C3.8187 10.9704 3.8425 11.7702 4.42554 11.9671L8.01902 13.1237L9.39929 17.4795C9.56587 17.9594 9.70866 18.1317 9.99423 18.144C10.2917 18.144 10.4107 18.0332 10.7201 17.7502C11.0889 17.3934 11.6363 16.8397 12.5168 15.9538L16.2531 18.8084C16.9432 19.2022 17.443 18.993 17.6095 18.144L19.9417 6.15938C20.1916 5.1135 19.5967 4.80589 18.9422 5.1135ZM8.57826 12.853L16.7409 7.54979C17.1455 7.26679 17.2645 7.58671 17.086 7.79588L10.3155 14.1081L9.97044 17.258L8.57826 12.853Z" fill="#22282F"/>
</svg>
