<svg width="36" height="36" viewBox="0 0 36 36" fill="none" xmlns="http://www.w3.org/2000/svg">
<g clip-path="url(#clip0_558_2893)">
<path d="M18 36C27.9412 36 36 27.9412 36 18C36 8.0589 27.9412 0 18 0C8.0589 0 0 8.0589 0 18C0 27.9412 8.0589 36 18 36Z" fill="#40C351"/>
<path d="M15.1464 12.2196C15.3855 12.2247 15.5432 12.4372 15.6348 12.6245C15.94 13.2825 16.1842 13.9606 16.4742 14.6236C16.5353 14.7603 16.576 14.9121 16.5251 15.0589C16.3724 15.4891 16.0163 15.7978 15.7315 16.142C15.6297 16.2585 15.6399 16.4254 15.7213 16.5469C16.5035 18.0586 17.8435 19.2104 19.4605 19.7608C19.6132 19.8266 19.7963 19.8114 19.9031 19.6798C20.2082 19.3411 20.4968 18.9881 20.768 18.622C21.002 18.3183 21.2055 18.4044 21.5108 18.5309L23.4643 19.4673C23.617 19.533 23.7696 19.6444 23.7543 19.8216C23.8561 21.1375 22.6707 22.1598 21.4294 22.2003C18.2243 21.9675 16.0367 20.1961 14.4596 18.1513C13.9407 17.4327 13.3912 16.7089 13.1063 15.8535C12.8367 15.1045 12.8266 14.2491 13.147 13.5102C13.6405 12.5232 14.0729 12.1437 15.1616 12.2044L15.1464 12.2196ZM12.1448 8.44389C14.4952 6.77373 17.5375 6.13599 20.3864 6.70287C22.2314 7.06605 23.9465 7.90959 25.3568 9.14739C27.3529 10.8882 28.626 13.3059 28.9282 15.9295C29.1306 17.6616 28.9035 19.4166 28.2668 21.0413C27.5139 22.9645 26.181 24.655 24.492 25.8495C22.8645 27.0048 20.9425 27.6801 18.9467 27.798C16.9492 27.9202 14.9572 27.4818 13.1979 26.5327L7.5 28.0005L9.00078 22.5343C9.03132 22.4686 8.98554 22.4129 8.9499 22.3623C7.824 20.3628 7.3779 18.0549 7.67808 15.7827C7.8762 14.3216 8.37348 12.9165 9.13914 11.6542C9.9048 10.392 10.9226 9.29931 12.1295 8.44389H12.1448ZM14.658 9.08163C12.9537 9.84081 11.5038 11.1466 10.5779 12.7611C9.84528 14.0265 9.4383 15.4689 9.40776 16.9265C9.35688 18.7081 9.86568 20.4947 10.8475 21.9877C10.8984 22.0788 10.99 22.175 10.9493 22.2914L10.0844 25.4496C11.168 25.1763 12.2516 24.8827 13.3403 24.6094C13.4777 24.5589 13.5947 24.6702 13.7066 24.7309C15.583 25.8573 17.8111 26.2555 19.9642 25.8495C21.2229 25.6105 22.414 25.1009 23.4542 24.3564C25.0796 23.195 26.2671 21.5254 26.8271 19.614C27.331 17.8709 27.2848 16.0159 26.6948 14.2998C26.1731 12.7923 25.2521 11.4529 24.029 10.4229C22.7422 9.33501 21.1693 8.63607 19.4962 8.40849C17.8682 8.19087 16.169 8.42367 14.6631 9.10185L14.658 9.08163Z" fill="#FCFCFC"/>
</g>
<defs>
<clipPath id="clip0_558_2893">
<rect width="36" height="36" fill="white"/>
</clipPath>
</defs>
</svg>
