<svg width="36" height="36" viewBox="0 0 36 36" fill="none" xmlns="http://www.w3.org/2000/svg">
<g clip-path="url(#clip0_558_2894)">
<path d="M18 36C27.9412 36 36 27.9412 36 18C36 8.0589 27.9412 0 18 0C8.0589 0 0 8.0589 0 18C0 27.9412 8.0589 36 18 36Z" fill="#6F3FAA"/>
<path d="M27.5477 13.4254L27.5406 13.4045C27.061 11.467 24.8816 9.39654 22.8857 8.96286L22.8646 8.9559C19.6345 8.34738 16.3549 8.34738 13.1317 8.9559L13.1105 8.96286C11.1146 9.39654 8.94234 11.467 8.45568 13.4045L8.44866 13.4254C7.84914 16.1254 7.84914 18.8671 8.44866 21.5671L8.45568 21.588C8.92116 23.4416 10.9312 25.4211 12.8566 25.9666V28.1279C12.8566 28.9114 13.8158 29.2961 14.3659 28.7296L16.5735 26.4563C17.053 26.4842 17.5327 26.4982 18.0122 26.4982C19.6414 26.4982 21.2636 26.3443 22.8787 26.0436L22.8999 26.0366C24.8959 25.6029 27.0751 23.5325 27.5546 21.5951L27.5618 21.574C28.1471 18.8671 28.1471 16.1254 27.5477 13.4254ZM25.8056 21.1753C25.4812 22.4344 23.8309 24.0082 22.519 24.2949C20.7982 24.6166 19.0702 24.7565 17.3423 24.7076C17.307 24.7076 17.2717 24.7216 17.2505 24.7426C17.0037 24.9943 15.6425 26.3793 15.6425 26.3793L13.9286 28.121C13.8018 28.2538 13.583 28.1629 13.583 27.9811V24.4069C13.583 24.3509 13.5408 24.2949 13.4843 24.288C12.1725 24.0011 10.5221 22.4275 10.1977 21.1684C9.66174 18.7272 9.66174 16.2512 10.1977 13.8101C10.5221 12.551 12.1725 10.9773 13.4843 10.6906C16.4818 10.124 19.5286 10.124 22.526 10.6906C23.8379 10.9773 25.4882 12.551 25.8127 13.8101C26.3416 16.2582 26.3416 18.7343 25.8056 21.1753Z" fill="white"/>
<path d="M20.8471 22.943C20.6432 22.8867 21.023 22.8936 20.8471 22.943V22.943Z" fill="white"/>
<path d="M20.8477 22.9434C20.6438 22.88 20.455 22.8379 20.2792 22.7676C18.4371 22.0012 16.7355 21.0168 15.3926 19.505C14.6262 18.6473 14.0284 17.6699 13.5223 16.6434C13.2832 16.1582 13.0792 15.652 12.8754 15.1457C12.6855 14.6887 12.9668 14.2105 13.255 13.866C13.5292 13.5426 13.8808 13.2965 14.2605 13.1066C14.5558 12.966 14.8512 13.0434 15.0691 13.2965C15.5402 13.8449 15.9691 14.4144 16.3207 15.0473C16.5386 15.4339 16.4754 15.9121 16.0886 16.1723C15.9973 16.2355 15.9058 16.3129 15.8215 16.3832C15.7441 16.4465 15.6738 16.5097 15.6176 16.5941C15.5191 16.7489 15.5191 16.9387 15.5754 17.1074C16.0534 18.4292 16.8621 19.4558 18.191 20.0042C18.402 20.0957 18.6199 20.1941 18.8589 20.166C19.2668 20.1168 19.4004 19.6668 19.6886 19.4347C19.9699 19.2028 20.3284 19.2028 20.6308 19.3926C20.9331 19.5824 21.2284 19.7863 21.5168 19.9973C21.805 20.2012 22.0863 20.3981 22.3534 20.63C22.6066 20.855 22.6981 21.1434 22.5504 21.4528C22.2902 22.0082 21.9105 22.4723 21.3621 22.7676C21.2074 22.866 21.0235 22.8941 20.8477 22.9434C21.0236 22.8941 20.6438 22.8871 20.8477 22.9434Z" fill="white"/>
<path d="M18.0073 12.4736C20.419 12.544 22.4019 14.1401 22.8237 16.5307C22.894 16.9385 22.9222 17.3533 22.9573 17.7682C22.9714 17.944 22.8729 18.1057 22.6831 18.1057C22.4863 18.1057 22.4019 17.944 22.3878 17.7752C22.3597 17.4307 22.3456 17.0862 22.2964 16.7486C22.0432 14.9486 20.616 13.4651 18.8229 13.1486C18.5558 13.0994 18.2816 13.0854 18.0073 13.0573C17.8316 13.0362 17.6066 13.0291 17.5714 12.8112C17.5363 12.6283 17.691 12.4878 17.8597 12.4807C17.9089 12.4736 17.9581 12.4736 18.0073 12.4736C20.419 12.544 17.9581 12.4736 18.0073 12.4736Z" fill="white"/>
<path d="M21.6704 17.2267C21.6633 17.2548 21.6633 17.3251 21.6493 17.3954C21.586 17.6344 21.2204 17.6696 21.136 17.4235C21.1079 17.3532 21.1079 17.2688 21.1079 17.1915C21.1079 16.6782 20.9954 16.172 20.7352 15.729C20.468 15.272 20.0673 14.8852 19.5891 14.6532C19.3009 14.5126 18.9915 14.4282 18.6751 14.372C18.5344 14.3509 18.4009 14.3368 18.2602 14.3157C18.0915 14.2946 18.0001 14.1891 18.0141 14.0204C18.0212 13.8657 18.1336 13.7532 18.3025 13.7673C18.8578 13.7954 19.3923 13.9149 19.8844 14.1822C20.8828 14.7094 21.4594 15.5462 21.6212 16.6641C21.6281 16.7133 21.6423 16.7626 21.6423 16.8188C21.6563 16.9383 21.6633 17.0649 21.6704 17.2267C21.6704 17.2548 21.6633 17.0649 21.6704 17.2267Z" fill="white"/>
<path d="M20.1738 17.1704C19.9699 17.1774 19.8644 17.0649 19.8434 16.875C19.8293 16.7484 19.8152 16.6149 19.7872 16.4883C19.7238 16.2423 19.5973 16.0102 19.3864 15.8626C19.288 15.7923 19.1754 15.736 19.063 15.7079C18.9152 15.6657 18.7606 15.6797 18.613 15.6376C18.4512 15.5954 18.3668 15.4688 18.388 15.3212C18.4091 15.1876 18.5426 15.075 18.6902 15.0891C19.6254 15.1594 20.2934 15.6376 20.3918 16.7415C20.3988 16.8188 20.4059 16.9032 20.3918 16.9734C20.3567 17.1 20.2652 17.1633 20.1738 17.1704C20.2652 17.1633 19.9699 17.1704 20.1738 17.1704Z" fill="white"/>
<path d="M18.0068 12.4736C18.1474 12.4807 20.3201 12.544 18.0068 12.4736V12.4736Z" fill="white"/>
<path d="M21.6701 17.2272C21.6631 17.0654 21.6701 17.2553 21.6701 17.2272V17.2272Z" fill="white"/>
</g>
<defs>
<clipPath id="clip0_558_2894">
<rect width="36" height="36" fill="white"/>
</clipPath>
</defs>
</svg>
