<svg width="24" height="24" viewBox="0 0 24 24" fill="none" xmlns="http://www.w3.org/2000/svg">
<path fill-rule="evenodd" clip-rule="evenodd" d="M16.4487 8.11865C16.4487 10.3978 14.4514 12.2489 11.9921 12.2489C9.54534 12.2489 7.54797 10.3978 7.54797 8.13022C7.54797 5.85108 9.54534 4 11.9921 4C14.4514 4 16.4487 5.85108 16.4487 8.11865ZM13.8397 8.13022C13.8397 7.18155 13.0033 6.41797 11.9921 6.41797C10.9809 6.41797 10.157 7.18155 10.1446 8.13022C10.1446 9.0789 10.9809 9.84247 11.9921 9.84247C13.0158 9.84247 13.8397 9.06733 13.8397 8.13022ZM16.3863 14.62C15.5874 15.0943 14.7135 15.4183 13.8022 15.6149L16.2864 17.9288C16.7983 18.4031 16.7983 19.1667 16.2864 19.641C15.7746 20.1154 14.9507 20.1154 14.4389 19.641L11.9921 17.3735L9.5578 19.641C9.30813 19.884 8.97107 19.9997 8.63401 19.9997C8.29696 19.9997 7.9599 19.8724 7.71023 19.641C7.19841 19.1667 7.19841 18.4031 7.71023 17.9288L10.1945 15.6265C9.29564 15.4298 8.40931 15.0943 7.61036 14.6315C6.99867 14.2729 6.81142 13.5209 7.21089 12.954C7.59788 12.3871 8.39683 12.2136 9.00852 12.5722C10.8311 13.6366 13.178 13.6366 15.0006 12.5722C15.6123 12.2136 16.4113 12.3871 16.7983 12.954C17.1852 13.5209 16.998 14.2613 16.3863 14.62Z" fill="#22282F"/>
</svg>
