<svg width="100" height="100" viewBox="0 0 100 100" fill="none" xmlns="http://www.w3.org/2000/svg">
<path d="M79.9789 18.8697L56.5759 12.5989C48.0871 10.3243 41.8127 13.9704 39.5306 22.4872L31.8015 51.3326C29.4821 59.989 33.1227 66.1721 41.6116 68.4467L65.0146 74.7175C73.6402 77.0287 79.7451 73.4569 82.0645 64.8005L89.7936 35.9552C92.0757 27.4384 88.6046 21.181 79.9789 18.8697Z" fill="url(#paint0_linear_2009_256)"/>
<g opacity="0.5" filter="url(#filter0_f_2009_256)">
<path d="M73.8632 26.7688L57.9185 22.4964C52.135 20.9467 47.8602 23.4308 46.3054 29.2334L41.0395 48.886C39.4592 54.7837 41.9396 58.9963 47.7231 60.546L63.6678 64.8184C69.5446 66.3931 73.7039 63.9595 75.2841 58.0619L80.55 38.4092C82.1048 32.6067 79.74 28.3435 73.8632 26.7688Z" fill="#6DE754"/>
</g>
<g filter="url(#filter1_b_2009_256)">
<mask id="path-3-outside-1_2009_256" maskUnits="userSpaceOnUse" x="6" y="23.4771" width="69" height="69" fill="black">
<rect fill="white" x="6" y="23.4771" width="69" height="69"/>
<path d="M54.6971 24.4771H25.8593C14.5836 24.4771 7 32.3933 7 44.1679V71.3426C7 83.084 14.5836 91.0002 25.8593 91.0002H54.6971C65.9728 91.0002 73.5232 83.084 73.5232 71.3426V44.1679C73.5232 32.3933 65.9728 24.4771 54.6971 24.4771Z"/>
</mask>
<path d="M54.6971 24.4771H25.8593C14.5836 24.4771 7 32.3933 7 44.1679V71.3426C7 83.084 14.5836 91.0002 25.8593 91.0002H54.6971C65.9728 91.0002 73.5232 83.084 73.5232 71.3426V44.1679C73.5232 32.3933 65.9728 24.4771 54.6971 24.4771Z" fill="#6DE754" fill-opacity="0.35"/>
<path d="M54.6971 25.4771C55.2494 25.4771 55.6971 25.0293 55.6971 24.4771C55.6971 23.9248 55.2494 23.4771 54.6971 23.4771V25.4771ZM54.6971 23.4771C54.1448 23.4771 53.6971 23.9248 53.6971 24.4771C53.6971 25.0293 54.1448 25.4771 54.6971 25.4771V23.4771ZM54.6971 23.4771H25.8593V25.4771H54.6971V23.4771ZM25.8593 23.4771C19.9787 23.4771 14.9928 25.5469 11.4791 29.2153C7.96897 32.88 6 38.0638 6 44.1679H8C8 38.4974 9.82285 33.8358 12.9234 30.5987C16.0205 27.3654 20.4643 25.4771 25.8593 25.4771V23.4771ZM6 44.1679V71.3426H8V44.1679H6ZM6 71.3426C6 77.4308 7.96942 82.6064 11.4795 86.2666C14.9931 89.9305 19.9787 92.0002 25.8593 92.0002V90.0002C20.4642 90.0002 16.0202 88.1119 12.923 84.8823C9.8224 81.649 8 76.9958 8 71.3426H6ZM25.8593 92.0002H54.6971V90.0002H25.8593V92.0002ZM54.6971 92.0002C60.5779 92.0002 65.5557 89.9303 69.0611 86.2657C72.5628 82.605 74.5232 77.4296 74.5232 71.3426H72.5232C72.5232 76.997 70.7083 81.6504 67.6159 84.8832C64.5273 88.112 60.092 90.0002 54.6971 90.0002V92.0002ZM74.5232 71.3426V44.1679H72.5232V71.3426H74.5232ZM74.5232 44.1679C74.5232 38.0651 72.5633 32.8813 69.0616 29.2162C65.556 25.547 60.5779 23.4771 54.6971 23.4771V25.4771C60.092 25.4771 64.527 27.3652 67.6155 30.5978C70.7079 33.8345 72.5232 38.4962 72.5232 44.1679H74.5232Z" fill="url(#paint1_linear_2009_256)" mask="url(#path-3-outside-1_2009_256)"/>
</g>
<g filter="url(#filter2_bd_2009_256)">
<mask id="path-5-inside-2_2009_256" fill="white">
<path d="M36.3128 68.5415C35.5678 68.5415 34.8227 68.2588 34.2539 67.69L26.361 59.797C25.2234 58.6595 25.2234 56.8168 26.361 55.6826C27.4985 54.545 29.3379 54.5417 30.4754 55.6792L36.3128 61.5166L50.0432 47.7863C51.1808 46.6487 53.0201 46.6487 54.1577 47.7863C55.2952 48.9238 55.2952 50.7665 54.1577 51.9041L38.3717 67.69C37.803 68.2588 37.0579 68.5415 36.3128 68.5415Z"/>
</mask>
<path d="M36.3128 68.5415C35.5678 68.5415 34.8227 68.2588 34.2539 67.69L26.361 59.797C25.2234 58.6595 25.2234 56.8168 26.361 55.6826C27.4985 54.545 29.3379 54.5417 30.4754 55.6792L36.3128 61.5166L50.0432 47.7863C51.1808 46.6487 53.0201 46.6487 54.1577 47.7863C55.2952 48.9238 55.2952 50.7665 54.1577 51.9041L38.3717 67.69C37.803 68.2588 37.0579 68.5415 36.3128 68.5415Z" fill="url(#paint2_linear_2009_256)"/>
<path d="M26.361 55.6826L26.5022 55.8242L26.5024 55.824L26.361 55.6826ZM36.3128 61.5166L36.1714 61.6581L36.3128 61.7995L36.4543 61.6581L36.3128 61.5166ZM54.1577 51.9041L54.0163 51.7626L54.1577 51.9041ZM38.3717 67.69L38.5132 67.8314L38.3717 67.69ZM36.3128 68.3415C35.6184 68.3415 34.925 68.0782 34.3954 67.5486L34.1125 67.8314C34.7205 68.4394 35.5172 68.7415 36.3128 68.7415V68.3415ZM34.3954 67.5486L26.5024 59.6556L26.2196 59.9384L34.1125 67.8314L34.3954 67.5486ZM26.5024 59.6556C25.4428 58.596 25.4431 56.8801 26.5022 55.8242L26.2198 55.5409C25.0037 56.7534 25.004 58.7229 26.2196 59.9384L26.5024 59.6556ZM26.5024 55.824C27.5621 54.7642 29.2749 54.7615 30.334 55.8207L30.6169 55.5378C29.4009 54.3219 27.4349 54.3258 26.2196 55.5411L26.5024 55.824ZM30.334 55.8207L36.1714 61.6581L36.4543 61.3752L30.6169 55.5378L30.334 55.8207ZM36.4543 61.6581L50.1846 47.9277L49.9018 47.6448L36.1714 61.3752L36.4543 61.6581ZM50.1846 47.9277C51.2441 46.8682 52.9568 46.8682 54.0163 47.9277L54.2991 47.6448C53.0835 46.4292 51.1175 46.4292 49.9018 47.6448L50.1846 47.9277ZM54.0163 47.9277C55.0757 48.9871 55.0757 50.7032 54.0163 51.7626L54.2991 52.0455C55.5148 50.8298 55.5148 48.8605 54.2991 47.6448L54.0163 47.9277ZM54.0163 51.7626L38.2303 67.5486L38.5132 67.8314L54.2991 52.0455L54.0163 51.7626ZM38.2303 67.5486C37.7007 68.0782 37.0073 68.3415 36.3128 68.3415V68.7415C37.1085 68.7415 37.9052 68.4394 38.5132 67.8314L38.2303 67.5486Z" fill="url(#paint3_linear_2009_256)" fill-opacity="0.5" mask="url(#path-5-inside-2_2009_256)"/>
</g>
<defs>
<filter id="filter0_f_2009_256" x="26.5723" y="8.04468" width="68.4434" height="71.2419" filterUnits="userSpaceOnUse" color-interpolation-filters="sRGB">
<feFlood flood-opacity="0" result="BackgroundImageFix"/>
<feBlend mode="normal" in="SourceGraphic" in2="BackgroundImageFix" result="shape"/>
<feGaussianBlur stdDeviation="7" result="effect1_foregroundBlur_2009_256"/>
</filter>
<filter id="filter1_b_2009_256" x="-18" y="-0.522949" width="116.523" height="116.523" filterUnits="userSpaceOnUse" color-interpolation-filters="sRGB">
<feFlood flood-opacity="0" result="BackgroundImageFix"/>
<feGaussianBlur in="BackgroundImageFix" stdDeviation="12"/>
<feComposite in2="SourceAlpha" operator="in" result="effect1_backgroundBlur_2009_256"/>
<feBlend mode="normal" in="SourceGraphic" in2="effect1_backgroundBlur_2009_256" result="shape"/>
</filter>
<filter id="filter2_bd_2009_256" x="10.5078" y="31.9331" width="59.5039" height="51.6084" filterUnits="userSpaceOnUse" color-interpolation-filters="sRGB">
<feFlood flood-opacity="0" result="BackgroundImageFix"/>
<feGaussianBlur in="BackgroundImageFix" stdDeviation="7.5"/>
<feComposite in2="SourceAlpha" operator="in" result="effect1_backgroundBlur_2009_256"/>
<feColorMatrix in="SourceAlpha" type="matrix" values="0 0 0 0 0 0 0 0 0 0 0 0 0 0 0 0 0 0 127 0" result="hardAlpha"/>
<feOffset dx="5" dy="5"/>
<feGaussianBlur stdDeviation="5"/>
<feColorMatrix type="matrix" values="0 0 0 0 0.427451 0 0 0 0 0.905882 0 0 0 0 0.329412 0 0 0 0.5 0"/>
<feBlend mode="normal" in2="effect1_backgroundBlur_2009_256" result="effect2_dropShadow_2009_256"/>
<feBlend mode="normal" in="SourceGraphic" in2="effect2_dropShadow_2009_256" result="shape"/>
</filter>
<linearGradient id="paint0_linear_2009_256" x1="43.1445" y1="9" x2="66.001" y2="82.2007" gradientUnits="userSpaceOnUse">
<stop stop-color="#6DE754"/>
<stop offset="1" stop-color="#129465"/>
</linearGradient>
<linearGradient id="paint1_linear_2009_256" x1="17.5894" y1="32.2271" x2="60.0241" y2="84.7835" gradientUnits="userSpaceOnUse">
<stop stop-color="#1E242A" stop-opacity="0.7"/>
<stop offset="1" stop-color="#1F242B" stop-opacity="0"/>
</linearGradient>
<linearGradient id="paint2_linear_2009_256" x1="52.9191" y1="50.8351" x2="20.0857" y2="52.2968" gradientUnits="userSpaceOnUse">
<stop stop-color="white"/>
<stop offset="1" stop-color="white" stop-opacity="0.2"/>
</linearGradient>
<linearGradient id="paint3_linear_2009_256" x1="28.6859" y1="54.1817" x2="53.7374" y2="54.3705" gradientUnits="userSpaceOnUse">
<stop stop-color="white"/>
<stop offset="1" stop-color="white" stop-opacity="0"/>
</linearGradient>
</defs>
</svg>
