<svg width="56" height="64" viewBox="0 0 56 64" fill="none" xmlns="http://www.w3.org/2000/svg">
<path d="M32.8616 55.5794C46.0082 53.2779 56 41.8058 56 28C56 12.536 43.464 0 28 0C12.536 0 0 12.536 0 28C0 41.8058 9.99177 53.2779 23.1384 55.5794L28 64L32.8616 55.5794Z" fill="#6DE754"/>
<rect width="36" height="36" transform="translate(10 10)" fill="#6DE754"/>
<path fill-rule="evenodd" clip-rule="evenodd" d="M26.0926 12.4032C26.7179 12.3275 27.3543 12.2886 28 12.2886C28.6457 12.2886 29.2821 12.3275 29.9074 12.4032C30.0362 12.318 30.1812 12.2104 30.2212 12.1344C30.2915 12.0008 30.3701 11.826 30.4527 11.6426C30.5384 11.4521 30.6283 11.2523 30.7175 11.0794C30.9875 10.5559 31.4636 10 31.4636 10C31.4636 10 32.3137 10.1364 32.8506 10.2803C33.3875 10.4241 34.1919 10.731 34.1919 10.731C34.1919 10.731 34.3262 11.4505 34.2984 12.0389C34.2891 12.2332 34.2671 12.4512 34.2461 12.659C34.2259 12.8592 34.2066 13.0499 34.2006 13.2007C34.197 13.2944 34.2829 13.4833 34.357 13.6278C35.3787 14.0803 36.343 14.6386 37.2363 15.2888C37.4006 15.2813 37.6185 15.2616 37.7005 15.2098C37.8281 15.1293 37.9836 15.0173 38.1468 14.8997L38.1498 14.8976C38.3183 14.7761 38.495 14.6489 38.6578 14.5444C39.1533 14.226 39.8436 13.9826 39.8436 13.9826C39.8436 13.9826 40.5117 14.5258 40.9046 14.9188C41.2977 15.3119 41.8409 15.9799 41.8409 15.9799C41.8409 15.9799 41.5974 16.6701 41.2791 17.1657C41.174 17.3294 41.046 17.5072 40.9238 17.6766L40.9206 17.681C40.8043 17.8426 40.6934 17.9965 40.6137 18.123C40.5677 18.1958 40.547 18.3755 40.5377 18.5299C41.2625 19.488 41.88 20.5317 42.3723 21.6433C42.5168 21.7173 42.7056 21.8031 42.7993 21.7994C42.95 21.7935 43.1407 21.7742 43.3408 21.754C43.5486 21.733 43.7667 21.7109 43.961 21.7017C44.5493 21.6738 45.2688 21.8081 45.2688 21.8081C45.2688 21.8081 45.5758 22.6125 45.7197 23.1494C45.8636 23.6863 46 24.5364 46 24.5364C46 24.5364 45.4441 25.0125 44.9206 25.2825C44.7478 25.3717 44.5479 25.4616 44.3574 25.5473C44.174 25.6299 43.9992 25.7086 43.8657 25.7789C43.7897 25.8189 43.6821 25.9638 43.5968 26.0927C43.6725 26.7179 43.7114 27.3544 43.7114 28C43.7114 28.6456 43.6725 29.2821 43.5968 29.9073C43.6821 30.0362 43.7897 30.1812 43.8657 30.2211C43.9992 30.2914 44.174 30.3701 44.3574 30.4527C44.5479 30.5384 44.7478 30.6283 44.9206 30.7175C45.4441 30.9875 46 31.4636 46 31.4636C46 31.4636 45.8636 32.3137 45.7197 32.8506C45.5758 33.3875 45.2688 34.1919 45.2688 34.1919C45.2688 34.1919 44.5493 34.3262 43.961 34.2983C43.7667 34.2891 43.5486 34.267 43.3408 34.246C43.1407 34.2258 42.95 34.2065 42.7993 34.2006C42.7056 34.1969 42.5168 34.2827 42.3723 34.3567C41.88 35.4683 41.2625 36.512 40.5377 37.4701C40.547 37.6245 40.5677 37.8042 40.6137 37.877C40.6925 38.002 40.8017 38.1537 40.9165 38.3133L40.9206 38.319L40.9238 38.3234C41.046 38.4928 41.174 38.6706 41.2791 38.8343C41.5974 39.3299 41.8409 40.0201 41.8409 40.0201C41.8409 40.0201 41.2977 40.6881 40.9046 41.0812C40.5117 41.4742 39.8436 42.0174 39.8436 42.0174C39.8436 42.0174 39.1533 41.774 38.6578 41.4556C38.4941 41.3505 38.3163 41.2224 38.1468 41.1003C37.9836 40.9827 37.8281 40.8707 37.7005 40.7902C37.6185 40.7384 37.4006 40.7187 37.2363 40.7112C36.343 41.3614 35.3787 41.9197 34.357 42.3722C34.2829 42.5167 34.197 42.7056 34.2006 42.7994C34.2066 42.9501 34.2259 43.1408 34.2461 43.341C34.2671 43.5488 34.2891 43.7668 34.2984 43.9611C34.3262 44.5495 34.1919 45.269 34.1919 45.269C34.1919 45.269 33.3875 45.5759 32.8506 45.7197C32.3137 45.8636 31.4636 46 31.4636 46C31.4636 46 30.9875 45.4441 30.7175 44.9206C30.6283 44.7477 30.5384 44.5479 30.4527 44.3574C30.3701 44.174 30.2915 43.9992 30.2212 43.8656C30.1812 43.7896 30.0362 43.682 29.9074 43.5968C29.2821 43.6725 28.6457 43.7114 28 43.7114C27.3543 43.7114 26.7179 43.6725 26.0926 43.5968C25.9638 43.682 25.8188 43.7896 25.7788 43.8656C25.7085 43.9992 25.6299 44.174 25.5473 44.3574C25.4616 44.5479 25.3717 44.7477 25.2825 44.9206C25.0125 45.4441 24.5364 46 24.5364 46C24.5364 46 23.6863 45.8636 23.1494 45.7197C22.6125 45.5759 21.8081 45.269 21.8081 45.269C21.8081 45.269 21.6738 44.5495 21.7016 43.9611C21.7109 43.7668 21.7329 43.5488 21.7539 43.341C21.7741 43.1408 21.7934 42.9501 21.7994 42.7994C21.803 42.7056 21.7171 42.5167 21.643 42.3722C20.6213 41.9197 19.657 41.3614 18.7637 40.7112C18.5994 40.7187 18.3815 40.7384 18.2996 40.7902C18.1719 40.8707 18.0164 40.9827 17.8532 41.1003L17.8502 41.1024C17.6817 41.2239 17.505 41.3511 17.3422 41.4556C16.8467 41.774 16.1564 42.0174 16.1564 42.0174C16.1564 42.0174 15.4883 41.4742 15.0954 41.0812C14.7023 40.6881 14.1591 40.0201 14.1591 40.0201C14.1591 40.0201 14.4026 39.3299 14.7209 38.8343C14.826 38.6706 14.9541 38.4928 15.0762 38.3234C15.1937 38.1602 15.3058 38.0046 15.3863 37.877C15.4323 37.8042 15.453 37.6245 15.4623 37.4701C14.7375 36.512 14.12 35.4683 13.6277 34.3567C13.4832 34.2827 13.2944 34.1969 13.2007 34.2006C13.05 34.2065 12.8593 34.2258 12.6592 34.246C12.4514 34.267 12.2333 34.2891 12.039 34.2983C11.4507 34.3262 10.7312 34.1919 10.7312 34.1919C10.7312 34.1919 10.4242 33.3875 10.2803 32.8506C10.1364 32.3137 10 31.4636 10 31.4636C10 31.4636 10.5559 30.9875 11.0794 30.7175C11.2523 30.6283 11.4521 30.5384 11.6426 30.4527L11.6442 30.4519C11.8271 30.3696 12.0012 30.2912 12.1343 30.2211C12.2103 30.1812 12.3179 30.0362 12.4032 29.9073C12.3275 29.2821 12.2886 28.6456 12.2886 28C12.2886 27.3544 12.3275 26.7179 12.4032 26.0927C12.3179 25.9638 12.2103 25.8189 12.1343 25.7789C12.0544 25.7368 11.9597 25.6918 11.8573 25.6447C11.7885 25.613 11.7162 25.5805 11.6426 25.5473C11.5925 25.5248 11.5418 25.502 11.4911 25.479C11.4459 25.4584 11.4007 25.4378 11.356 25.417C11.26 25.3724 11.1663 25.3274 11.0794 25.2825C10.5559 25.0125 10 24.5364 10 24.5364C10 24.5364 10.1364 23.6863 10.2803 23.1494C10.4242 22.6125 10.7312 21.8081 10.7312 21.8081C10.7312 21.8081 11.4507 21.6738 12.039 21.7017C12.2333 21.7109 12.4514 21.733 12.6592 21.754C12.7673 21.7649 12.8726 21.7755 12.9703 21.784C13.0535 21.7911 13.1314 21.7967 13.2007 21.7994C13.2944 21.8031 13.4832 21.7173 13.6277 21.6433C14.12 20.5317 14.7375 19.488 15.4623 18.5299C15.453 18.3755 15.4323 18.1958 15.3863 18.123C15.3066 17.9965 15.1957 17.8426 15.0794 17.681L15.0762 17.6766C14.9541 17.5072 14.826 17.3294 14.7209 17.1657C14.4026 16.6701 14.1591 15.9799 14.1591 15.9799C14.1591 15.9799 14.7023 15.3119 15.0954 14.9188C15.4883 14.5258 16.1564 13.9826 16.1564 13.9826C16.1564 13.9826 16.8467 14.226 17.3422 14.5444C17.5059 14.6495 17.6837 14.7776 17.8532 14.8997C18.0164 15.0173 18.1719 15.1293 18.2996 15.2098C18.3815 15.2616 18.5994 15.2813 18.7637 15.2888C19.657 14.6386 20.6213 14.0803 21.643 13.6278C21.7171 13.4833 21.803 13.2944 21.7994 13.2007C21.7934 13.0499 21.7741 12.8592 21.7539 12.659C21.7329 12.4512 21.7109 12.2332 21.7016 12.0389C21.6738 11.4505 21.8081 10.731 21.8081 10.731C21.8081 10.731 22.6125 10.4241 23.1494 10.2803C23.6863 10.1364 24.5364 10 24.5364 10C24.5364 10 25.0125 10.5559 25.2825 11.0794C25.3717 11.2523 25.4616 11.4521 25.5473 11.6426C25.6073 11.7759 25.6652 11.9046 25.7194 12.0162L25.7469 12.0721C25.7577 12.0937 25.7683 12.1145 25.7788 12.1344C25.8188 12.2104 25.9638 12.318 26.0926 12.4032ZM14.9365 28C14.9365 35.2147 20.7852 41.0634 28 41.0634C35.2148 41.0634 41.0635 35.2147 41.0635 28C41.0635 20.7853 35.2148 14.9366 28 14.9366C20.7852 14.9366 14.9365 20.7853 14.9365 28Z" fill="#22282F"/>
<mask id="mask0_479_1366" style="mask-type:alpha" maskUnits="userSpaceOnUse" x="17" y="17" width="22" height="22">
<path fill-rule="evenodd" clip-rule="evenodd" d="M27.7345 23.2991H37C35.2976 20.0808 31.9109 17.875 28.017 17.875C22.4208 17.875 17.875 22.4132 17.875 28C17.875 33.5868 22.4208 38.125 28.017 38.125C31.9109 38.125 35.2976 35.9192 37 32.7009H27.7345L25.1085 28L27.7345 23.2991ZM28.017 37.0402V36.9498C23.435 36.4978 19.8672 32.6828 19.8672 28C19.8672 23.3172 23.435 19.5022 28.017 19.0502V18.9598C23.1815 19.1587 19.3239 23.1183 19.3239 28C19.3239 32.8817 23.1815 36.8413 28.017 37.0402Z" fill="#EDEFF1"/>
<path d="M30.504 24.625H38.125V26.2H31.7016C30.0685 26.2 30.0685 27.8875 30.0685 27.8875V28.1125C30.0685 28.1125 30.0685 29.8 31.7016 29.8H38.125V31.375H30.6129C30.6129 31.375 28 31.15 28 28C28 24.85 30.504 24.625 30.504 24.625Z" fill="#EDEFF1"/>
</mask>
<g mask="url(#mask0_479_1366)">
<circle cx="28" cy="28" r="10.125" fill="#22282F"/>
</g>
</svg>
