<svg width="134" height="134" viewBox="0 0 134 134" fill="none" xmlns="http://www.w3.org/2000/svg">
<circle cx="67" cy="67" r="66.5" stroke="white"/>
<path d="M26.0699 66.5269L31.965 60.6318L31 59.6667L23.4575 67.2092L31 74.7517L31.965 73.7867L26.07 67.8916L37.8601 67.8916L37.8601 66.5268L26.0699 66.5269Z" fill="white"/>
<path d="M46.43 72V63.936H43.28V62.2H51.666V63.936H48.516V72H46.43ZM51.2266 72L53.1446 69.214C52.5753 69.0273 52.16 68.7473 51.8986 68.374C51.6373 68.0007 51.5066 67.562 51.5066 67.058C51.5066 66.5727 51.6186 66.1433 51.8426 65.77C52.0666 65.3967 52.4073 65.1073 52.8646 64.902C53.322 64.6873 53.896 64.58 54.5866 64.58H58.0866V72H56.2386V69.438H54.9086L53.2986 72H51.2266ZM53.3546 67.058C53.3546 67.3753 53.4573 67.6087 53.6626 67.758C53.8773 67.9073 54.162 67.982 54.5166 67.982H56.2386V66.12H54.5166C54.162 66.12 53.8773 66.1993 53.6626 66.358C53.4573 66.5073 53.3546 66.7407 53.3546 67.058ZM59.7817 72V64.58H61.6157V67.45H64.7797V64.58H66.6137V72H64.7797V68.99H61.6157V72H59.7817ZM68.3267 72V64.58H70.1607V69.34L73.4647 64.58H75.1587V72H73.3247V67.24L70.0207 72H68.3267ZM78.6636 72V66.12H76.2976V64.58H82.8636V66.12H80.5116V72H78.6636ZM87.2039 72.168C86.5319 72.168 85.9112 72.0327 85.3419 71.762C84.7819 71.482 84.3339 71.062 83.9979 70.502C83.6619 69.9327 83.4939 69.2187 83.4939 68.36V68.08C83.4939 67.2587 83.6526 66.5773 83.9699 66.036C84.2966 65.4947 84.7306 65.0887 85.2719 64.818C85.8132 64.5473 86.4106 64.412 87.0639 64.412C88.2306 64.412 89.1172 64.72 89.7239 65.336C90.3306 65.952 90.6339 66.8433 90.6339 68.01V68.794H85.3839C85.4026 69.2327 85.4959 69.592 85.6639 69.872C85.8412 70.1427 86.0652 70.3433 86.3359 70.474C86.6066 70.5953 86.8959 70.656 87.2039 70.656C87.6799 70.656 88.0392 70.586 88.2819 70.446C88.5246 70.306 88.6972 70.1007 88.7999 69.83H90.4939C90.3446 70.6047 89.9759 71.188 89.3879 71.58C88.7999 71.972 88.0719 72.168 87.2039 72.168ZM87.1339 65.924C86.8446 65.924 86.5646 65.9707 86.2939 66.064C86.0232 66.1573 85.8086 66.3253 85.6499 66.568C85.4912 66.8013 85.4026 67.114 85.3839 67.506H88.8419C88.8326 67.086 88.7486 66.764 88.5899 66.54C88.4406 66.3067 88.2399 66.148 87.9879 66.064C87.7359 65.9707 87.4512 65.924 87.1339 65.924Z" fill="white"/>
<path d="M108.93 66.5269L103.035 60.6318L104 59.6667L111.542 67.2092L104 74.7517L103.035 73.7867L108.93 67.8916L97.1399 67.8916L97.1399 66.5268L108.93 66.5269Z" fill="white"/>
</svg>
