<svg width="120" height="120" viewBox="0 0 120 120" fill="none" xmlns="http://www.w3.org/2000/svg">
<mask id="path-1-inside-1_2015_1399" fill="white">
<path fill-rule="evenodd" clip-rule="evenodd" d="M53.6421 8.01066C55.7262 7.75845 57.8478 7.62865 60 7.62865C62.1522 7.62865 64.2738 7.75845 66.3579 8.01066C66.7875 7.72664 67.2707 7.36788 67.404 7.11452C67.6383 6.66931 67.9005 6.08681 68.1756 5.47527C68.4612 4.84045 68.761 4.17433 69.0583 3.59801C69.9584 1.85303 71.5453 0 71.5453 0C71.5453 0 74.3792 0.454675 76.1686 0.93422C77.9582 1.41373 80.6398 2.4368 80.6398 2.4368C80.6398 2.4368 81.0874 4.83507 80.9947 6.7963C80.9638 7.44405 80.8905 8.1708 80.8204 8.86342C80.7529 9.53059 80.6887 10.1662 80.6688 10.6688C80.6566 10.9812 80.9429 11.6111 81.19 12.0926C84.5956 13.6011 87.8101 15.4621 90.7877 17.6293C91.3352 17.6043 92.0617 17.5385 92.3348 17.3661C92.7603 17.0977 93.2787 16.7243 93.8226 16.3323L93.8325 16.3253C94.3943 15.9204 94.9833 15.4963 95.5259 15.1479C97.1777 14.0867 99.4787 13.2754 99.4787 13.2754C99.4787 13.2754 101.706 15.0861 103.015 16.3961C104.326 17.7062 106.136 19.9329 106.136 19.9329C106.136 19.9329 105.325 22.2338 104.264 23.8858C103.913 24.4314 103.486 25.024 103.079 25.5887L103.069 25.6034C102.681 26.1421 102.311 26.6551 102.046 27.0767C101.892 27.3192 101.823 27.9185 101.792 28.4331C104.208 31.6267 106.267 35.1058 107.908 38.8109C108.389 39.0578 109.019 39.3437 109.331 39.3314C109.833 39.3116 110.469 39.2474 111.136 39.1799C111.829 39.1099 112.556 39.0364 113.203 39.0056C115.164 38.9126 117.563 39.3604 117.563 39.3604C117.563 39.3604 118.586 42.0417 119.066 43.8313C119.545 45.6208 120 48.4545 120 48.4545C120 48.4545 118.147 50.0416 116.402 50.9417C115.826 51.239 115.16 51.5388 114.525 51.8245C113.913 52.0997 113.331 52.3619 112.886 52.5962C112.632 52.7295 112.274 53.2128 111.989 53.6424C112.242 55.7264 112.371 57.848 112.371 60C112.371 62.152 112.242 64.2736 111.989 66.3576C112.274 66.7872 112.632 67.2705 112.886 67.4038C113.331 67.6381 113.913 67.9003 114.525 68.1755C115.16 68.4612 115.826 68.761 116.402 69.0583C118.147 69.9584 120 71.5455 120 71.5455C120 71.5455 119.545 74.3792 119.066 76.1687C118.586 77.9583 117.563 80.6396 117.563 80.6396C117.563 80.6396 115.164 81.0874 113.203 80.9944C112.556 80.9636 111.829 80.8901 111.136 80.8201C110.469 80.7526 109.833 80.6884 109.331 80.6686C109.019 80.6563 108.389 80.9422 107.908 81.1891C106.267 84.8942 104.208 88.3733 101.792 91.5669C101.823 92.0815 101.892 92.6808 102.046 92.9233C102.308 93.3399 102.672 93.8458 103.055 94.3776L103.069 94.3966L103.079 94.4113C103.486 94.976 103.913 95.5686 104.264 96.1142C105.325 97.7662 106.136 100.067 106.136 100.067C106.136 100.067 104.326 102.294 103.015 103.604C101.706 104.914 99.4787 106.725 99.4787 106.725C99.4787 106.725 97.1777 105.913 95.5259 104.852C94.9802 104.502 94.3876 104.075 93.8226 103.668C93.2787 103.276 92.7603 102.902 92.3348 102.634C92.0617 102.461 91.3352 102.396 90.7877 102.371C87.8101 104.538 84.5956 106.399 81.19 107.907C80.9429 108.389 80.6566 109.019 80.6688 109.331C80.6887 109.834 80.7529 110.469 80.8204 111.137C80.8905 111.829 80.9638 112.556 80.9947 113.204C81.0874 115.165 80.6398 117.563 80.6398 117.563C80.6398 117.563 77.9582 118.586 76.1686 119.066C74.3792 119.545 71.5453 120 71.5453 120C71.5453 120 69.9584 118.147 69.0583 116.402C68.761 115.826 68.4612 115.16 68.1756 114.525C67.9005 113.913 67.6383 113.331 67.404 112.885C67.2707 112.632 66.7875 112.273 66.3579 111.989C64.2738 112.242 62.1522 112.371 60 112.371C57.8478 112.371 55.7262 112.242 53.6421 111.989C53.2126 112.273 52.7293 112.632 52.596 112.885C52.3617 113.331 52.0995 113.913 51.8244 114.525C51.5388 115.16 51.239 115.826 50.9417 116.402C50.0416 118.147 48.4547 120 48.4547 120C48.4547 120 45.6208 119.545 43.8314 119.066C42.0418 118.586 39.3602 117.563 39.3602 117.563C39.3602 117.563 38.9126 115.165 39.0053 113.204C39.0362 112.556 39.1095 111.829 39.1796 111.137C39.2471 110.469 39.3113 109.834 39.3312 109.331C39.3434 109.019 39.0571 108.389 38.81 107.907C35.4044 106.399 32.1899 104.538 29.2123 102.371C28.6648 102.396 27.9383 102.461 27.6652 102.634C27.2397 102.902 26.7213 103.276 26.1774 103.668L26.1675 103.675C25.6057 104.08 25.0167 104.504 24.4741 104.852C22.8223 105.913 20.5213 106.725 20.5213 106.725C20.5213 106.725 18.2945 104.914 16.9845 103.604C15.6743 102.294 13.8638 100.067 13.8638 100.067C13.8638 100.067 14.6752 97.7662 15.7362 96.1142C16.0868 95.5686 16.5135 94.976 16.9206 94.4113C17.3124 93.8672 17.6861 93.3488 17.9544 92.9233C18.1075 92.6808 18.1765 92.0815 18.2076 91.5669C15.7915 88.3733 13.7334 84.8942 12.0922 81.1891C11.6107 80.9422 10.9815 80.6563 10.6692 80.6686C10.1665 80.6884 9.53117 80.7526 8.86396 80.8201C8.17128 80.8901 7.44446 80.9636 6.79662 80.9944C4.83551 81.0874 2.43725 80.6396 2.43725 80.6396C2.43725 80.6396 1.41389 77.9583 0.934443 76.1687C0.454738 74.3792 0 71.5455 0 71.5455C0 71.5455 1.85309 69.9584 3.59791 69.0583C4.17417 68.761 4.84035 68.4612 5.4752 68.1755L5.48055 68.1731C6.09018 67.8988 6.67052 67.6374 7.1143 67.4038C7.36778 67.2705 7.72648 66.7872 8.01053 66.3576C7.75832 64.2736 7.62865 62.152 7.62865 60C7.62865 57.848 7.75832 55.7264 8.01053 53.6424C7.72648 53.2128 7.36778 52.7295 7.1143 52.5962C6.84808 52.456 6.53244 52.3058 6.19107 52.1488C5.96179 52.0435 5.72079 51.935 5.4752 51.8245C5.30834 51.7494 5.13918 51.6733 4.97028 51.5965C4.81972 51.5281 4.66916 51.4592 4.52013 51.39C4.20015 51.2413 3.88757 51.0912 3.59791 50.9417C1.85309 50.0416 0 48.4545 0 48.4545C0 48.4545 0.454738 45.6208 0.934443 43.8313C1.41389 42.0417 2.43725 39.3604 2.43725 39.3604C2.43725 39.3604 4.83551 38.9126 6.79662 39.0056C7.44446 39.0364 8.17128 39.1099 8.86396 39.1799C9.22418 39.2163 9.57524 39.2518 9.90107 39.2799C10.1785 39.3038 10.4378 39.3223 10.6692 39.3314C10.9815 39.3437 11.6107 39.0578 12.0922 38.8109C13.7334 35.1058 15.7915 31.6267 18.2076 28.4331C18.1765 27.9185 18.1075 27.3192 17.9544 27.0767C17.6887 26.6551 17.319 26.1421 16.9313 25.6034L16.9206 25.5887C16.5135 25.024 16.0868 24.4314 15.7362 23.8858C14.6752 22.2338 13.8638 19.9329 13.8638 19.9329C13.8638 19.9329 15.6743 17.7062 16.9845 16.3961C18.2945 15.0861 20.5213 13.2754 20.5213 13.2754C20.5213 13.2754 22.8223 14.0867 24.4741 15.1479C25.0198 15.4983 25.6123 15.9253 26.1774 16.3323C26.7213 16.7243 27.2397 17.0977 27.6652 17.3661C27.9383 17.5385 28.6648 17.6043 29.2123 17.6293C32.1899 15.4621 35.4044 13.6011 38.81 12.0926C39.0571 11.6111 39.3434 10.9812 39.3312 10.6688C39.3113 10.1662 39.2471 9.53059 39.1796 8.86342C39.1095 8.1708 39.0362 7.44405 39.0053 6.7963C38.9126 4.83507 39.3602 2.4368 39.3602 2.4368C39.3602 2.4368 42.0418 1.41373 43.8314 0.93422C45.6208 0.454675 48.4547 0 48.4547 0C48.4547 0 50.0416 1.85303 50.9417 3.59801C51.239 4.17433 51.5388 4.84045 51.8244 5.47527C52.0244 5.91962 52.2175 6.34866 52.3978 6.72083L52.4896 6.9069C52.5257 6.9789 52.5611 7.04822 52.596 7.11452C52.7293 7.36788 53.2126 7.72664 53.6421 8.01066ZM16.4552 60C16.4552 84.0491 35.9508 103.545 60 103.545C84.0492 103.545 103.545 84.0491 103.545 60C103.545 35.9509 84.0492 16.4553 60 16.4553C35.9508 16.4553 16.4552 35.9509 16.4552 60Z"/>
</mask>
<path fill-rule="evenodd" clip-rule="evenodd" d="M53.6421 8.01066C55.7262 7.75845 57.8478 7.62865 60 7.62865C62.1522 7.62865 64.2738 7.75845 66.3579 8.01066C66.7875 7.72664 67.2707 7.36788 67.404 7.11452C67.6383 6.66931 67.9005 6.08681 68.1756 5.47527C68.4612 4.84045 68.761 4.17433 69.0583 3.59801C69.9584 1.85303 71.5453 0 71.5453 0C71.5453 0 74.3792 0.454675 76.1686 0.93422C77.9582 1.41373 80.6398 2.4368 80.6398 2.4368C80.6398 2.4368 81.0874 4.83507 80.9947 6.7963C80.9638 7.44405 80.8905 8.1708 80.8204 8.86342C80.7529 9.53059 80.6887 10.1662 80.6688 10.6688C80.6566 10.9812 80.9429 11.6111 81.19 12.0926C84.5956 13.6011 87.8101 15.4621 90.7877 17.6293C91.3352 17.6043 92.0617 17.5385 92.3348 17.3661C92.7603 17.0977 93.2787 16.7243 93.8226 16.3323L93.8325 16.3253C94.3943 15.9204 94.9833 15.4963 95.5259 15.1479C97.1777 14.0867 99.4787 13.2754 99.4787 13.2754C99.4787 13.2754 101.706 15.0861 103.015 16.3961C104.326 17.7062 106.136 19.9329 106.136 19.9329C106.136 19.9329 105.325 22.2338 104.264 23.8858C103.913 24.4314 103.486 25.024 103.079 25.5887L103.069 25.6034C102.681 26.1421 102.311 26.6551 102.046 27.0767C101.892 27.3192 101.823 27.9185 101.792 28.4331C104.208 31.6267 106.267 35.1058 107.908 38.8109C108.389 39.0578 109.019 39.3437 109.331 39.3314C109.833 39.3116 110.469 39.2474 111.136 39.1799C111.829 39.1099 112.556 39.0364 113.203 39.0056C115.164 38.9126 117.563 39.3604 117.563 39.3604C117.563 39.3604 118.586 42.0417 119.066 43.8313C119.545 45.6208 120 48.4545 120 48.4545C120 48.4545 118.147 50.0416 116.402 50.9417C115.826 51.239 115.16 51.5388 114.525 51.8245C113.913 52.0997 113.331 52.3619 112.886 52.5962C112.632 52.7295 112.274 53.2128 111.989 53.6424C112.242 55.7264 112.371 57.848 112.371 60C112.371 62.152 112.242 64.2736 111.989 66.3576C112.274 66.7872 112.632 67.2705 112.886 67.4038C113.331 67.6381 113.913 67.9003 114.525 68.1755C115.16 68.4612 115.826 68.761 116.402 69.0583C118.147 69.9584 120 71.5455 120 71.5455C120 71.5455 119.545 74.3792 119.066 76.1687C118.586 77.9583 117.563 80.6396 117.563 80.6396C117.563 80.6396 115.164 81.0874 113.203 80.9944C112.556 80.9636 111.829 80.8901 111.136 80.8201C110.469 80.7526 109.833 80.6884 109.331 80.6686C109.019 80.6563 108.389 80.9422 107.908 81.1891C106.267 84.8942 104.208 88.3733 101.792 91.5669C101.823 92.0815 101.892 92.6808 102.046 92.9233C102.308 93.3399 102.672 93.8458 103.055 94.3776L103.069 94.3966L103.079 94.4113C103.486 94.976 103.913 95.5686 104.264 96.1142C105.325 97.7662 106.136 100.067 106.136 100.067C106.136 100.067 104.326 102.294 103.015 103.604C101.706 104.914 99.4787 106.725 99.4787 106.725C99.4787 106.725 97.1777 105.913 95.5259 104.852C94.9802 104.502 94.3876 104.075 93.8226 103.668C93.2787 103.276 92.7603 102.902 92.3348 102.634C92.0617 102.461 91.3352 102.396 90.7877 102.371C87.8101 104.538 84.5956 106.399 81.19 107.907C80.9429 108.389 80.6566 109.019 80.6688 109.331C80.6887 109.834 80.7529 110.469 80.8204 111.137C80.8905 111.829 80.9638 112.556 80.9947 113.204C81.0874 115.165 80.6398 117.563 80.6398 117.563C80.6398 117.563 77.9582 118.586 76.1686 119.066C74.3792 119.545 71.5453 120 71.5453 120C71.5453 120 69.9584 118.147 69.0583 116.402C68.761 115.826 68.4612 115.16 68.1756 114.525C67.9005 113.913 67.6383 113.331 67.404 112.885C67.2707 112.632 66.7875 112.273 66.3579 111.989C64.2738 112.242 62.1522 112.371 60 112.371C57.8478 112.371 55.7262 112.242 53.6421 111.989C53.2126 112.273 52.7293 112.632 52.596 112.885C52.3617 113.331 52.0995 113.913 51.8244 114.525C51.5388 115.16 51.239 115.826 50.9417 116.402C50.0416 118.147 48.4547 120 48.4547 120C48.4547 120 45.6208 119.545 43.8314 119.066C42.0418 118.586 39.3602 117.563 39.3602 117.563C39.3602 117.563 38.9126 115.165 39.0053 113.204C39.0362 112.556 39.1095 111.829 39.1796 111.137C39.2471 110.469 39.3113 109.834 39.3312 109.331C39.3434 109.019 39.0571 108.389 38.81 107.907C35.4044 106.399 32.1899 104.538 29.2123 102.371C28.6648 102.396 27.9383 102.461 27.6652 102.634C27.2397 102.902 26.7213 103.276 26.1774 103.668L26.1675 103.675C25.6057 104.08 25.0167 104.504 24.4741 104.852C22.8223 105.913 20.5213 106.725 20.5213 106.725C20.5213 106.725 18.2945 104.914 16.9845 103.604C15.6743 102.294 13.8638 100.067 13.8638 100.067C13.8638 100.067 14.6752 97.7662 15.7362 96.1142C16.0868 95.5686 16.5135 94.976 16.9206 94.4113C17.3124 93.8672 17.6861 93.3488 17.9544 92.9233C18.1075 92.6808 18.1765 92.0815 18.2076 91.5669C15.7915 88.3733 13.7334 84.8942 12.0922 81.1891C11.6107 80.9422 10.9815 80.6563 10.6692 80.6686C10.1665 80.6884 9.53117 80.7526 8.86396 80.8201C8.17128 80.8901 7.44446 80.9636 6.79662 80.9944C4.83551 81.0874 2.43725 80.6396 2.43725 80.6396C2.43725 80.6396 1.41389 77.9583 0.934443 76.1687C0.454738 74.3792 0 71.5455 0 71.5455C0 71.5455 1.85309 69.9584 3.59791 69.0583C4.17417 68.761 4.84035 68.4612 5.4752 68.1755L5.48055 68.1731C6.09018 67.8988 6.67052 67.6374 7.1143 67.4038C7.36778 67.2705 7.72648 66.7872 8.01053 66.3576C7.75832 64.2736 7.62865 62.152 7.62865 60C7.62865 57.848 7.75832 55.7264 8.01053 53.6424C7.72648 53.2128 7.36778 52.7295 7.1143 52.5962C6.84808 52.456 6.53244 52.3058 6.19107 52.1488C5.96179 52.0435 5.72079 51.935 5.4752 51.8245C5.30834 51.7494 5.13918 51.6733 4.97028 51.5965C4.81972 51.5281 4.66916 51.4592 4.52013 51.39C4.20015 51.2413 3.88757 51.0912 3.59791 50.9417C1.85309 50.0416 0 48.4545 0 48.4545C0 48.4545 0.454738 45.6208 0.934443 43.8313C1.41389 42.0417 2.43725 39.3604 2.43725 39.3604C2.43725 39.3604 4.83551 38.9126 6.79662 39.0056C7.44446 39.0364 8.17128 39.1099 8.86396 39.1799C9.22418 39.2163 9.57524 39.2518 9.90107 39.2799C10.1785 39.3038 10.4378 39.3223 10.6692 39.3314C10.9815 39.3437 11.6107 39.0578 12.0922 38.8109C13.7334 35.1058 15.7915 31.6267 18.2076 28.4331C18.1765 27.9185 18.1075 27.3192 17.9544 27.0767C17.6887 26.6551 17.319 26.1421 16.9313 25.6034L16.9206 25.5887C16.5135 25.024 16.0868 24.4314 15.7362 23.8858C14.6752 22.2338 13.8638 19.9329 13.8638 19.9329C13.8638 19.9329 15.6743 17.7062 16.9845 16.3961C18.2945 15.0861 20.5213 13.2754 20.5213 13.2754C20.5213 13.2754 22.8223 14.0867 24.4741 15.1479C25.0198 15.4983 25.6123 15.9253 26.1774 16.3323C26.7213 16.7243 27.2397 17.0977 27.6652 17.3661C27.9383 17.5385 28.6648 17.6043 29.2123 17.6293C32.1899 15.4621 35.4044 13.6011 38.81 12.0926C39.0571 11.6111 39.3434 10.9812 39.3312 10.6688C39.3113 10.1662 39.2471 9.53059 39.1796 8.86342C39.1095 8.1708 39.0362 7.44405 39.0053 6.7963C38.9126 4.83507 39.3602 2.4368 39.3602 2.4368C39.3602 2.4368 42.0418 1.41373 43.8314 0.93422C45.6208 0.454675 48.4547 0 48.4547 0C48.4547 0 50.0416 1.85303 50.9417 3.59801C51.239 4.17433 51.5388 4.84045 51.8244 5.47527C52.0244 5.91962 52.2175 6.34866 52.3978 6.72083L52.4896 6.9069C52.5257 6.9789 52.5611 7.04822 52.596 7.11452C52.7293 7.36788 53.2126 7.72664 53.6421 8.01066ZM16.4552 60C16.4552 84.0491 35.9508 103.545 60 103.545C84.0492 103.545 103.545 84.0491 103.545 60C103.545 35.9509 84.0492 16.4553 60 16.4553C35.9508 16.4553 16.4552 35.9509 16.4552 60Z" stroke="white" stroke-width="2" mask="url(#path-1-inside-1_2015_1399)"/>
</svg>
