<svg width="0" height="0" class="hidden">
  <symbol fill="none" xmlns="http://www.w3.org/2000/svg" viewBox="0 0 100 100" id="icon-advantages-1">
    <g filter="url(#filter0_b_2009_237)">
      <path fill-rule="evenodd" clip-rule="evenodd" d="M14.9892 30.8813C14.9892 40.4936 22.855 48.1967 32.6704 48.1967C42.4822 48.1967 50.3516 40.4936 50.3516 30.8813C50.3516 21.269 42.4822 13.5659 32.6704 13.5659C22.855 13.5659 14.9892 21.269 14.9892 30.8813ZM59.3926 67.802C59.3926 58.9039 47.0833 56.6777 32.6715 56.6777C18.1815 56.6777 5.9505 58.9806 5.9505 67.8856C5.9505 76.7837 18.2598 79.01 32.6715 79.01C47.1616 79.01 59.3926 76.7071 59.3926 67.802Z" fill="url(#paint0_linear_2009_237)"></path>
    </g>
    <g filter="url(#filter1_f_2009_237)">
      <path d="M38.4744 62.3848C47.2736 62.3848 54.7891 63.8633 54.7891 69.7728C54.7891 75.6869 47.3214 77.2163 38.4744 77.2163C29.6751 77.2163 22.1596 75.7378 22.1596 69.8283C22.1596 63.9142 29.6274 62.3848 38.4744 62.3848Z" fill="#6DE754"></path>
    </g>
    <g filter="url(#filter2_f_2009_237)">
      <path d="M36.9917 39.6428C32.0516 39.6428 28.0928 35.684 28.0928 30.7439C28.0928 25.8038 32.0516 21.845 36.9917 21.845C41.93 21.845 45.8906 25.8038 45.8906 30.7439C45.8906 35.684 41.93 39.6428 36.9917 39.6428Z" fill="#6DE754"></path>
    </g>
    <g filter="url(#filter3_b_2009_237)">
      <mask id="path-4-outside-1_2009_237" maskUnits="userSpaceOnUse" x="22" y="6" width="73" height="88" fill="black">
        <rect fill="white" x="22" y="6" width="73" height="88"></rect>
        <path fill-rule="evenodd" clip-rule="evenodd" d="M35.7697 29.7081C35.7697 42.3141 46.0853 52.4163 58.9576 52.4163C71.8253 52.4163 82.1455 42.3141 82.1455 29.7081C82.1455 17.1022 71.8253 7 58.9576 7C46.0853 7 35.7697 17.1022 35.7697 29.7081ZM94 78.1291C94 66.4598 77.8571 63.5401 58.9569 63.5401C39.954 63.5401 23.9138 66.5603 23.9138 78.2388C23.9138 89.9081 40.0567 92.8277 58.9569 92.8277C77.9598 92.8277 94 89.8076 94 78.1291Z"></path>
      </mask>
      <path fill-rule="evenodd" clip-rule="evenodd" d="M35.7697 29.7081C35.7697 42.3141 46.0853 52.4163 58.9576 52.4163C71.8253 52.4163 82.1455 42.3141 82.1455 29.7081C82.1455 17.1022 71.8253 7 58.9576 7C46.0853 7 35.7697 17.1022 35.7697 29.7081ZM94 78.1291C94 66.4598 77.8571 63.5401 58.9569 63.5401C39.954 63.5401 23.9138 66.5603 23.9138 78.2388C23.9138 89.9081 40.0567 92.8277 58.9569 92.8277C77.9598 92.8277 94 89.8076 94 78.1291Z" fill="#6DE754" fill-opacity="0.4"></path>
      <path d="M58.9576 53.4163C45.5528 53.4163 34.7697 42.886 34.7697 29.7081H36.7697C36.7697 41.7422 46.6178 51.4163 58.9576 51.4163V53.4163ZM83.1455 29.7081C83.1455 42.8862 72.3576 53.4163 58.9576 53.4163V51.4163C71.2929 51.4163 81.1455 41.7421 81.1455 29.7081H83.1455ZM58.9576 6C72.3576 6 83.1455 16.5301 83.1455 29.7081H81.1455C81.1455 17.6742 71.2929 8 58.9576 8V6ZM34.7697 29.7081C34.7697 16.5303 45.5528 6 58.9576 6V8C46.6178 8 36.7697 17.674 36.7697 29.7081H34.7697ZM58.9569 62.5401C68.4289 62.5401 77.3278 63.2679 83.8897 65.5124C87.1764 66.6367 89.9496 68.1653 91.9093 70.2399C93.8916 72.3383 95 74.9538 95 78.1291H93C93 75.4697 92.0905 73.3442 90.4554 71.6133C88.7977 69.8584 86.3539 68.4691 83.2424 67.4048C77.0078 65.2722 68.3851 64.5401 58.9569 64.5401V62.5401ZM22.9138 78.2388C22.9138 75.0635 24.014 72.4414 25.9866 70.3322C27.9373 68.2464 30.7004 66.7033 33.9816 65.5652C40.5319 63.2932 49.432 62.5401 58.9569 62.5401V64.5401C49.4789 64.5401 40.8575 65.2972 34.637 67.4548C31.5327 68.5316 29.098 69.9333 27.4474 71.6983C25.8186 73.4399 24.9138 75.5748 24.9138 78.2388H22.9138ZM58.9569 93.8277C49.4849 93.8277 40.586 93.0999 34.0241 90.8554C30.7374 89.7312 27.9642 88.2026 26.0045 86.128C24.0222 84.0295 22.9138 81.414 22.9138 78.2388H24.9138C24.9138 80.8981 25.8232 83.0236 27.4584 84.7546C29.1161 86.5094 31.5598 87.8987 34.6714 88.9631C40.906 91.0957 49.5287 91.8277 58.9569 91.8277V93.8277ZM95 78.1291C95 81.3043 93.8997 83.9264 91.9272 86.0357C89.9764 88.1215 87.2134 89.6645 83.9322 90.8026C77.3819 93.0747 68.4818 93.8277 58.9569 93.8277V91.8277C68.4349 91.8277 77.0563 91.0707 83.2768 88.913C86.3811 87.8363 88.8158 86.4346 90.4664 84.6696C92.0952 82.9279 93 80.7931 93 78.1291H95Z" fill="url(#paint1_linear_2009_237)" mask="url(#path-4-outside-1_2009_237)"></path>
    </g>
    <defs>
      <filter id="filter0_b_2009_237" x="-7.04883" y="0.565918" width="79.4414" height="91.4441" filterUnits="userSpaceOnUse" color-interpolation-filters="sRGB">
        <feFlood flood-opacity="0" result="BackgroundImageFix"></feFlood>
        <feGaussianBlur in="BackgroundImageFix" stdDeviation="6.5"></feGaussianBlur>
        <feComposite in2="SourceAlpha" operator="in" result="effect1_backgroundBlur_2009_237"></feComposite>
        <feBlend mode="normal" in="SourceGraphic" in2="effect1_backgroundBlur_2009_237" result="shape"></feBlend>
      </filter>
      <filter id="filter1_f_2009_237" x="9.16016" y="49.3848" width="58.6289" height="40.8315" filterUnits="userSpaceOnUse" color-interpolation-filters="sRGB">
        <feFlood flood-opacity="0" result="BackgroundImageFix"></feFlood>
        <feBlend mode="normal" in="SourceGraphic" in2="BackgroundImageFix" result="shape"></feBlend>
        <feGaussianBlur stdDeviation="6.5" result="effect1_foregroundBlur_2009_237"></feGaussianBlur>
      </filter>
      <filter id="filter2_f_2009_237" x="13.0918" y="6.84497" width="47.7988" height="47.7979" filterUnits="userSpaceOnUse" color-interpolation-filters="sRGB">
        <feFlood flood-opacity="0" result="BackgroundImageFix"></feFlood>
        <feBlend mode="normal" in="SourceGraphic" in2="BackgroundImageFix" result="shape"></feBlend>
        <feGaussianBlur stdDeviation="7.5" result="effect1_foregroundBlur_2009_237"></feGaussianBlur>
      </filter>
      <filter id="filter3_b_2009_237" x="7.91406" y="-9" width="102.086" height="117.828" filterUnits="userSpaceOnUse" color-interpolation-filters="sRGB">
        <feFlood flood-opacity="0" result="BackgroundImageFix"></feFlood>
        <feGaussianBlur in="BackgroundImageFix" stdDeviation="7.5"></feGaussianBlur>
        <feComposite in2="SourceAlpha" operator="in" result="effect1_backgroundBlur_2009_237"></feComposite>
        <feBlend mode="normal" in="SourceGraphic" in2="effect1_backgroundBlur_2009_237" result="shape"></feBlend>
      </filter>
      <linearGradient id="paint0_linear_2009_237" x1="59.3926" y1="13.5659" x2="11.1783" y2="82.658" gradientUnits="userSpaceOnUse">
        <stop stop-color="#6DE754"></stop>
        <stop offset="1" stop-color="#129465"></stop>
      </linearGradient>
      <linearGradient id="paint1_linear_2009_237" x1="82.8434" y1="16.999" x2="26.8406" y2="73.6386" gradientUnits="userSpaceOnUse">
        <stop stop-color="#22282F" stop-opacity="0.7"></stop>
        <stop offset="1" stop-color="#22282F" stop-opacity="0"></stop>
      </linearGradient>
    </defs>
  </symbol>
  <symbol fill="none" xmlns="http://www.w3.org/2000/svg" viewBox="0 0 100 100" id="icon-advantages-2">
    <path d="M79.9789 18.8697L56.5759 12.5989C48.0871 10.3243 41.8127 13.9704 39.5306 22.4872L31.8015 51.3326C29.4821 59.989 33.1227 66.1721 41.6116 68.4467L65.0146 74.7175C73.6402 77.0287 79.7451 73.4569 82.0645 64.8005L89.7936 35.9552C92.0757 27.4384 88.6046 21.181 79.9789 18.8697Z" fill="url(#paint0_linear_2009_256)"></path>
    <g opacity="0.5" filter="url(#filter0_f_2009_256)">
      <path d="M73.8632 26.7688L57.9185 22.4964C52.135 20.9467 47.8602 23.4308 46.3054 29.2334L41.0395 48.886C39.4592 54.7837 41.9396 58.9963 47.7231 60.546L63.6678 64.8184C69.5446 66.3931 73.7039 63.9595 75.2841 58.0619L80.55 38.4092C82.1048 32.6067 79.74 28.3435 73.8632 26.7688Z" fill="#6DE754"></path>
    </g>
    <g filter="url(#filter1_b_2009_256)">
      <mask id="path-3-outside-1_2009_256" maskUnits="userSpaceOnUse" x="6" y="23.4771" width="69" height="69" fill="black">
        <rect fill="white" x="6" y="23.4771" width="69" height="69"></rect>
        <path d="M54.6971 24.4771H25.8593C14.5836 24.4771 7 32.3933 7 44.1679V71.3426C7 83.084 14.5836 91.0002 25.8593 91.0002H54.6971C65.9728 91.0002 73.5232 83.084 73.5232 71.3426V44.1679C73.5232 32.3933 65.9728 24.4771 54.6971 24.4771Z"></path>
      </mask>
      <path d="M54.6971 24.4771H25.8593C14.5836 24.4771 7 32.3933 7 44.1679V71.3426C7 83.084 14.5836 91.0002 25.8593 91.0002H54.6971C65.9728 91.0002 73.5232 83.084 73.5232 71.3426V44.1679C73.5232 32.3933 65.9728 24.4771 54.6971 24.4771Z" fill="#6DE754" fill-opacity="0.35"></path>
      <path d="M54.6971 25.4771C55.2494 25.4771 55.6971 25.0293 55.6971 24.4771C55.6971 23.9248 55.2494 23.4771 54.6971 23.4771V25.4771ZM54.6971 23.4771C54.1448 23.4771 53.6971 23.9248 53.6971 24.4771C53.6971 25.0293 54.1448 25.4771 54.6971 25.4771V23.4771ZM54.6971 23.4771H25.8593V25.4771H54.6971V23.4771ZM25.8593 23.4771C19.9787 23.4771 14.9928 25.5469 11.4791 29.2153C7.96897 32.88 6 38.0638 6 44.1679H8C8 38.4974 9.82285 33.8358 12.9234 30.5987C16.0205 27.3654 20.4643 25.4771 25.8593 25.4771V23.4771ZM6 44.1679V71.3426H8V44.1679H6ZM6 71.3426C6 77.4308 7.96942 82.6064 11.4795 86.2666C14.9931 89.9305 19.9787 92.0002 25.8593 92.0002V90.0002C20.4642 90.0002 16.0202 88.1119 12.923 84.8823C9.8224 81.649 8 76.9958 8 71.3426H6ZM25.8593 92.0002H54.6971V90.0002H25.8593V92.0002ZM54.6971 92.0002C60.5779 92.0002 65.5557 89.9303 69.0611 86.2657C72.5628 82.605 74.5232 77.4296 74.5232 71.3426H72.5232C72.5232 76.997 70.7083 81.6504 67.6159 84.8832C64.5273 88.112 60.092 90.0002 54.6971 90.0002V92.0002ZM74.5232 71.3426V44.1679H72.5232V71.3426H74.5232ZM74.5232 44.1679C74.5232 38.0651 72.5633 32.8813 69.0616 29.2162C65.556 25.547 60.5779 23.4771 54.6971 23.4771V25.4771C60.092 25.4771 64.527 27.3652 67.6155 30.5978C70.7079 33.8345 72.5232 38.4962 72.5232 44.1679H74.5232Z" fill="url(#paint1_linear_2009_256)" mask="url(#path-3-outside-1_2009_256)"></path>
    </g>
    <g filter="url(#filter2_bd_2009_256)">
      <mask id="path-5-inside-2_2009_256" fill="white">
        <path d="M36.3128 68.5415C35.5678 68.5415 34.8227 68.2588 34.2539 67.69L26.361 59.797C25.2234 58.6595 25.2234 56.8168 26.361 55.6826C27.4985 54.545 29.3379 54.5417 30.4754 55.6792L36.3128 61.5166L50.0432 47.7863C51.1808 46.6487 53.0201 46.6487 54.1577 47.7863C55.2952 48.9238 55.2952 50.7665 54.1577 51.9041L38.3717 67.69C37.803 68.2588 37.0579 68.5415 36.3128 68.5415Z"></path>
      </mask>
      <path d="M36.3128 68.5415C35.5678 68.5415 34.8227 68.2588 34.2539 67.69L26.361 59.797C25.2234 58.6595 25.2234 56.8168 26.361 55.6826C27.4985 54.545 29.3379 54.5417 30.4754 55.6792L36.3128 61.5166L50.0432 47.7863C51.1808 46.6487 53.0201 46.6487 54.1577 47.7863C55.2952 48.9238 55.2952 50.7665 54.1577 51.9041L38.3717 67.69C37.803 68.2588 37.0579 68.5415 36.3128 68.5415Z" fill="url(#paint2_linear_2009_256)"></path>
      <path d="M26.361 55.6826L26.5022 55.8242L26.5024 55.824L26.361 55.6826ZM36.3128 61.5166L36.1714 61.6581L36.3128 61.7995L36.4543 61.6581L36.3128 61.5166ZM54.1577 51.9041L54.0163 51.7626L54.1577 51.9041ZM38.3717 67.69L38.5132 67.8314L38.3717 67.69ZM36.3128 68.3415C35.6184 68.3415 34.925 68.0782 34.3954 67.5486L34.1125 67.8314C34.7205 68.4394 35.5172 68.7415 36.3128 68.7415V68.3415ZM34.3954 67.5486L26.5024 59.6556L26.2196 59.9384L34.1125 67.8314L34.3954 67.5486ZM26.5024 59.6556C25.4428 58.596 25.4431 56.8801 26.5022 55.8242L26.2198 55.5409C25.0037 56.7534 25.004 58.7229 26.2196 59.9384L26.5024 59.6556ZM26.5024 55.824C27.5621 54.7642 29.2749 54.7615 30.334 55.8207L30.6169 55.5378C29.4009 54.3219 27.4349 54.3258 26.2196 55.5411L26.5024 55.824ZM30.334 55.8207L36.1714 61.6581L36.4543 61.3752L30.6169 55.5378L30.334 55.8207ZM36.4543 61.6581L50.1846 47.9277L49.9018 47.6448L36.1714 61.3752L36.4543 61.6581ZM50.1846 47.9277C51.2441 46.8682 52.9568 46.8682 54.0163 47.9277L54.2991 47.6448C53.0835 46.4292 51.1175 46.4292 49.9018 47.6448L50.1846 47.9277ZM54.0163 47.9277C55.0757 48.9871 55.0757 50.7032 54.0163 51.7626L54.2991 52.0455C55.5148 50.8298 55.5148 48.8605 54.2991 47.6448L54.0163 47.9277ZM54.0163 51.7626L38.2303 67.5486L38.5132 67.8314L54.2991 52.0455L54.0163 51.7626ZM38.2303 67.5486C37.7007 68.0782 37.0073 68.3415 36.3128 68.3415V68.7415C37.1085 68.7415 37.9052 68.4394 38.5132 67.8314L38.2303 67.5486Z" fill="url(#paint3_linear_2009_256)" fill-opacity="0.5" mask="url(#path-5-inside-2_2009_256)"></path>
    </g>
    <defs>
      <filter id="filter0_f_2009_256" x="26.5723" y="8.04468" width="68.4434" height="71.2419" filterUnits="userSpaceOnUse" color-interpolation-filters="sRGB">
        <feFlood flood-opacity="0" result="BackgroundImageFix"></feFlood>
        <feBlend mode="normal" in="SourceGraphic" in2="BackgroundImageFix" result="shape"></feBlend>
        <feGaussianBlur stdDeviation="7" result="effect1_foregroundBlur_2009_256"></feGaussianBlur>
      </filter>
      <filter id="filter1_b_2009_256" x="-18" y="-0.522949" width="116.523" height="116.523" filterUnits="userSpaceOnUse" color-interpolation-filters="sRGB">
        <feFlood flood-opacity="0" result="BackgroundImageFix"></feFlood>
        <feGaussianBlur in="BackgroundImageFix" stdDeviation="12"></feGaussianBlur>
        <feComposite in2="SourceAlpha" operator="in" result="effect1_backgroundBlur_2009_256"></feComposite>
        <feBlend mode="normal" in="SourceGraphic" in2="effect1_backgroundBlur_2009_256" result="shape"></feBlend>
      </filter>
      <filter id="filter2_bd_2009_256" x="10.5078" y="31.9331" width="59.5039" height="51.6084" filterUnits="userSpaceOnUse" color-interpolation-filters="sRGB">
        <feFlood flood-opacity="0" result="BackgroundImageFix"></feFlood>
        <feGaussianBlur in="BackgroundImageFix" stdDeviation="7.5"></feGaussianBlur>
        <feComposite in2="SourceAlpha" operator="in" result="effect1_backgroundBlur_2009_256"></feComposite>
        <feColorMatrix in="SourceAlpha" type="matrix" values="0 0 0 0 0 0 0 0 0 0 0 0 0 0 0 0 0 0 127 0" result="hardAlpha"></feColorMatrix>
        <feOffset dx="5" dy="5"></feOffset>
        <feGaussianBlur stdDeviation="5"></feGaussianBlur>
        <feColorMatrix type="matrix" values="0 0 0 0 0.427451 0 0 0 0 0.905882 0 0 0 0 0.329412 0 0 0 0.5 0"></feColorMatrix>
        <feBlend mode="normal" in2="effect1_backgroundBlur_2009_256" result="effect2_dropShadow_2009_256"></feBlend>
        <feBlend mode="normal" in="SourceGraphic" in2="effect2_dropShadow_2009_256" result="shape"></feBlend>
      </filter>
      <linearGradient id="paint0_linear_2009_256" x1="43.1445" y1="9" x2="66.001" y2="82.2007" gradientUnits="userSpaceOnUse">
        <stop stop-color="#6DE754"></stop>
        <stop offset="1" stop-color="#129465"></stop>
      </linearGradient>
      <linearGradient id="paint1_linear_2009_256" x1="17.5894" y1="32.2271" x2="60.0241" y2="84.7835" gradientUnits="userSpaceOnUse">
        <stop stop-color="#1E242A" stop-opacity="0.7"></stop>
        <stop offset="1" stop-color="#1F242B" stop-opacity="0"></stop>
      </linearGradient>
      <linearGradient id="paint2_linear_2009_256" x1="52.9191" y1="50.8351" x2="20.0857" y2="52.2968" gradientUnits="userSpaceOnUse">
        <stop stop-color="white"></stop>
        <stop offset="1" stop-color="white" stop-opacity="0.2"></stop>
      </linearGradient>
      <linearGradient id="paint3_linear_2009_256" x1="28.6859" y1="54.1817" x2="53.7374" y2="54.3705" gradientUnits="userSpaceOnUse">
        <stop stop-color="white"></stop>
        <stop offset="1" stop-color="white" stop-opacity="0"></stop>
      </linearGradient>
    </defs>
  </symbol>
  <symbol fill="none" xmlns="http://www.w3.org/2000/svg" viewBox="0 0 100 100" id="icon-advantages-3">
    <g filter="url(#filter0_b_2009_288)">
      <path d="M63.4519 46.9655C62.846 46.0205 61.9849 45.0755 60.8686 44.477C59.9756 44.036 59.4016 43.3115 58.8913 42.461C57.2647 39.752 58.2215 36.1925 60.9324 34.586C64.1217 32.7905 65.1422 28.79 63.2925 25.6715L61.1557 21.9545C59.3378 18.836 55.3512 17.7335 52.1938 19.5605C49.3873 21.0725 45.7834 20.0645 44.1569 17.387C43.6466 16.505 43.3595 15.56 43.4233 14.615C43.519 13.3865 43.1363 12.221 42.5622 11.276C41.3822 9.323 39.2454 8 36.8853 8H32.3885C30.0603 8.063 27.9235 9.323 26.7435 11.276C26.1375 12.221 25.7867 13.3865 25.8505 14.615C25.9143 15.56 25.6272 16.505 25.1169 17.387C23.4904 20.0645 19.8865 21.0725 17.1119 19.5605C13.9226 17.7335 9.96793 18.836 8.11815 21.9545L5.98135 25.6715C4.16346 28.79 5.18403 32.7905 8.3414 34.586C11.0523 36.1925 12.0091 39.752 10.4144 42.461C9.87225 43.3115 9.29818 44.036 8.40519 44.477C7.32084 45.0755 6.36406 46.0205 5.85377 46.9655C4.67375 48.9185 4.73753 51.3755 5.91756 53.423L8.11815 57.203C9.29818 59.219 11.4988 60.479 13.795 60.479C14.8794 60.479 16.1551 60.164 17.1757 59.534C17.973 58.9985 18.9298 58.8095 19.9822 58.8095C23.1396 58.8095 25.7867 61.424 25.8505 64.5425C25.8505 68.165 28.7846 71 32.4841 71H36.8215C40.4892 71 43.4233 68.165 43.4233 64.5425C43.519 61.424 46.1661 58.8095 49.3235 58.8095C50.344 58.8095 51.3008 58.9985 52.13 59.534C53.1506 60.164 54.3944 60.479 55.5107 60.479C57.775 60.479 59.9756 59.219 61.1557 57.203L63.3881 53.423C64.5363 51.3125 64.632 48.9185 63.4519 46.9655Z" fill="url(#paint0_linear_2009_288)"></path>
    </g>
    <g opacity="0.5" filter="url(#filter1_f_2009_288)">
      <path d="M49.7018 43.5196C49.3893 43.0332 48.9453 42.5468 48.3698 42.2388C47.9093 42.0118 47.6133 41.6389 47.3502 41.2011C46.5115 39.8068 47.0048 37.9747 48.4026 37.1478C50.0471 36.2237 50.5733 34.1646 49.6195 32.5595L48.5178 30.6463C47.5804 29.0412 45.5248 28.4738 43.8968 29.4141C42.4497 30.1924 40.5914 29.6735 39.7528 28.2954C39.4896 27.8414 39.3416 27.355 39.3745 26.8686C39.4239 26.2363 39.2265 25.6364 38.9305 25.15C38.3221 24.1448 37.2203 23.4639 36.0034 23.4639H33.6847C32.4842 23.4963 31.3824 24.1448 30.774 25.15C30.4615 25.6364 30.2806 26.2363 30.3135 26.8686C30.3464 27.355 30.1984 27.8414 29.9353 28.2954C29.0966 29.6735 27.2384 30.1924 25.8077 29.4141C24.1632 28.4738 22.1241 29.0412 21.1703 30.6463L20.0685 32.5595C19.1312 34.1646 19.6574 36.2237 21.2854 37.1478C22.6832 37.9747 23.1765 39.8068 22.3543 41.2011C22.0748 41.6389 21.7788 42.0118 21.3183 42.2388C20.7592 42.5468 20.2658 43.0332 20.0027 43.5196C19.3943 44.5249 19.4272 45.7895 20.0356 46.8434L21.1703 48.7889C21.7788 49.8266 22.9134 50.4751 24.0974 50.4751C24.6566 50.4751 25.3144 50.313 25.8406 49.9887C26.2517 49.7131 26.745 49.6158 27.2877 49.6158C28.9157 49.6158 30.2806 50.9615 30.3135 52.5666C30.3135 54.4311 31.8264 55.8903 33.734 55.8903H35.9705C37.8616 55.8903 39.3745 54.4311 39.3745 52.5666C39.4239 50.9615 40.7888 49.6158 42.4168 49.6158C42.943 49.6158 43.4364 49.7131 43.8639 49.9887C44.3902 50.313 45.0315 50.4751 45.6071 50.4751C46.7746 50.4751 47.9093 49.8266 48.5178 48.7889L49.6689 46.8434C50.2609 45.7571 50.3102 44.5249 49.7018 43.5196Z" fill="#6DE754"></path>
    </g>
    <g filter="url(#filter2_b_2009_288)">
      <mask id="path-3-outside-1_2009_288" maskUnits="userSpaceOnUse" x="21.6016" y="15.3384" width="74" height="78" fill="black">
        <rect fill="white" x="21.6016" y="15.3384" width="74" height="78"></rect>
        <path d="M93.4593 63.1352C92.7247 62.0003 91.6809 60.8653 90.3277 60.1465C89.2452 59.6169 88.5493 58.7468 87.9307 57.7254C85.959 54.4719 87.1188 50.197 90.405 48.2676C94.2712 46.1113 95.5084 41.3068 93.266 37.5615L90.6757 33.0975C88.472 29.3522 83.6393 28.0281 79.8118 30.2223C76.4096 32.0382 72.0408 30.8276 70.0691 27.612C69.4505 26.5527 69.1025 25.4178 69.1798 24.2829C69.2958 22.8075 68.8319 21.4077 68.136 20.2728C66.7055 17.9273 64.1152 16.3384 61.2542 16.3384H55.803C52.9807 16.414 50.3903 17.9273 48.9599 20.2728C48.2253 21.4077 47.8 22.8075 47.8773 24.2829C47.9547 25.4178 47.6067 26.5527 46.9881 27.612C45.0164 30.8276 40.6476 32.0382 37.2841 30.2223C33.4179 28.0281 28.6239 29.3522 26.3815 33.0975L23.7912 37.5615C21.5875 41.3068 22.8246 46.1113 26.6521 48.2676C29.9384 50.197 31.0982 54.4719 29.1651 57.7254C28.5079 58.7468 27.812 59.6169 26.7295 60.1465C25.415 60.8653 24.2551 62.0003 23.6365 63.1352C22.2061 65.4807 22.2834 68.4315 23.7139 70.8905L26.3815 75.4302C27.812 77.8514 30.4796 79.3646 33.2633 79.3646C34.5778 79.3646 36.1242 78.9863 37.3614 78.2297C38.3279 77.5866 39.4878 77.3596 40.7636 77.3596C44.5911 77.3596 47.8 80.4996 47.8773 84.2448C47.8773 88.5954 51.4342 92.0001 55.9189 92.0001H61.1769C65.623 92.0001 69.1798 88.5954 69.1798 84.2448C69.2958 80.4996 72.5047 77.3596 76.3322 77.3596C77.5694 77.3596 78.7293 77.5866 79.7345 78.2297C80.9716 78.9863 82.4794 79.3646 83.8326 79.3646C86.5775 79.3646 89.2452 77.8514 90.6757 75.4302L93.382 70.8905C94.7738 68.3558 94.8898 65.4807 93.4593 63.1352Z"></path>
      </mask>
      <path d="M93.4593 63.1352C92.7247 62.0003 91.6809 60.8653 90.3277 60.1465C89.2452 59.6169 88.5493 58.7468 87.9307 57.7254C85.959 54.4719 87.1188 50.197 90.405 48.2676C94.2712 46.1113 95.5084 41.3068 93.266 37.5615L90.6757 33.0975C88.472 29.3522 83.6393 28.0281 79.8118 30.2223C76.4096 32.0382 72.0408 30.8276 70.0691 27.612C69.4505 26.5527 69.1025 25.4178 69.1798 24.2829C69.2958 22.8075 68.8319 21.4077 68.136 20.2728C66.7055 17.9273 64.1152 16.3384 61.2542 16.3384H55.803C52.9807 16.414 50.3903 17.9273 48.9599 20.2728C48.2253 21.4077 47.8 22.8075 47.8773 24.2829C47.9547 25.4178 47.6067 26.5527 46.9881 27.612C45.0164 30.8276 40.6476 32.0382 37.2841 30.2223C33.4179 28.0281 28.6239 29.3522 26.3815 33.0975L23.7912 37.5615C21.5875 41.3068 22.8246 46.1113 26.6521 48.2676C29.9384 50.197 31.0982 54.4719 29.1651 57.7254C28.5079 58.7468 27.812 59.6169 26.7295 60.1465C25.415 60.8653 24.2551 62.0003 23.6365 63.1352C22.2061 65.4807 22.2834 68.4315 23.7139 70.8905L26.3815 75.4302C27.812 77.8514 30.4796 79.3646 33.2633 79.3646C34.5778 79.3646 36.1242 78.9863 37.3614 78.2297C38.3279 77.5866 39.4878 77.3596 40.7636 77.3596C44.5911 77.3596 47.8 80.4996 47.8773 84.2448C47.8773 88.5954 51.4342 92.0001 55.9189 92.0001H61.1769C65.623 92.0001 69.1798 88.5954 69.1798 84.2448C69.2958 80.4996 72.5047 77.3596 76.3322 77.3596C77.5694 77.3596 78.7293 77.5866 79.7345 78.2297C80.9716 78.9863 82.4794 79.3646 83.8326 79.3646C86.5775 79.3646 89.2452 77.8514 90.6757 75.4302L93.382 70.8905C94.7738 68.3558 94.8898 65.4807 93.4593 63.1352Z" fill="#6DE754" fill-opacity="0.35"></path>
      <path d="M92.6198 63.6785C92.9199 64.1422 93.539 64.2748 94.0027 63.9747C94.4663 63.6746 94.5989 63.0555 94.2988 62.5918L92.6198 63.6785ZM90.3277 60.1465L90.7968 59.2634C90.787 59.2582 90.7772 59.2532 90.7672 59.2483L90.3277 60.1465ZM87.9307 57.7254L88.7861 57.2073L88.7859 57.2071L87.9307 57.7254ZM90.405 48.2676L89.9179 47.3943C89.9115 47.3979 89.9051 47.4016 89.8987 47.4053L90.405 48.2676ZM93.266 37.5615L92.401 38.0634L92.408 38.0752L93.266 37.5615ZM90.6757 33.0975L91.5406 32.5956L91.5375 32.5903L90.6757 33.0975ZM79.8118 30.2223L80.2826 31.1045C80.2915 31.0998 80.3004 31.0949 80.3091 31.0899L79.8118 30.2223ZM70.0691 27.612L69.2055 28.1163C69.2091 28.1225 69.2128 28.1286 69.2166 28.1347L70.0691 27.612ZM69.1798 24.2829L68.1829 24.2045L68.1822 24.2149L69.1798 24.2829ZM68.136 20.2728L67.2822 20.7935L67.2835 20.7955L68.136 20.2728ZM55.803 16.3384V15.3384C55.794 15.3384 55.7851 15.3385 55.7762 15.3387L55.803 16.3384ZM48.9599 20.2728L49.7994 20.8161C49.8042 20.8087 49.809 20.8011 49.8136 20.7935L48.9599 20.2728ZM47.8773 24.2829L46.8787 24.3352C46.879 24.3404 46.8793 24.3456 46.8796 24.3508L47.8773 24.2829ZM46.9881 27.612L47.8406 28.1347C47.8444 28.1286 47.848 28.1225 47.8517 28.1163L46.9881 27.612ZM37.2841 30.2223L36.7905 31.092C36.7966 31.0955 36.8028 31.0989 36.809 31.1023L37.2841 30.2223ZM26.3815 33.0975L25.5235 32.5837L25.5166 32.5956L26.3815 33.0975ZM23.7912 37.5615L24.6531 38.0686L24.6561 38.0634L23.7912 37.5615ZM26.6521 48.2676L27.1584 47.4053C27.1533 47.4023 27.1482 47.3993 27.143 47.3964L26.6521 48.2676ZM29.1651 57.7254L30.0061 58.2665C30.0125 58.2565 30.0188 58.2464 30.0248 58.2362L29.1651 57.7254ZM26.7295 60.1465L26.29 59.2483C26.2764 59.2549 26.263 59.2619 26.2497 59.2691L26.7295 60.1465ZM23.6365 63.1352L24.4903 63.6559C24.4987 63.642 24.5068 63.628 24.5146 63.6138L23.6365 63.1352ZM23.7139 70.8905L22.8495 71.3934L22.8517 71.3971L23.7139 70.8905ZM26.3815 75.4302L25.5193 75.9368L25.5206 75.9389L26.3815 75.4302ZM37.3614 78.2297L37.8831 79.0828C37.894 79.0762 37.9047 79.0693 37.9154 79.0622L37.3614 78.2297ZM47.8773 84.2448H48.8773C48.8773 84.2379 48.8773 84.2311 48.8771 84.2242L47.8773 84.2448ZM69.1798 84.2448L68.1803 84.2139C68.18 84.2242 68.1798 84.2345 68.1798 84.2448H69.1798ZM79.7345 78.2297L79.1955 79.0721C79.2012 79.0757 79.2069 79.0793 79.2127 79.0828L79.7345 78.2297ZM90.6757 75.4302L89.8167 74.9182L89.8147 74.9215L90.6757 75.4302ZM93.382 70.8905L94.2409 71.4026C94.247 71.3924 94.2528 71.3822 94.2585 71.3718L93.382 70.8905ZM94.313 62.6145C94.0255 62.143 93.4101 61.9939 92.9386 62.2814C92.4671 62.569 92.318 63.1843 92.6056 63.6559L94.313 62.6145ZM94.2988 62.5918C93.5012 61.3595 92.342 60.0842 90.7968 59.2634L89.8586 61.0297C91.0198 61.6465 91.9482 62.641 92.6198 63.6785L94.2988 62.5918ZM90.7672 59.2483C89.9392 58.8432 89.3669 58.1665 88.7861 57.2073L87.0753 58.2434C87.7317 59.3271 88.5512 60.3906 89.8882 61.0448L90.7672 59.2483ZM88.7859 57.2071C87.1142 54.4487 88.0877 50.7878 90.9113 49.13L89.8987 47.4053C86.1499 49.6062 84.8037 54.4952 87.0755 58.2437L88.7859 57.2071ZM90.8922 49.141C95.2561 46.707 96.6533 41.2724 94.124 37.0478L92.408 38.0752C94.3634 41.3412 93.2863 45.5156 89.9179 47.3943L90.8922 49.141ZM94.1309 37.0596L91.5406 32.5956L89.8107 33.5993L92.4011 38.0634L94.1309 37.0596ZM91.5375 32.5903C89.0581 28.3764 83.6208 26.886 79.3144 29.3548L80.3091 31.0899C83.6577 29.1702 87.8858 30.328 89.8138 33.6046L91.5375 32.5903ZM79.3409 29.3401C76.4041 30.9076 72.616 29.8526 70.9216 27.0893L69.2166 28.1347C71.4656 31.8026 76.415 33.1688 80.2826 31.1045L79.3409 29.3401ZM70.9326 27.1077C70.385 26.17 70.1174 25.2337 70.1775 24.3508L68.1822 24.2149C68.0877 25.6018 68.5159 26.9354 69.2055 28.1163L70.9326 27.1077ZM70.1768 24.3612C70.313 22.6277 69.767 21.0196 68.9885 19.7501L67.2835 20.7955C67.8968 21.7958 68.2786 22.9872 68.1829 24.2045L70.1768 24.3612ZM68.9897 19.7521C67.3909 17.1305 64.4885 15.3384 61.2542 15.3384V17.3384C63.7419 17.3384 66.0201 18.724 67.2822 20.7935L68.9897 19.7521ZM61.2542 15.3384H55.803V17.3384H61.2542V15.3384ZM55.7762 15.3387C52.6168 15.4234 49.7142 17.1154 48.1061 19.7521L49.8136 20.7935C51.0665 18.7392 53.3446 17.4046 55.8298 17.338L55.7762 15.3387ZM48.1204 19.7294C47.2797 21.0283 46.7896 22.6346 46.8787 24.3352L48.876 24.2305C48.8104 22.9803 49.1709 21.7871 49.7994 20.8161L48.1204 19.7294ZM46.8796 24.3508C46.9398 25.2337 46.6722 26.17 46.1246 27.1077L47.8517 28.1163C48.5412 26.9354 48.9695 25.6018 48.875 24.2149L46.8796 24.3508ZM46.1356 27.0893C44.4392 29.8558 40.6518 30.9041 37.7591 29.3424L36.809 31.1023C40.6434 33.1723 45.5935 31.7994 47.8406 28.1347L46.1356 27.0893ZM37.7777 29.3526C33.4328 26.8868 28.0413 28.3786 25.5235 32.5838L27.2395 33.6111C29.2065 30.3258 33.403 29.1695 36.7905 31.092L37.7777 29.3526ZM25.5166 32.5956L22.9263 37.0596L24.6561 38.0634L27.2464 33.5993L25.5166 32.5956ZM22.9293 37.0544C20.4463 41.2744 21.8386 46.7035 26.1613 49.1389L27.143 47.3964C23.8107 45.5191 22.7287 41.3392 24.6531 38.0686L22.9293 37.0544ZM26.1458 49.13C28.9695 50.7878 29.9463 54.4529 28.3054 57.2146L30.0248 58.2362C32.2501 54.4909 30.9072 49.6062 27.1584 47.4053L26.1458 49.13ZM28.3242 57.1842C27.6941 58.1635 27.1207 58.8419 26.29 59.2483L27.1689 61.0448C28.5033 60.3919 29.3217 59.3301 30.0061 58.2665L28.3242 57.1842ZM26.2497 59.2691C24.7871 60.0689 23.4793 61.3342 22.7585 62.6566L24.5146 63.6138C25.031 62.6663 26.0428 61.6618 27.2092 61.0239L26.2497 59.2691ZM22.7828 62.6145C21.1416 65.3056 21.2542 68.6511 22.8495 71.3933L24.5782 70.3877C23.3126 68.2119 23.2706 65.6558 24.4903 63.6559L22.7828 62.6145ZM22.8517 71.3971L25.5193 75.9368L27.2437 74.9236L24.576 70.3839L22.8517 71.3971ZM25.5206 75.9389C27.1311 78.6648 30.1262 80.3646 33.2633 80.3646V78.3646C30.8331 78.3646 28.4929 77.038 27.2425 74.9215L25.5206 75.9389ZM33.2633 80.3646C34.7442 80.3646 36.4744 79.9443 37.8831 79.0828L36.8397 77.3766C35.774 78.0283 34.4114 78.3646 33.2633 78.3646V80.3646ZM37.9154 79.0622C38.6574 78.5685 39.5971 78.3596 40.7636 78.3596V76.3596C39.3784 76.3596 37.9984 76.6047 36.8074 77.3972L37.9154 79.0622ZM40.7636 78.3596C44.0549 78.3596 46.8116 81.0723 46.8775 84.2655L48.8771 84.2242C48.7884 79.9268 45.1273 76.3596 40.7636 76.3596V78.3596ZM46.8773 84.2448C46.8773 89.1836 50.9186 93.0001 55.9189 93.0001V91.0001C51.9498 91.0001 48.8773 88.0071 48.8773 84.2448H46.8773ZM55.9189 93.0001H61.1769V91.0001H55.9189V93.0001ZM61.1769 93.0001C66.1418 93.0001 70.1798 89.1805 70.1798 84.2448H68.1798C68.1798 88.0102 65.1042 91.0001 61.1769 91.0001V93.0001ZM70.1794 84.2758C70.2786 81.0723 73.0431 78.3596 76.3322 78.3596V76.3596C71.9664 76.3596 68.3131 79.9268 68.1803 84.2139L70.1794 84.2758ZM76.3322 78.3596C77.4515 78.3596 78.4033 78.5652 79.1955 79.0721L80.2734 77.3874C79.0552 76.6079 77.6874 76.3596 76.3322 76.3596V78.3596ZM79.2127 79.0828C80.6195 79.9431 82.3105 80.3646 83.8326 80.3646V78.3646C82.6483 78.3646 81.3238 78.0295 80.2562 77.3766L79.2127 79.0828ZM83.8326 80.3646C86.9337 80.3646 89.9275 78.6625 91.5366 75.9389L89.8147 74.9215C88.5629 77.0403 86.2214 78.3646 83.8326 78.3646V80.3646ZM91.5346 75.9423L94.2409 71.4026L92.523 70.3785L89.8167 74.9182L91.5346 75.9423ZM94.2585 71.3718C95.7913 68.5804 95.9617 65.3177 94.313 62.6145L92.6056 63.6559C93.8179 65.6436 93.7563 68.1313 92.5054 70.4092L94.2585 71.3718Z" fill="url(#paint1_linear_2009_288)" mask="url(#path-3-outside-1_2009_288)"></path>
    </g>
    <g filter="url(#filter3_bd_2009_288)">
      <path d="M58.5971 64.5805C52.5272 64.5805 47.6172 59.8516 47.6172 53.9122C47.6172 47.9727 52.5272 43.2061 58.5971 43.2061C64.6669 43.2061 69.461 47.9727 69.461 53.9122C69.461 59.8516 64.6669 64.5805 58.5971 64.5805Z" fill="url(#paint2_linear_2009_288)"></path>
      <path d="M58.5971 64.3805C52.6317 64.3805 47.8172 59.7353 47.8172 53.9122C47.8172 48.0882 52.6326 43.4061 58.5971 43.4061C64.5587 43.4061 69.261 48.0854 69.261 53.9122C69.261 59.738 64.5596 64.3805 58.5971 64.3805Z" stroke="url(#paint3_linear_2009_288)" stroke-width="0.4"></path>
    </g>
    <defs>
      <filter id="filter0_b_2009_288" x="-8" y="-5" width="85.2949" height="89" filterUnits="userSpaceOnUse" color-interpolation-filters="sRGB">
        <feFlood flood-opacity="0" result="BackgroundImageFix"></feFlood>
        <feGaussianBlur in="BackgroundImageFix" stdDeviation="6.5"></feGaussianBlur>
        <feComposite in2="SourceAlpha" operator="in" result="effect1_backgroundBlur_2009_288"></feComposite>
        <feBlend mode="normal" in="SourceGraphic" in2="effect1_backgroundBlur_2009_288" result="shape"></feBlend>
      </filter>
      <filter id="filter1_f_2009_288" x="3.5625" y="7.46387" width="62.5742" height="64.4265" filterUnits="userSpaceOnUse" color-interpolation-filters="sRGB">
        <feFlood flood-opacity="0" result="BackgroundImageFix"></feFlood>
        <feBlend mode="normal" in="SourceGraphic" in2="BackgroundImageFix" result="shape"></feBlend>
        <feGaussianBlur stdDeviation="8" result="effect1_foregroundBlur_2009_288"></feGaussianBlur>
      </filter>
      <filter id="filter2_b_2009_288" x="-2.39844" y="-8.66162" width="121.879" height="125.662" filterUnits="userSpaceOnUse" color-interpolation-filters="sRGB">
        <feFlood flood-opacity="0" result="BackgroundImageFix"></feFlood>
        <feGaussianBlur in="BackgroundImageFix" stdDeviation="12"></feGaussianBlur>
        <feComposite in2="SourceAlpha" operator="in" result="effect1_backgroundBlur_2009_288"></feComposite>
        <feBlend mode="normal" in="SourceGraphic" in2="effect1_backgroundBlur_2009_288" result="shape"></feBlend>
      </filter>
      <filter id="filter3_bd_2009_288" x="32.6172" y="28.2061" width="51.8438" height="51.3745" filterUnits="userSpaceOnUse" color-interpolation-filters="sRGB">
        <feFlood flood-opacity="0" result="BackgroundImageFix"></feFlood>
        <feGaussianBlur in="BackgroundImageFix" stdDeviation="7.5"></feGaussianBlur>
        <feComposite in2="SourceAlpha" operator="in" result="effect1_backgroundBlur_2009_288"></feComposite>
        <feColorMatrix in="SourceAlpha" type="matrix" values="0 0 0 0 0 0 0 0 0 0 0 0 0 0 0 0 0 0 127 0" result="hardAlpha"></feColorMatrix>
        <feOffset dx="5" dy="5"></feOffset>
        <feGaussianBlur stdDeviation="5"></feGaussianBlur>
        <feColorMatrix type="matrix" values="0 0 0 0 0.427451 0 0 0 0 0.905882 0 0 0 0 0.329412 0 0 0 0.5 0"></feColorMatrix>
        <feBlend mode="normal" in2="effect1_backgroundBlur_2009_288" result="effect2_dropShadow_2009_288"></feBlend>
        <feBlend mode="normal" in="SourceGraphic" in2="effect2_dropShadow_2009_288" result="shape"></feBlend>
      </filter>
      <linearGradient id="paint0_linear_2009_288" x1="5" y1="8" x2="48.8178" y2="80.3704" gradientUnits="userSpaceOnUse">
        <stop stop-color="#6DE754"></stop>
        <stop offset="1" stop-color="#129465"></stop>
      </linearGradient>
      <linearGradient id="paint1_linear_2009_288" x1="34.0435" y1="25.1531" x2="82.7704" y2="82.4851" gradientUnits="userSpaceOnUse">
        <stop stop-color="#1F252B" stop-opacity="0.7"></stop>
        <stop offset="1" stop-color="#1E242A" stop-opacity="0"></stop>
      </linearGradient>
      <linearGradient id="paint2_linear_2009_288" x1="67.9122" y1="47.0659" x2="43.5815" y2="47.8766" gradientUnits="userSpaceOnUse">
        <stop stop-color="white"></stop>
        <stop offset="1" stop-color="white" stop-opacity="0.2"></stop>
      </linearGradient>
      <linearGradient id="paint3_linear_2009_288" x1="51.0944" y1="45.6962" x2="64.6637" y2="62.8711" gradientUnits="userSpaceOnUse">
        <stop stop-color="white" stop-opacity="0.25"></stop>
        <stop offset="1" stop-color="white" stop-opacity="0"></stop>
      </linearGradient>
    </defs>
  </symbol>
  <symbol fill="none" xmlns="http://www.w3.org/2000/svg" viewBox="0 0 100 100" id="icon-advantages-4">
    <path d="M50.1595 62.6823C49.8808 62.8432 49.5654 62.9404 49.2392 62.9562L38.7275 63.4637C35.744 63.6065 33.1775 63.3153 30.8786 62.5772C25.8484 60.9644 21.6272 57.6031 18.9955 53.1077L10.3281 38.3149C9.32737 36.6079 9.5517 34.4276 10.8801 32.8883L22.7815 19.1391C23.4839 18.3152 24.4668 17.7419 25.541 17.5254L43.3541 13.8849C45.3466 13.4747 47.3587 14.3491 48.3559 16.0553L57.0297 30.8591C59.6598 35.3466 60.5292 40.6664 59.48 45.8389C58.9983 48.2117 57.9944 50.5905 56.4144 53.1118L50.8459 62.0139C50.674 62.2916 50.4369 62.5192 50.1595 62.6823Z" fill="url(#paint0_linear_2009_89)"></path>
    <g filter="url(#filter0_f_2009_89)">
      <path d="M45.5096 53.8687C45.3206 53.9778 45.1099 54.0493 44.8951 54.0711L37.9733 54.7741C36.0087 54.9728 34.3342 54.8898 32.8521 54.5224C29.6089 53.72 26.9621 51.8146 25.4014 49.1538L20.2606 40.3988C19.667 39.3884 19.8956 38.0421 20.8252 37.048L29.1528 28.1672C29.6448 27.6354 30.3116 27.247 31.0251 27.0741L42.8583 24.1765C44.1819 23.8506 45.4707 24.3123 46.062 25.3222L51.2065 34.0837C52.7665 36.7397 53.1393 39.9719 52.2576 43.1852C51.8529 44.6593 51.1051 46.1565 49.9736 47.7626L45.9853 53.433C45.862 53.6098 45.6978 53.7583 45.5096 53.8687Z" fill="#6DE754" fill-opacity="0.5"></path>
    </g>
    <g filter="url(#filter1_b_2009_89)">
      <mask id="path-3-outside-1_2009_89" maskUnits="userSpaceOnUse" x="25.2894" y="14.6287" width="71.2356" height="80.4357" fill="black">
        <rect fill="white" x="25.2894" y="14.6287" width="71.2356" height="80.4357"></rect>
        <path d="M55.8896 88.5809C55.4667 88.5159 55.0588 88.3537 54.7075 88.0974L43.3885 79.84C40.1769 77.4949 37.7592 75.0457 35.9912 72.3536C32.1209 66.4655 30.5459 59.429 31.5635 52.5375L34.9043 29.8538C35.2893 27.2358 37.3385 25.1479 39.998 24.6519L63.7903 20.2517C65.2048 19.9791 66.7015 20.2024 67.9953 20.8744L89.4931 31.9657C91.9001 33.2032 93.2573 35.7978 92.8693 38.412L89.526 61.1124C88.5133 67.9943 84.982 74.273 79.5848 78.7941C77.1084 80.8677 74.0859 82.5111 70.3473 83.8215L57.158 88.4572C56.7484 88.6033 56.313 88.6426 55.8896 88.5809Z"></path>
      </mask>
      <path d="M55.8896 88.5809C55.4667 88.5159 55.0588 88.3537 54.7075 88.0974L43.3885 79.84C40.1769 77.4949 37.7592 75.0457 35.9912 72.3536C32.1209 66.4655 30.5459 59.429 31.5635 52.5375L34.9043 29.8538C35.2893 27.2358 37.3385 25.1479 39.998 24.6519L63.7903 20.2517C65.2048 19.9791 66.7015 20.2024 67.9953 20.8744L89.4931 31.9657C91.9001 33.2032 93.2573 35.7978 92.8693 38.412L89.526 61.1124C88.5133 67.9943 84.982 74.273 79.5848 78.7941C77.1084 80.8677 74.0859 82.5111 70.3473 83.8215L57.158 88.4572C56.7484 88.6033 56.313 88.6426 55.8896 88.5809Z" fill="#6DE754" fill-opacity="0.35"></path>
      <path d="M55.7376 89.5693C56.2835 89.6532 56.794 89.2788 56.878 88.7329C56.9619 88.187 56.5875 87.6765 56.0416 87.5925L55.7376 89.5693ZM54.7075 88.0974L55.2969 87.2896L55.2969 87.2896L54.7075 88.0974ZM43.3885 79.84L42.7988 80.6476L42.7991 80.6478L43.3885 79.84ZM35.9912 72.3536L36.827 71.8047L36.8268 71.8043L35.9912 72.3536ZM31.5635 52.5375L32.5528 52.6835L32.5528 52.6832L31.5635 52.5375ZM34.9043 29.8538L35.8936 29.9995L35.8936 29.9993L34.9043 29.8538ZM39.998 24.6519L39.8162 23.6686L39.8147 23.6688L39.998 24.6519ZM63.7903 20.2517L63.9722 21.2351L63.9796 21.2337L63.7903 20.2517ZM67.9953 20.8744L67.5344 21.7619L67.5368 21.7631L67.9953 20.8744ZM89.4931 31.9657L89.0346 32.8544L89.0359 32.8551L89.4931 31.9657ZM92.8693 38.412L91.8802 38.2652L91.88 38.2663L92.8693 38.412ZM89.526 61.1124L88.5366 60.9666L88.5366 60.9668L89.526 61.1124ZM79.5848 78.7941L80.2268 79.5608L80.2269 79.5607L79.5848 78.7941ZM70.3473 83.8215L70.0166 82.8778L70.0158 82.8781L70.3473 83.8215ZM57.158 88.4572L56.8265 87.5137L56.8221 87.5153L57.158 88.4572ZM56.0338 87.5913C55.4873 87.5117 54.9797 87.8902 54.9001 88.4367C54.8204 88.9832 55.1989 89.4908 55.7454 89.5704L56.0338 87.5913ZM56.0416 87.5925C55.769 87.5506 55.5126 87.447 55.2969 87.2896L54.1181 88.9053C54.6049 89.2604 55.1645 89.4811 55.7376 89.5693L56.0416 87.5925ZM55.2969 87.2896L43.9779 79.0321L42.7991 80.6478L54.1182 88.9053L55.2969 87.2896ZM43.9782 79.0323C40.842 76.7423 38.516 74.3764 36.827 71.8047L35.1553 72.9025C37.0024 75.715 39.5118 78.2475 42.7988 80.6476L43.9782 79.0323ZM36.8268 71.8043C33.0893 66.1183 31.5715 59.3288 32.5528 52.6835L30.5742 52.3914C29.5202 59.5291 31.1524 66.8127 35.1555 72.9029L36.8268 71.8043ZM32.5528 52.6832L35.8936 29.9995L33.915 29.7081L30.5742 52.3917L32.5528 52.6832ZM35.8936 29.9993C36.2144 27.8185 37.9272 26.0553 40.1813 25.635L39.8147 23.6688C36.7497 24.2404 34.3643 26.6531 33.9149 29.7083L35.8936 29.9993ZM40.1799 25.6352L63.9722 21.2351L63.6085 19.2684L39.8162 23.6686L40.1799 25.6352ZM63.9796 21.2337C65.1688 21.0044 66.4367 21.1917 67.5344 21.7619L68.4563 19.987C66.9663 19.2131 65.2409 18.9537 63.6011 19.2698L63.9796 21.2337ZM67.5368 21.7631L89.0346 32.8544L89.9516 31.077L68.4538 19.9857L67.5368 21.7631ZM89.0359 32.8551C91.0738 33.9028 92.2033 36.0876 91.8802 38.2652L93.8585 38.5588C94.3113 35.508 92.7265 32.5036 89.9503 31.0764L89.0359 32.8551ZM91.88 38.2663L88.5366 60.9666L90.5153 61.2581L93.8587 38.5577L91.88 38.2663ZM88.5366 60.9668C87.5602 67.6028 84.1546 73.6616 78.9426 78.0275L80.2269 79.5607C85.8095 74.8844 89.4665 68.3859 90.5153 61.2579L88.5366 60.9668ZM78.9427 78.0274C76.5772 80.0082 73.6669 81.5983 70.0166 82.8778L70.6781 84.7652C74.5049 83.4239 77.6397 81.7272 80.2268 79.5608L78.9427 78.0274ZM70.0158 82.8781L56.8265 87.5137L57.4896 89.4006L70.6789 84.765L70.0158 82.8781ZM56.8221 87.5153C56.5708 87.6049 56.3006 87.6302 56.0338 87.5913L55.7454 89.5704C56.3255 89.655 56.926 89.6016 57.494 89.399L56.8221 87.5153Z" fill="url(#paint1_linear_2009_89)" mask="url(#path-3-outside-1_2009_89)"></path>
    </g>
    <g filter="url(#filter2_bd_2009_89)">
      <path d="M57.3014 61.9536C56.6407 61.8554 56.0172 61.5161 55.5835 60.9489L50.0056 53.6464C49.1452 52.5131 49.379 50.9242 50.5309 50.0935C51.6834 49.2595 53.318 49.5006 54.1824 50.6311L58.1963 55.8831L71.4406 46.3127C72.5965 45.4792 74.2311 45.7203 75.092 46.8503C75.9559 47.9841 75.7216 49.5764 74.5702 50.4037L59.235 61.4865C58.6568 61.9049 57.962 62.0518 57.3014 61.9536Z" fill="url(#paint2_linear_2009_89)"></path>
      <path d="M50.5896 50.1745L50.5894 50.1746C49.4834 50.9722 49.2586 52.4971 50.0853 53.5859L55.663 60.8882C56.0798 61.4334 56.6795 61.7601 57.3161 61.8547C57.9523 61.9492 58.6205 61.8078 59.1763 61.4055L59.1764 61.4055L74.5116 50.3227L74.5118 50.3225C75.6171 49.5283 75.8425 48.0003 75.0125 46.9109C74.1846 45.8242 72.6113 45.5919 71.4992 46.3937L50.5896 50.1745ZM50.5896 50.1745C51.698 49.3723 53.2714 49.6043 54.1029 50.6918L58.1168 55.9438L58.1759 56.0211L58.2548 55.9641L71.4991 46.3938L50.5896 50.1745Z" stroke="url(#paint3_linear_2009_89)" stroke-opacity="0.5" stroke-width="0.2"></path>
    </g>
    <defs>
      <filter id="filter0_f_2009_89" x="3.93359" y="8.07324" width="64.791" height="62.8059" filterUnits="userSpaceOnUse" color-interpolation-filters="sRGB">
        <feFlood flood-opacity="0" result="BackgroundImageFix"></feFlood>
        <feBlend mode="normal" in="SourceGraphic" in2="BackgroundImageFix" result="shape"></feBlend>
        <feGaussianBlur stdDeviation="8" result="effect1_foregroundBlur_2009_89"></feGaussianBlur>
      </filter>
      <filter id="filter1_b_2009_89" x="6.26172" y="-4.86182" width="111.674" height="118.471" filterUnits="userSpaceOnUse" color-interpolation-filters="sRGB">
        <feFlood flood-opacity="0" result="BackgroundImageFix"></feFlood>
        <feGaussianBlur in="BackgroundImageFix" stdDeviation="12"></feGaussianBlur>
        <feComposite in2="SourceAlpha" operator="in" result="effect1_backgroundBlur_2009_89"></feComposite>
        <feBlend mode="normal" in="SourceGraphic" in2="effect1_backgroundBlur_2009_89" result="shape"></feBlend>
      </filter>
      <filter id="filter2_bd_2009_89" x="34.4863" y="30.8164" width="56.127" height="46.1665" filterUnits="userSpaceOnUse" color-interpolation-filters="sRGB">
        <feFlood flood-opacity="0" result="BackgroundImageFix"></feFlood>
        <feGaussianBlur in="BackgroundImageFix" stdDeviation="7.5"></feGaussianBlur>
        <feComposite in2="SourceAlpha" operator="in" result="effect1_backgroundBlur_2009_89"></feComposite>
        <feColorMatrix in="SourceAlpha" type="matrix" values="0 0 0 0 0 0 0 0 0 0 0 0 0 0 0 0 0 0 127 0" result="hardAlpha"></feColorMatrix>
        <feOffset dx="5" dy="5"></feOffset>
        <feGaussianBlur stdDeviation="5"></feGaussianBlur>
        <feColorMatrix type="matrix" values="0 0 0 0 0.454902 0 0 0 0 0.870588 0 0 0 0 0.376471 0 0 0 0.5 0"></feColorMatrix>
        <feBlend mode="normal" in2="effect1_backgroundBlur_2009_89" result="effect2_dropShadow_2009_89"></feBlend>
        <feBlend mode="normal" in="SourceGraphic" in2="effect2_dropShadow_2009_89" result="shape"></feBlend>
      </filter>
      <linearGradient id="paint0_linear_2009_89" x1="5" y1="29.0867" x2="65.5052" y2="59.0058" gradientUnits="userSpaceOnUse">
        <stop stop-color="#6DE754"></stop>
        <stop offset="1" stop-color="#129465"></stop>
      </linearGradient>
      <linearGradient id="paint1_linear_2009_89" x1="45.0882" y1="25.1476" x2="82.3929" y2="78.8522" gradientUnits="userSpaceOnUse">
        <stop stop-color="#22282F" stop-opacity="0.7"></stop>
        <stop offset="1" stop-color="#22282F" stop-opacity="0"></stop>
      </linearGradient>
      <linearGradient id="paint2_linear_2009_89" x1="73.6932" y1="49.2491" x2="45.6598" y2="46.2184" gradientUnits="userSpaceOnUse">
        <stop stop-color="white"></stop>
        <stop offset="1" stop-color="white" stop-opacity="0.2"></stop>
      </linearGradient>
      <linearGradient id="paint3_linear_2009_89" x1="52.7117" y1="48.8999" x2="73.9299" y2="52.3286" gradientUnits="userSpaceOnUse">
        <stop stop-color="white"></stop>
        <stop offset="1" stop-color="white" stop-opacity="0"></stop>
      </linearGradient>
    </defs>
  </symbol>
  <symbol fill="none" xmlns="http://www.w3.org/2000/svg" viewBox="0 0 24 24" id="icon-arrow-down">
    <path d="M17.9529 16.5054L17.9529 4L20 4L20 20L4 20L4 17.9529L16.5053 17.9529L4 5.44754L5.44753 4L17.9529 16.5054Z" fill="#22282F"></path>
  </symbol>
  <symbol fill="none" xmlns="http://www.w3.org/2000/svg" viewBox="0 0 20 20" id="icon-arrow-left">
    <path d="M3.83742 9.40865L11.2063 2.03977L10 0.833496L0.57191 10.2616L10 19.6897L11.2063 18.4834L3.83747 11.1146L18.5751 11.1146L18.5751 9.40862L3.83742 9.40865Z" fill="white"></path>
  </symbol>
  <symbol fill="none" xmlns="http://www.w3.org/2000/svg" viewBox="0 0 16 16" id="icon-arrow-left-small">
    <path d="M3.06994 7.52663L8.96502 1.63152L8 0.666504L0.457528 8.20898L8 15.7514L8.96502 14.7864L3.06998 8.89138L14.8601 8.89135L14.8601 7.5266L3.06994 7.52663Z" fill="white"></path>
  </symbol>
  <symbol fill="none" xmlns="http://www.w3.org/2000/svg" viewBox="0 0 20 20" id="icon-arrow-right">
    <path d="M16.1626 9.40865L8.79372 2.03977L10 0.833496L19.4281 10.2616L10 19.6897L8.79372 18.4834L16.1625 11.1146L1.42488 11.1146L1.42488 9.40862L16.1626 9.40865Z" fill="white"></path>
  </symbol>
  <symbol fill="none" xmlns="http://www.w3.org/2000/svg" viewBox="0 0 16 16" id="icon-arrow-right-small">
    <path d="M12.9301 7.52663L7.03498 1.63152L8 0.666504L15.5425 8.20898L8 15.7514L7.03498 14.7864L12.93 8.89138L1.1399 8.89135L1.1399 7.5266L12.9301 7.52663Z" fill="white"></path>
  </symbol>
  <symbol fill="none" xmlns="http://www.w3.org/2000/svg" viewBox="0 0 24 24" id="icon-close">
    <g clip-path="url(#clip0_452_876)">
      <path d="M13.379 12.0001L19.7606 5.61853L18.3816 4.23953L12 10.6211L5.61841 4.2395L4.2394 5.61851L10.621 12.0001L4.23948 18.3817L5.61848 19.7607L12 13.3791L18.3815 19.7606L19.7605 18.3816L13.379 12.0001Z" fill="#22282F"></path>
    </g>
    <defs>
      <clipPath id="clip0_452_876">
        <rect width="24" height="24" fill="white"></rect>
      </clipPath>
    </defs>
  </symbol>
  <symbol fill="none" xmlns="http://www.w3.org/2000/svg" viewBox="0 0 24 24" id="icon-menu">
    <path d="M3 7V5H21L20.9989 7H3Z" fill="#22282F"></path>
    <path d="M3 13V11H21L20.9989 13H3Z" fill="#22282F"></path>
    <path d="M3 19V17H21L20.9989 19H3Z" fill="#22282F"></path>
  </symbol>
  <symbol fill="none" xmlns="http://www.w3.org/2000/svg" viewBox="0 0 24 24" id="icon-ok">
    <path fill-rule="evenodd" clip-rule="evenodd" d="M16.4487 8.11865C16.4487 10.3978 14.4514 12.2489 11.9921 12.2489C9.54534 12.2489 7.54797 10.3978 7.54797 8.13022C7.54797 5.85108 9.54534 4 11.9921 4C14.4514 4 16.4487 5.85108 16.4487 8.11865ZM13.8397 8.13022C13.8397 7.18155 13.0033 6.41797 11.9921 6.41797C10.9809 6.41797 10.157 7.18155 10.1446 8.13022C10.1446 9.0789 10.9809 9.84247 11.9921 9.84247C13.0158 9.84247 13.8397 9.06733 13.8397 8.13022ZM16.3863 14.62C15.5874 15.0943 14.7135 15.4183 13.8022 15.6149L16.2864 17.9288C16.7983 18.4031 16.7983 19.1667 16.2864 19.641C15.7746 20.1154 14.9507 20.1154 14.4389 19.641L11.9921 17.3735L9.5578 19.641C9.30813 19.884 8.97107 19.9997 8.63401 19.9997C8.29696 19.9997 7.9599 19.8724 7.71023 19.641C7.19841 19.1667 7.19841 18.4031 7.71023 17.9288L10.1945 15.6265C9.29564 15.4298 8.40931 15.0943 7.61036 14.6315C6.99867 14.2729 6.81142 13.5209 7.21089 12.954C7.59788 12.3871 8.39683 12.2136 9.00852 12.5722C10.8311 13.6366 13.178 13.6366 15.0006 12.5722C15.6123 12.2136 16.4113 12.3871 16.7983 12.954C17.1852 13.5209 16.998 14.2613 16.3863 14.62Z" fill="#22282F"></path>
  </symbol>
  <symbol fill="none" xmlns="http://www.w3.org/2000/svg" viewBox="0 0 24 24" id="icon-plus">
    <path d="M12.9752 11.0249V2H11.025V11.0249H2V12.9752H11.025V22H12.9752V12.9752H22V11.0249H12.9752Z" fill="#22282F"></path>
  </symbol>
  <symbol fill="none" xmlns="http://www.w3.org/2000/svg" viewBox="0 0 24 24" id="icon-telegram">
    <path d="M18.9422 5.1135L4.60403 10.7367C3.8187 10.9704 3.8425 11.7702 4.42554 11.9671L8.01902 13.1237L9.39929 17.4795C9.56587 17.9594 9.70866 18.1317 9.99423 18.144C10.2917 18.144 10.4107 18.0332 10.7201 17.7502C11.0889 17.3934 11.6363 16.8397 12.5168 15.9538L16.2531 18.8084C16.9432 19.2022 17.443 18.993 17.6095 18.144L19.9417 6.15938C20.1916 5.1135 19.5967 4.80589 18.9422 5.1135ZM8.57826 12.853L16.7409 7.54979C17.1455 7.26679 17.2645 7.58671 17.086 7.79588L10.3155 14.1081L9.97044 17.258L8.57826 12.853Z" fill="#22282F"></path>
  </symbol>
  <symbol fill="none" xmlns="http://www.w3.org/2000/svg" viewBox="0 0 36 36" id="icon-telegram-bg">
    <g clip-path="url(#clip0_558_2895)">
      <path d="M18 36C27.9414 36 36 27.9414 36 18C36 8.0586 27.9414 0 18 0C8.0586 0 0 8.0586 0 18C0 27.9414 8.0586 36 18 36Z" fill="url(#paint0_linear_558_2895)"></path>
      <path d="M14.6998 26.25C14.1166 26.25 14.2156 26.0298 14.0146 25.4748L12.2998 19.83L25.4998 12" fill="#C8DAEA"></path>
      <path d="M14.7002 26.2499C15.1502 26.2499 15.3488 26.0441 15.6002 25.7999L18.0002 23.4659L15.0062 21.6611" fill="#A9C9DD"></path>
      <path d="M15.1392 21.3885L22.3656 26.7747C23.1906 27.2343 23.7858 26.9967 23.991 26.0025L26.9328 12.0183C27.234 10.8003 26.4726 10.2477 25.6836 10.6083L8.41083 17.3283C7.23123 17.8053 7.23843 18.4689 8.19543 18.7647L12.6282 20.1603L22.89 13.6287C23.3748 13.3323 23.8194 13.4919 23.454 13.8183" fill="url(#paint1_linear_558_2895)"></path>
    </g>
    <defs>
      <linearGradient id="paint0_linear_558_2895" x1="24.0012" y1="6.0012" x2="15.0012" y2="27" gradientUnits="userSpaceOnUse">
        <stop stop-color="#37AEE2"></stop>
        <stop offset="1" stop-color="#1E96C8"></stop>
      </linearGradient>
      <linearGradient id="paint1_linear_558_2895" x1="20.364" y1="17.7087" x2="23.2122" y2="24.1323" gradientUnits="userSpaceOnUse">
        <stop stop-color="#EFF7FC"></stop>
        <stop offset="1" stop-color="white"></stop>
      </linearGradient>
      <clipPath id="clip0_558_2895">
        <rect width="36" height="36" fill="white"></rect>
      </clipPath>
    </defs>
  </symbol>
  <symbol fill="none" xmlns="http://www.w3.org/2000/svg" viewBox="0 0 36 36" id="icon-viber">
    <g clip-path="url(#clip0_558_2894)">
      <path d="M18 36C27.9412 36 36 27.9412 36 18C36 8.0589 27.9412 0 18 0C8.0589 0 0 8.0589 0 18C0 27.9412 8.0589 36 18 36Z" fill="#6F3FAA"></path>
      <path d="M27.5477 13.4254L27.5406 13.4045C27.061 11.467 24.8816 9.39654 22.8857 8.96286L22.8646 8.9559C19.6345 8.34738 16.3549 8.34738 13.1317 8.9559L13.1105 8.96286C11.1146 9.39654 8.94234 11.467 8.45568 13.4045L8.44866 13.4254C7.84914 16.1254 7.84914 18.8671 8.44866 21.5671L8.45568 21.588C8.92116 23.4416 10.9312 25.4211 12.8566 25.9666V28.1279C12.8566 28.9114 13.8158 29.2961 14.3659 28.7296L16.5735 26.4563C17.053 26.4842 17.5327 26.4982 18.0122 26.4982C19.6414 26.4982 21.2636 26.3443 22.8787 26.0436L22.8999 26.0366C24.8959 25.6029 27.0751 23.5325 27.5546 21.5951L27.5618 21.574C28.1471 18.8671 28.1471 16.1254 27.5477 13.4254ZM25.8056 21.1753C25.4812 22.4344 23.8309 24.0082 22.519 24.2949C20.7982 24.6166 19.0702 24.7565 17.3423 24.7076C17.307 24.7076 17.2717 24.7216 17.2505 24.7426C17.0037 24.9943 15.6425 26.3793 15.6425 26.3793L13.9286 28.121C13.8018 28.2538 13.583 28.1629 13.583 27.9811V24.4069C13.583 24.3509 13.5408 24.2949 13.4843 24.288C12.1725 24.0011 10.5221 22.4275 10.1977 21.1684C9.66174 18.7272 9.66174 16.2512 10.1977 13.8101C10.5221 12.551 12.1725 10.9773 13.4843 10.6906C16.4818 10.124 19.5286 10.124 22.526 10.6906C23.8379 10.9773 25.4882 12.551 25.8127 13.8101C26.3416 16.2582 26.3416 18.7343 25.8056 21.1753Z" fill="white"></path>
      <path d="M20.8471 22.943C20.6432 22.8867 21.023 22.8936 20.8471 22.943V22.943Z" fill="white"></path>
      <path d="M20.8477 22.9434C20.6438 22.88 20.455 22.8379 20.2792 22.7676C18.4371 22.0012 16.7355 21.0168 15.3926 19.505C14.6262 18.6473 14.0284 17.6699 13.5223 16.6434C13.2832 16.1582 13.0792 15.652 12.8754 15.1457C12.6855 14.6887 12.9668 14.2105 13.255 13.866C13.5292 13.5426 13.8808 13.2965 14.2605 13.1066C14.5558 12.966 14.8512 13.0434 15.0691 13.2965C15.5402 13.8449 15.9691 14.4144 16.3207 15.0473C16.5386 15.4339 16.4754 15.9121 16.0886 16.1723C15.9973 16.2355 15.9058 16.3129 15.8215 16.3832C15.7441 16.4465 15.6738 16.5097 15.6176 16.5941C15.5191 16.7489 15.5191 16.9387 15.5754 17.1074C16.0534 18.4292 16.8621 19.4558 18.191 20.0042C18.402 20.0957 18.6199 20.1941 18.8589 20.166C19.2668 20.1168 19.4004 19.6668 19.6886 19.4347C19.9699 19.2028 20.3284 19.2028 20.6308 19.3926C20.9331 19.5824 21.2284 19.7863 21.5168 19.9973C21.805 20.2012 22.0863 20.3981 22.3534 20.63C22.6066 20.855 22.6981 21.1434 22.5504 21.4528C22.2902 22.0082 21.9105 22.4723 21.3621 22.7676C21.2074 22.866 21.0235 22.8941 20.8477 22.9434C21.0236 22.8941 20.6438 22.8871 20.8477 22.9434Z" fill="white"></path>
      <path d="M18.0073 12.4736C20.419 12.544 22.4019 14.1401 22.8237 16.5307C22.894 16.9385 22.9222 17.3533 22.9573 17.7682C22.9714 17.944 22.8729 18.1057 22.6831 18.1057C22.4863 18.1057 22.4019 17.944 22.3878 17.7752C22.3597 17.4307 22.3456 17.0862 22.2964 16.7486C22.0432 14.9486 20.616 13.4651 18.8229 13.1486C18.5558 13.0994 18.2816 13.0854 18.0073 13.0573C17.8316 13.0362 17.6066 13.0291 17.5714 12.8112C17.5363 12.6283 17.691 12.4878 17.8597 12.4807C17.9089 12.4736 17.9581 12.4736 18.0073 12.4736C20.419 12.544 17.9581 12.4736 18.0073 12.4736Z" fill="white"></path>
      <path d="M21.6704 17.2267C21.6633 17.2548 21.6633 17.3251 21.6493 17.3954C21.586 17.6344 21.2204 17.6696 21.136 17.4235C21.1079 17.3532 21.1079 17.2688 21.1079 17.1915C21.1079 16.6782 20.9954 16.172 20.7352 15.729C20.468 15.272 20.0673 14.8852 19.5891 14.6532C19.3009 14.5126 18.9915 14.4282 18.6751 14.372C18.5344 14.3509 18.4009 14.3368 18.2602 14.3157C18.0915 14.2946 18.0001 14.1891 18.0141 14.0204C18.0212 13.8657 18.1336 13.7532 18.3025 13.7673C18.8578 13.7954 19.3923 13.9149 19.8844 14.1822C20.8828 14.7094 21.4594 15.5462 21.6212 16.6641C21.6281 16.7133 21.6423 16.7626 21.6423 16.8188C21.6563 16.9383 21.6633 17.0649 21.6704 17.2267C21.6704 17.2548 21.6633 17.0649 21.6704 17.2267Z" fill="white"></path>
      <path d="M20.1738 17.1704C19.9699 17.1774 19.8644 17.0649 19.8434 16.875C19.8293 16.7484 19.8152 16.6149 19.7872 16.4883C19.7238 16.2423 19.5973 16.0102 19.3864 15.8626C19.288 15.7923 19.1754 15.736 19.063 15.7079C18.9152 15.6657 18.7606 15.6797 18.613 15.6376C18.4512 15.5954 18.3668 15.4688 18.388 15.3212C18.4091 15.1876 18.5426 15.075 18.6902 15.0891C19.6254 15.1594 20.2934 15.6376 20.3918 16.7415C20.3988 16.8188 20.4059 16.9032 20.3918 16.9734C20.3567 17.1 20.2652 17.1633 20.1738 17.1704C20.2652 17.1633 19.9699 17.1704 20.1738 17.1704Z" fill="white"></path>
      <path d="M18.0068 12.4736C18.1474 12.4807 20.3201 12.544 18.0068 12.4736V12.4736Z" fill="white"></path>
      <path d="M21.6701 17.2272C21.6631 17.0654 21.6701 17.2553 21.6701 17.2272V17.2272Z" fill="white"></path>
    </g>
    <defs>
      <clipPath id="clip0_558_2894">
        <rect width="36" height="36" fill="white"></rect>
      </clipPath>
    </defs>
  </symbol>
  <symbol fill="none" xmlns="http://www.w3.org/2000/svg" viewBox="0 0 24 24" id="icon-vk">
    <path d="M12.7663 17C7.24904 17 4.12261 13.2805 4 7H6.75862C6.81992 11.5732 8.90421 13.5244 10.4981 13.8902V7H13.0728V10.9634C14.6667 10.7805 16.3218 9.01219 16.8736 7H19.4483C19.0192 9.43902 17.1801 11.2683 15.8927 12C17.1801 12.6098 19.2644 14.1951 20 17H17.1188C16.5057 15.1098 14.9732 13.6463 12.9502 13.4024V17H12.7663Z" fill="#22282F"></path>
  </symbol>
  <symbol fill="none" xmlns="http://www.w3.org/2000/svg" viewBox="0 0 36 36" id="icon-whatsapp">
    <g clip-path="url(#clip0_558_2893)">
      <path d="M18 36C27.9412 36 36 27.9412 36 18C36 8.0589 27.9412 0 18 0C8.0589 0 0 8.0589 0 18C0 27.9412 8.0589 36 18 36Z" fill="#40C351"></path>
      <path d="M15.1464 12.2196C15.3855 12.2247 15.5432 12.4372 15.6348 12.6245C15.94 13.2825 16.1842 13.9606 16.4742 14.6236C16.5353 14.7603 16.576 14.9121 16.5251 15.0589C16.3724 15.4891 16.0163 15.7978 15.7315 16.142C15.6297 16.2585 15.6399 16.4254 15.7213 16.5469C16.5035 18.0586 17.8435 19.2104 19.4605 19.7608C19.6132 19.8266 19.7963 19.8114 19.9031 19.6798C20.2082 19.3411 20.4968 18.9881 20.768 18.622C21.002 18.3183 21.2055 18.4044 21.5108 18.5309L23.4643 19.4673C23.617 19.533 23.7696 19.6444 23.7543 19.8216C23.8561 21.1375 22.6707 22.1598 21.4294 22.2003C18.2243 21.9675 16.0367 20.1961 14.4596 18.1513C13.9407 17.4327 13.3912 16.7089 13.1063 15.8535C12.8367 15.1045 12.8266 14.2491 13.147 13.5102C13.6405 12.5232 14.0729 12.1437 15.1616 12.2044L15.1464 12.2196ZM12.1448 8.44389C14.4952 6.77373 17.5375 6.13599 20.3864 6.70287C22.2314 7.06605 23.9465 7.90959 25.3568 9.14739C27.3529 10.8882 28.626 13.3059 28.9282 15.9295C29.1306 17.6616 28.9035 19.4166 28.2668 21.0413C27.5139 22.9645 26.181 24.655 24.492 25.8495C22.8645 27.0048 20.9425 27.6801 18.9467 27.798C16.9492 27.9202 14.9572 27.4818 13.1979 26.5327L7.5 28.0005L9.00078 22.5343C9.03132 22.4686 8.98554 22.4129 8.9499 22.3623C7.824 20.3628 7.3779 18.0549 7.67808 15.7827C7.8762 14.3216 8.37348 12.9165 9.13914 11.6542C9.9048 10.392 10.9226 9.29931 12.1295 8.44389H12.1448ZM14.658 9.08163C12.9537 9.84081 11.5038 11.1466 10.5779 12.7611C9.84528 14.0265 9.4383 15.4689 9.40776 16.9265C9.35688 18.7081 9.86568 20.4947 10.8475 21.9877C10.8984 22.0788 10.99 22.175 10.9493 22.2914L10.0844 25.4496C11.168 25.1763 12.2516 24.8827 13.3403 24.6094C13.4777 24.5589 13.5947 24.6702 13.7066 24.7309C15.583 25.8573 17.8111 26.2555 19.9642 25.8495C21.2229 25.6105 22.414 25.1009 23.4542 24.3564C25.0796 23.195 26.2671 21.5254 26.8271 19.614C27.331 17.8709 27.2848 16.0159 26.6948 14.2998C26.1731 12.7923 25.2521 11.4529 24.029 10.4229C22.7422 9.33501 21.1693 8.63607 19.4962 8.40849C17.8682 8.19087 16.169 8.42367 14.6631 9.10185L14.658 9.08163Z" fill="#FCFCFC"></path>
    </g>
    <defs>
      <clipPath id="clip0_558_2893">
        <rect width="36" height="36" fill="white"></rect>
      </clipPath>
    </defs>
  </symbol>
  <symbol fill="none" xmlns="http://www.w3.org/2000/svg" viewBox="0 0 24 24" id="icon-youtube">
    <path d="M19.7219 7.7731C19.5274 6.93737 18.8294 6.31622 17.9941 6.22587C16.0145 6 14.0007 6 11.9983 6C9.99583 6 7.9934 6 6.00242 6.21458C5.17857 6.31622 4.48058 6.92608 4.28606 7.7731C4 8.97023 4 10.269 4 11.5C4 12.731 4 14.0411 4.27462 15.2382C4.46914 16.0739 5.16713 16.6951 6.00242 16.7854C7.98196 17 9.99583 17 11.9983 17C14.0007 17 16.0031 17 17.9941 16.7854C18.8294 16.6951 19.5274 16.0739 19.7219 15.2382C19.9965 14.0411 19.9965 12.731 19.9965 11.5C20.0079 10.269 20.0079 8.97023 19.7219 7.7731ZM10.3277 13.6571V9.27515L14.5614 11.4661L10.3277 13.6571Z" fill="#22282F"></path>
  </symbol>
  <symbol fill="none" xmlns="http://www.w3.org/2000/svg" viewBox="0 0 56 64" id="pin">
    <path d="M32.8616 55.5794C46.0082 53.2779 56 41.8058 56 28C56 12.536 43.464 0 28 0C12.536 0 0 12.536 0 28C0 41.8058 9.99177 53.2779 23.1384 55.5794L28 64L32.8616 55.5794Z" fill="#6DE754"></path>
    <rect width="36" height="36" transform="translate(10 10)" fill="#6DE754"></rect>
    <path fill-rule="evenodd" clip-rule="evenodd" d="M26.0926 12.4032C26.7179 12.3275 27.3543 12.2886 28 12.2886C28.6457 12.2886 29.2821 12.3275 29.9074 12.4032C30.0362 12.318 30.1812 12.2104 30.2212 12.1344C30.2915 12.0008 30.3701 11.826 30.4527 11.6426C30.5384 11.4521 30.6283 11.2523 30.7175 11.0794C30.9875 10.5559 31.4636 10 31.4636 10C31.4636 10 32.3137 10.1364 32.8506 10.2803C33.3875 10.4241 34.1919 10.731 34.1919 10.731C34.1919 10.731 34.3262 11.4505 34.2984 12.0389C34.2891 12.2332 34.2671 12.4512 34.2461 12.659C34.2259 12.8592 34.2066 13.0499 34.2006 13.2007C34.197 13.2944 34.2829 13.4833 34.357 13.6278C35.3787 14.0803 36.343 14.6386 37.2363 15.2888C37.4006 15.2813 37.6185 15.2616 37.7005 15.2098C37.8281 15.1293 37.9836 15.0173 38.1468 14.8997L38.1498 14.8976C38.3183 14.7761 38.495 14.6489 38.6578 14.5444C39.1533 14.226 39.8436 13.9826 39.8436 13.9826C39.8436 13.9826 40.5117 14.5258 40.9046 14.9188C41.2977 15.3119 41.8409 15.9799 41.8409 15.9799C41.8409 15.9799 41.5974 16.6701 41.2791 17.1657C41.174 17.3294 41.046 17.5072 40.9238 17.6766L40.9206 17.681C40.8043 17.8426 40.6934 17.9965 40.6137 18.123C40.5677 18.1958 40.547 18.3755 40.5377 18.5299C41.2625 19.488 41.88 20.5317 42.3723 21.6433C42.5168 21.7173 42.7056 21.8031 42.7993 21.7994C42.95 21.7935 43.1407 21.7742 43.3408 21.754C43.5486 21.733 43.7667 21.7109 43.961 21.7017C44.5493 21.6738 45.2688 21.8081 45.2688 21.8081C45.2688 21.8081 45.5758 22.6125 45.7197 23.1494C45.8636 23.6863 46 24.5364 46 24.5364C46 24.5364 45.4441 25.0125 44.9206 25.2825C44.7478 25.3717 44.5479 25.4616 44.3574 25.5473C44.174 25.6299 43.9992 25.7086 43.8657 25.7789C43.7897 25.8189 43.6821 25.9638 43.5968 26.0927C43.6725 26.7179 43.7114 27.3544 43.7114 28C43.7114 28.6456 43.6725 29.2821 43.5968 29.9073C43.6821 30.0362 43.7897 30.1812 43.8657 30.2211C43.9992 30.2914 44.174 30.3701 44.3574 30.4527C44.5479 30.5384 44.7478 30.6283 44.9206 30.7175C45.4441 30.9875 46 31.4636 46 31.4636C46 31.4636 45.8636 32.3137 45.7197 32.8506C45.5758 33.3875 45.2688 34.1919 45.2688 34.1919C45.2688 34.1919 44.5493 34.3262 43.961 34.2983C43.7667 34.2891 43.5486 34.267 43.3408 34.246C43.1407 34.2258 42.95 34.2065 42.7993 34.2006C42.7056 34.1969 42.5168 34.2827 42.3723 34.3567C41.88 35.4683 41.2625 36.512 40.5377 37.4701C40.547 37.6245 40.5677 37.8042 40.6137 37.877C40.6925 38.002 40.8017 38.1537 40.9165 38.3133L40.9206 38.319L40.9238 38.3234C41.046 38.4928 41.174 38.6706 41.2791 38.8343C41.5974 39.3299 41.8409 40.0201 41.8409 40.0201C41.8409 40.0201 41.2977 40.6881 40.9046 41.0812C40.5117 41.4742 39.8436 42.0174 39.8436 42.0174C39.8436 42.0174 39.1533 41.774 38.6578 41.4556C38.4941 41.3505 38.3163 41.2224 38.1468 41.1003C37.9836 40.9827 37.8281 40.8707 37.7005 40.7902C37.6185 40.7384 37.4006 40.7187 37.2363 40.7112C36.343 41.3614 35.3787 41.9197 34.357 42.3722C34.2829 42.5167 34.197 42.7056 34.2006 42.7994C34.2066 42.9501 34.2259 43.1408 34.2461 43.341C34.2671 43.5488 34.2891 43.7668 34.2984 43.9611C34.3262 44.5495 34.1919 45.269 34.1919 45.269C34.1919 45.269 33.3875 45.5759 32.8506 45.7197C32.3137 45.8636 31.4636 46 31.4636 46C31.4636 46 30.9875 45.4441 30.7175 44.9206C30.6283 44.7477 30.5384 44.5479 30.4527 44.3574C30.3701 44.174 30.2915 43.9992 30.2212 43.8656C30.1812 43.7896 30.0362 43.682 29.9074 43.5968C29.2821 43.6725 28.6457 43.7114 28 43.7114C27.3543 43.7114 26.7179 43.6725 26.0926 43.5968C25.9638 43.682 25.8188 43.7896 25.7788 43.8656C25.7085 43.9992 25.6299 44.174 25.5473 44.3574C25.4616 44.5479 25.3717 44.7477 25.2825 44.9206C25.0125 45.4441 24.5364 46 24.5364 46C24.5364 46 23.6863 45.8636 23.1494 45.7197C22.6125 45.5759 21.8081 45.269 21.8081 45.269C21.8081 45.269 21.6738 44.5495 21.7016 43.9611C21.7109 43.7668 21.7329 43.5488 21.7539 43.341C21.7741 43.1408 21.7934 42.9501 21.7994 42.7994C21.803 42.7056 21.7171 42.5167 21.643 42.3722C20.6213 41.9197 19.657 41.3614 18.7637 40.7112C18.5994 40.7187 18.3815 40.7384 18.2996 40.7902C18.1719 40.8707 18.0164 40.9827 17.8532 41.1003L17.8502 41.1024C17.6817 41.2239 17.505 41.3511 17.3422 41.4556C16.8467 41.774 16.1564 42.0174 16.1564 42.0174C16.1564 42.0174 15.4883 41.4742 15.0954 41.0812C14.7023 40.6881 14.1591 40.0201 14.1591 40.0201C14.1591 40.0201 14.4026 39.3299 14.7209 38.8343C14.826 38.6706 14.9541 38.4928 15.0762 38.3234C15.1937 38.1602 15.3058 38.0046 15.3863 37.877C15.4323 37.8042 15.453 37.6245 15.4623 37.4701C14.7375 36.512 14.12 35.4683 13.6277 34.3567C13.4832 34.2827 13.2944 34.1969 13.2007 34.2006C13.05 34.2065 12.8593 34.2258 12.6592 34.246C12.4514 34.267 12.2333 34.2891 12.039 34.2983C11.4507 34.3262 10.7312 34.1919 10.7312 34.1919C10.7312 34.1919 10.4242 33.3875 10.2803 32.8506C10.1364 32.3137 10 31.4636 10 31.4636C10 31.4636 10.5559 30.9875 11.0794 30.7175C11.2523 30.6283 11.4521 30.5384 11.6426 30.4527L11.6442 30.4519C11.8271 30.3696 12.0012 30.2912 12.1343 30.2211C12.2103 30.1812 12.3179 30.0362 12.4032 29.9073C12.3275 29.2821 12.2886 28.6456 12.2886 28C12.2886 27.3544 12.3275 26.7179 12.4032 26.0927C12.3179 25.9638 12.2103 25.8189 12.1343 25.7789C12.0544 25.7368 11.9597 25.6918 11.8573 25.6447C11.7885 25.613 11.7162 25.5805 11.6426 25.5473C11.5925 25.5248 11.5418 25.502 11.4911 25.479C11.4459 25.4584 11.4007 25.4378 11.356 25.417C11.26 25.3724 11.1663 25.3274 11.0794 25.2825C10.5559 25.0125 10 24.5364 10 24.5364C10 24.5364 10.1364 23.6863 10.2803 23.1494C10.4242 22.6125 10.7312 21.8081 10.7312 21.8081C10.7312 21.8081 11.4507 21.6738 12.039 21.7017C12.2333 21.7109 12.4514 21.733 12.6592 21.754C12.7673 21.7649 12.8726 21.7755 12.9703 21.784C13.0535 21.7911 13.1314 21.7967 13.2007 21.7994C13.2944 21.8031 13.4832 21.7173 13.6277 21.6433C14.12 20.5317 14.7375 19.488 15.4623 18.5299C15.453 18.3755 15.4323 18.1958 15.3863 18.123C15.3066 17.9965 15.1957 17.8426 15.0794 17.681L15.0762 17.6766C14.9541 17.5072 14.826 17.3294 14.7209 17.1657C14.4026 16.6701 14.1591 15.9799 14.1591 15.9799C14.1591 15.9799 14.7023 15.3119 15.0954 14.9188C15.4883 14.5258 16.1564 13.9826 16.1564 13.9826C16.1564 13.9826 16.8467 14.226 17.3422 14.5444C17.5059 14.6495 17.6837 14.7776 17.8532 14.8997C18.0164 15.0173 18.1719 15.1293 18.2996 15.2098C18.3815 15.2616 18.5994 15.2813 18.7637 15.2888C19.657 14.6386 20.6213 14.0803 21.643 13.6278C21.7171 13.4833 21.803 13.2944 21.7994 13.2007C21.7934 13.0499 21.7741 12.8592 21.7539 12.659C21.7329 12.4512 21.7109 12.2332 21.7016 12.0389C21.6738 11.4505 21.8081 10.731 21.8081 10.731C21.8081 10.731 22.6125 10.4241 23.1494 10.2803C23.6863 10.1364 24.5364 10 24.5364 10C24.5364 10 25.0125 10.5559 25.2825 11.0794C25.3717 11.2523 25.4616 11.4521 25.5473 11.6426C25.6073 11.7759 25.6652 11.9046 25.7194 12.0162L25.7469 12.0721C25.7577 12.0937 25.7683 12.1145 25.7788 12.1344C25.8188 12.2104 25.9638 12.318 26.0926 12.4032ZM14.9365 28C14.9365 35.2147 20.7852 41.0634 28 41.0634C35.2148 41.0634 41.0635 35.2147 41.0635 28C41.0635 20.7853 35.2148 14.9366 28 14.9366C20.7852 14.9366 14.9365 20.7853 14.9365 28Z" fill="#22282F"></path>
    <mask id="mask0_479_1366" maskUnits="userSpaceOnUse" x="17" y="17" width="22" height="22">
      <path fill-rule="evenodd" clip-rule="evenodd" d="M27.7345 23.2991H37C35.2976 20.0808 31.9109 17.875 28.017 17.875C22.4208 17.875 17.875 22.4132 17.875 28C17.875 33.5868 22.4208 38.125 28.017 38.125C31.9109 38.125 35.2976 35.9192 37 32.7009H27.7345L25.1085 28L27.7345 23.2991ZM28.017 37.0402V36.9498C23.435 36.4978 19.8672 32.6828 19.8672 28C19.8672 23.3172 23.435 19.5022 28.017 19.0502V18.9598C23.1815 19.1587 19.3239 23.1183 19.3239 28C19.3239 32.8817 23.1815 36.8413 28.017 37.0402Z" fill="#EDEFF1"></path>
      <path d="M30.504 24.625H38.125V26.2H31.7016C30.0685 26.2 30.0685 27.8875 30.0685 27.8875V28.1125C30.0685 28.1125 30.0685 29.8 31.7016 29.8H38.125V31.375H30.6129C30.6129 31.375 28 31.15 28 28C28 24.85 30.504 24.625 30.504 24.625Z" fill="#EDEFF1"></path>
    </mask>
    <g mask="url(#mask0_479_1366)">
      <circle cx="28" cy="28" r="10.125" fill="#22282F"></circle>
    </g>
  </symbol>
  <symbol fill="none" xmlns="http://www.w3.org/2000/svg" viewBox="0 0 36 36" id="rotate-arrow-down">
    <path d="M26.9293 24.7581L26.9293 6L30 6L30 30L6 30L6 26.9293L24.7579 26.9293L6 8.17131L8.1713 6L26.9293 24.7581Z" fill="#6DE754"></path>
  </symbol>
  <symbol fill="none" xmlns="http://www.w3.org/2000/svg" viewBox="0 0 16 16" id="rotate-arrow-up">
    <path d="M11.9692 4.99657L11.9692 13.3335L13.334 13.3335L13.334 2.66683L2.66732 2.66683L2.66732 4.03158L11.0042 4.03158L2.66732 12.3685L3.63234 13.3335L11.9692 4.99657Z" fill="#9AFF85"></path>
  </symbol>
  <symbol viewBox="0 0 0 0" id="sprite">
    <symbol fill="none" xmlns="http://www.w3.org/2000/svg" viewBox="0 0 24 24" id="icon-arrow-down">
      <path d="M17.9529 16.5054L17.9529 4L20 4L20 20L4 20L4 17.9529L16.5053 17.9529L4 5.44754L5.44753 4L17.9529 16.5054Z" fill="#22282F"></path>
    </symbol>
    <symbol fill="none" xmlns="http://www.w3.org/2000/svg" viewBox="0 0 20 20" id="icon-arrow-left">
      <path d="M3.83742 9.40865L11.2063 2.03977L10 0.833496L0.57191 10.2616L10 19.6897L11.2063 18.4834L3.83747 11.1146L18.5751 11.1146L18.5751 9.40862L3.83742 9.40865Z" fill="white"></path>
    </symbol>
    <symbol fill="none" xmlns="http://www.w3.org/2000/svg" viewBox="0 0 16 16" id="icon-arrow-left-small">
      <path d="M3.06994 7.52663L8.96502 1.63152L8 0.666504L0.457528 8.20898L8 15.7514L8.96502 14.7864L3.06998 8.89138L14.8601 8.89135L14.8601 7.5266L3.06994 7.52663Z" fill="white"></path>
    </symbol>
    <symbol fill="none" xmlns="http://www.w3.org/2000/svg" viewBox="0 0 20 20" id="icon-arrow-right">
      <path d="M16.1626 9.40865L8.79372 2.03977L10 0.833496L19.4281 10.2616L10 19.6897L8.79372 18.4834L16.1625 11.1146L1.42488 11.1146L1.42488 9.40862L16.1626 9.40865Z" fill="white"></path>
    </symbol>
    <symbol fill="none" xmlns="http://www.w3.org/2000/svg" viewBox="0 0 16 16" id="icon-arrow-right-small">
      <path d="M12.9301 7.52663L7.03498 1.63152L8 0.666504L15.5425 8.20898L8 15.7514L7.03498 14.7864L12.93 8.89138L1.1399 8.89135L1.1399 7.5266L12.9301 7.52663Z" fill="white"></path>
    </symbol>
    <symbol fill="none" xmlns="http://www.w3.org/2000/svg" viewBox="0 0 24 24" id="icon-close">
      <g clip-path="url(#clip0_452_876)">
        <path d="M13.379 12.0001L19.7606 5.61853L18.3816 4.23953L12 10.6211L5.61841 4.2395L4.2394 5.61851L10.621 12.0001L4.23948 18.3817L5.61848 19.7607L12 13.3791L18.3815 19.7606L19.7605 18.3816L13.379 12.0001Z" fill="#22282F"></path>
      </g>
      <defs>
        <clipPath id="clip0_452_876">
          <rect width="24" height="24" fill="white"></rect>
        </clipPath>
      </defs>
    </symbol>
    <symbol fill="none" xmlns="http://www.w3.org/2000/svg" viewBox="0 0 24 24" id="icon-menu">
      <path d="M3 7V5H21L20.9989 7H3Z" fill="#22282F"></path>
      <path d="M3 13V11H21L20.9989 13H3Z" fill="#22282F"></path>
      <path d="M3 19V17H21L20.9989 19H3Z" fill="#22282F"></path>
    </symbol>
    <symbol fill="none" xmlns="http://www.w3.org/2000/svg" viewBox="0 0 24 24" id="icon-ok">
      <path fill-rule="evenodd" clip-rule="evenodd" d="M16.4487 8.11865C16.4487 10.3978 14.4514 12.2489 11.9921 12.2489C9.54534 12.2489 7.54797 10.3978 7.54797 8.13022C7.54797 5.85108 9.54534 4 11.9921 4C14.4514 4 16.4487 5.85108 16.4487 8.11865ZM13.8397 8.13022C13.8397 7.18155 13.0033 6.41797 11.9921 6.41797C10.9809 6.41797 10.157 7.18155 10.1446 8.13022C10.1446 9.0789 10.9809 9.84247 11.9921 9.84247C13.0158 9.84247 13.8397 9.06733 13.8397 8.13022ZM16.3863 14.62C15.5874 15.0943 14.7135 15.4183 13.8022 15.6149L16.2864 17.9288C16.7983 18.4031 16.7983 19.1667 16.2864 19.641C15.7746 20.1154 14.9507 20.1154 14.4389 19.641L11.9921 17.3735L9.5578 19.641C9.30813 19.884 8.97107 19.9997 8.63401 19.9997C8.29696 19.9997 7.9599 19.8724 7.71023 19.641C7.19841 19.1667 7.19841 18.4031 7.71023 17.9288L10.1945 15.6265C9.29564 15.4298 8.40931 15.0943 7.61036 14.6315C6.99867 14.2729 6.81142 13.5209 7.21089 12.954C7.59788 12.3871 8.39683 12.2136 9.00852 12.5722C10.8311 13.6366 13.178 13.6366 15.0006 12.5722C15.6123 12.2136 16.4113 12.3871 16.7983 12.954C17.1852 13.5209 16.998 14.2613 16.3863 14.62Z" fill="#22282F"></path>
    </symbol>
    <symbol fill="none" xmlns="http://www.w3.org/2000/svg" viewBox="0 0 24 24" id="icon-plus">
      <path d="M12.9752 11.0249V2H11.025V11.0249H2V12.9752H11.025V22H12.9752V12.9752H22V11.0249H12.9752Z" fill="#22282F"></path>
    </symbol>
    <symbol fill="none" xmlns="http://www.w3.org/2000/svg" viewBox="0 0 24 24" id="icon-telegram">
      <path d="M18.9422 5.1135L4.60403 10.7367C3.8187 10.9704 3.8425 11.7702 4.42554 11.9671L8.01902 13.1237L9.39929 17.4795C9.56587 17.9594 9.70866 18.1317 9.99423 18.144C10.2917 18.144 10.4107 18.0332 10.7201 17.7502C11.0889 17.3934 11.6363 16.8397 12.5168 15.9538L16.2531 18.8084C16.9432 19.2022 17.443 18.993 17.6095 18.144L19.9417 6.15938C20.1916 5.1135 19.5967 4.80589 18.9422 5.1135ZM8.57826 12.853L16.7409 7.54979C17.1455 7.26679 17.2645 7.58671 17.086 7.79588L10.3155 14.1081L9.97044 17.258L8.57826 12.853Z" fill="#22282F"></path>
    </symbol>
    <symbol fill="none" xmlns="http://www.w3.org/2000/svg" viewBox="0 0 36 36" id="icon-telegram-bg">
      <g clip-path="url(#clip0_558_2895)">
        <path d="M18 36C27.9414 36 36 27.9414 36 18C36 8.0586 27.9414 0 18 0C8.0586 0 0 8.0586 0 18C0 27.9414 8.0586 36 18 36Z" fill="url(#paint0_linear_558_2895)"></path>
        <path d="M14.6998 26.25C14.1166 26.25 14.2156 26.0298 14.0146 25.4748L12.2998 19.83L25.4998 12" fill="#C8DAEA"></path>
        <path d="M14.7002 26.2499C15.1502 26.2499 15.3488 26.0441 15.6002 25.7999L18.0002 23.4659L15.0062 21.6611" fill="#A9C9DD"></path>
        <path d="M15.1392 21.3885L22.3656 26.7747C23.1906 27.2343 23.7858 26.9967 23.991 26.0025L26.9328 12.0183C27.234 10.8003 26.4726 10.2477 25.6836 10.6083L8.41083 17.3283C7.23123 17.8053 7.23843 18.4689 8.19543 18.7647L12.6282 20.1603L22.89 13.6287C23.3748 13.3323 23.8194 13.4919 23.454 13.8183" fill="url(#paint1_linear_558_2895)"></path>
      </g>
      <defs>
        <linearGradient id="paint0_linear_558_2895" x1="24.0012" y1="6.0012" x2="15.0012" y2="27" gradientUnits="userSpaceOnUse">
          <stop stop-color="#37AEE2"></stop>
          <stop offset="1" stop-color="#1E96C8"></stop>
        </linearGradient>
        <linearGradient id="paint1_linear_558_2895" x1="20.364" y1="17.7087" x2="23.2122" y2="24.1323" gradientUnits="userSpaceOnUse">
          <stop stop-color="#EFF7FC"></stop>
          <stop offset="1" stop-color="white"></stop>
        </linearGradient>
        <clipPath id="clip0_558_2895">
          <rect width="36" height="36" fill="white"></rect>
        </clipPath>
      </defs>
    </symbol>
    <symbol fill="none" xmlns="http://www.w3.org/2000/svg" viewBox="0 0 36 36" id="icon-viber">
      <g clip-path="url(#clip0_558_2894)">
        <path d="M18 36C27.9412 36 36 27.9412 36 18C36 8.0589 27.9412 0 18 0C8.0589 0 0 8.0589 0 18C0 27.9412 8.0589 36 18 36Z" fill="#6F3FAA"></path>
        <path d="M27.5477 13.4254L27.5406 13.4045C27.061 11.467 24.8816 9.39654 22.8857 8.96286L22.8646 8.9559C19.6345 8.34738 16.3549 8.34738 13.1317 8.9559L13.1105 8.96286C11.1146 9.39654 8.94234 11.467 8.45568 13.4045L8.44866 13.4254C7.84914 16.1254 7.84914 18.8671 8.44866 21.5671L8.45568 21.588C8.92116 23.4416 10.9312 25.4211 12.8566 25.9666V28.1279C12.8566 28.9114 13.8158 29.2961 14.3659 28.7296L16.5735 26.4563C17.053 26.4842 17.5327 26.4982 18.0122 26.4982C19.6414 26.4982 21.2636 26.3443 22.8787 26.0436L22.8999 26.0366C24.8959 25.6029 27.0751 23.5325 27.5546 21.5951L27.5618 21.574C28.1471 18.8671 28.1471 16.1254 27.5477 13.4254ZM25.8056 21.1753C25.4812 22.4344 23.8309 24.0082 22.519 24.2949C20.7982 24.6166 19.0702 24.7565 17.3423 24.7076C17.307 24.7076 17.2717 24.7216 17.2505 24.7426C17.0037 24.9943 15.6425 26.3793 15.6425 26.3793L13.9286 28.121C13.8018 28.2538 13.583 28.1629 13.583 27.9811V24.4069C13.583 24.3509 13.5408 24.2949 13.4843 24.288C12.1725 24.0011 10.5221 22.4275 10.1977 21.1684C9.66174 18.7272 9.66174 16.2512 10.1977 13.8101C10.5221 12.551 12.1725 10.9773 13.4843 10.6906C16.4818 10.124 19.5286 10.124 22.526 10.6906C23.8379 10.9773 25.4882 12.551 25.8127 13.8101C26.3416 16.2582 26.3416 18.7343 25.8056 21.1753Z" fill="white"></path>
        <path d="M20.8471 22.943C20.6432 22.8867 21.023 22.8936 20.8471 22.943V22.943Z" fill="white"></path>
        <path d="M20.8477 22.9434C20.6438 22.88 20.455 22.8379 20.2792 22.7676C18.4371 22.0012 16.7355 21.0168 15.3926 19.505C14.6262 18.6473 14.0284 17.6699 13.5223 16.6434C13.2832 16.1582 13.0792 15.652 12.8754 15.1457C12.6855 14.6887 12.9668 14.2105 13.255 13.866C13.5292 13.5426 13.8808 13.2965 14.2605 13.1066C14.5558 12.966 14.8512 13.0434 15.0691 13.2965C15.5402 13.8449 15.9691 14.4144 16.3207 15.0473C16.5386 15.4339 16.4754 15.9121 16.0886 16.1723C15.9973 16.2355 15.9058 16.3129 15.8215 16.3832C15.7441 16.4465 15.6738 16.5097 15.6176 16.5941C15.5191 16.7489 15.5191 16.9387 15.5754 17.1074C16.0534 18.4292 16.8621 19.4558 18.191 20.0042C18.402 20.0957 18.6199 20.1941 18.8589 20.166C19.2668 20.1168 19.4004 19.6668 19.6886 19.4347C19.9699 19.2028 20.3284 19.2028 20.6308 19.3926C20.9331 19.5824 21.2284 19.7863 21.5168 19.9973C21.805 20.2012 22.0863 20.3981 22.3534 20.63C22.6066 20.855 22.6981 21.1434 22.5504 21.4528C22.2902 22.0082 21.9105 22.4723 21.3621 22.7676C21.2074 22.866 21.0235 22.8941 20.8477 22.9434C21.0236 22.8941 20.6438 22.8871 20.8477 22.9434Z" fill="white"></path>
        <path d="M18.0073 12.4736C20.419 12.544 22.4019 14.1401 22.8237 16.5307C22.894 16.9385 22.9222 17.3533 22.9573 17.7682C22.9714 17.944 22.8729 18.1057 22.6831 18.1057C22.4863 18.1057 22.4019 17.944 22.3878 17.7752C22.3597 17.4307 22.3456 17.0862 22.2964 16.7486C22.0432 14.9486 20.616 13.4651 18.8229 13.1486C18.5558 13.0994 18.2816 13.0854 18.0073 13.0573C17.8316 13.0362 17.6066 13.0291 17.5714 12.8112C17.5363 12.6283 17.691 12.4878 17.8597 12.4807C17.9089 12.4736 17.9581 12.4736 18.0073 12.4736C20.419 12.544 17.9581 12.4736 18.0073 12.4736Z" fill="white"></path>
        <path d="M21.6704 17.2267C21.6633 17.2548 21.6633 17.3251 21.6493 17.3954C21.586 17.6344 21.2204 17.6696 21.136 17.4235C21.1079 17.3532 21.1079 17.2688 21.1079 17.1915C21.1079 16.6782 20.9954 16.172 20.7352 15.729C20.468 15.272 20.0673 14.8852 19.5891 14.6532C19.3009 14.5126 18.9915 14.4282 18.6751 14.372C18.5344 14.3509 18.4009 14.3368 18.2602 14.3157C18.0915 14.2946 18.0001 14.1891 18.0141 14.0204C18.0212 13.8657 18.1336 13.7532 18.3025 13.7673C18.8578 13.7954 19.3923 13.9149 19.8844 14.1822C20.8828 14.7094 21.4594 15.5462 21.6212 16.6641C21.6281 16.7133 21.6423 16.7626 21.6423 16.8188C21.6563 16.9383 21.6633 17.0649 21.6704 17.2267C21.6704 17.2548 21.6633 17.0649 21.6704 17.2267Z" fill="white"></path>
        <path d="M20.1738 17.1704C19.9699 17.1774 19.8644 17.0649 19.8434 16.875C19.8293 16.7484 19.8152 16.6149 19.7872 16.4883C19.7238 16.2423 19.5973 16.0102 19.3864 15.8626C19.288 15.7923 19.1754 15.736 19.063 15.7079C18.9152 15.6657 18.7606 15.6797 18.613 15.6376C18.4512 15.5954 18.3668 15.4688 18.388 15.3212C18.4091 15.1876 18.5426 15.075 18.6902 15.0891C19.6254 15.1594 20.2934 15.6376 20.3918 16.7415C20.3988 16.8188 20.4059 16.9032 20.3918 16.9734C20.3567 17.1 20.2652 17.1633 20.1738 17.1704C20.2652 17.1633 19.9699 17.1704 20.1738 17.1704Z" fill="white"></path>
        <path d="M18.0068 12.4736C18.1474 12.4807 20.3201 12.544 18.0068 12.4736V12.4736Z" fill="white"></path>
        <path d="M21.6701 17.2272C21.6631 17.0654 21.6701 17.2553 21.6701 17.2272V17.2272Z" fill="white"></path>
      </g>
      <defs>
        <clipPath id="clip0_558_2894">
          <rect width="36" height="36" fill="white"></rect>
        </clipPath>
      </defs>
    </symbol>
    <symbol fill="none" xmlns="http://www.w3.org/2000/svg" viewBox="0 0 24 24" id="icon-vk">
      <path d="M12.7663 17C7.24904 17 4.12261 13.2805 4 7H6.75862C6.81992 11.5732 8.90421 13.5244 10.4981 13.8902V7H13.0728V10.9634C14.6667 10.7805 16.3218 9.01219 16.8736 7H19.4483C19.0192 9.43902 17.1801 11.2683 15.8927 12C17.1801 12.6098 19.2644 14.1951 20 17H17.1188C16.5057 15.1098 14.9732 13.6463 12.9502 13.4024V17H12.7663Z" fill="#22282F"></path>
    </symbol>
    <symbol fill="none" xmlns="http://www.w3.org/2000/svg" viewBox="0 0 36 36" id="icon-whatsapp">
      <g clip-path="url(#clip0_558_2893)">
        <path d="M18 36C27.9412 36 36 27.9412 36 18C36 8.0589 27.9412 0 18 0C8.0589 0 0 8.0589 0 18C0 27.9412 8.0589 36 18 36Z" fill="#40C351"></path>
        <path d="M15.1464 12.2196C15.3855 12.2247 15.5432 12.4372 15.6348 12.6245C15.94 13.2825 16.1842 13.9606 16.4742 14.6236C16.5353 14.7603 16.576 14.9121 16.5251 15.0589C16.3724 15.4891 16.0163 15.7978 15.7315 16.142C15.6297 16.2585 15.6399 16.4254 15.7213 16.5469C16.5035 18.0586 17.8435 19.2104 19.4605 19.7608C19.6132 19.8266 19.7963 19.8114 19.9031 19.6798C20.2082 19.3411 20.4968 18.9881 20.768 18.622C21.002 18.3183 21.2055 18.4044 21.5108 18.5309L23.4643 19.4673C23.617 19.533 23.7696 19.6444 23.7543 19.8216C23.8561 21.1375 22.6707 22.1598 21.4294 22.2003C18.2243 21.9675 16.0367 20.1961 14.4596 18.1513C13.9407 17.4327 13.3912 16.7089 13.1063 15.8535C12.8367 15.1045 12.8266 14.2491 13.147 13.5102C13.6405 12.5232 14.0729 12.1437 15.1616 12.2044L15.1464 12.2196ZM12.1448 8.44389C14.4952 6.77373 17.5375 6.13599 20.3864 6.70287C22.2314 7.06605 23.9465 7.90959 25.3568 9.14739C27.3529 10.8882 28.626 13.3059 28.9282 15.9295C29.1306 17.6616 28.9035 19.4166 28.2668 21.0413C27.5139 22.9645 26.181 24.655 24.492 25.8495C22.8645 27.0048 20.9425 27.6801 18.9467 27.798C16.9492 27.9202 14.9572 27.4818 13.1979 26.5327L7.5 28.0005L9.00078 22.5343C9.03132 22.4686 8.98554 22.4129 8.9499 22.3623C7.824 20.3628 7.3779 18.0549 7.67808 15.7827C7.8762 14.3216 8.37348 12.9165 9.13914 11.6542C9.9048 10.392 10.9226 9.29931 12.1295 8.44389H12.1448ZM14.658 9.08163C12.9537 9.84081 11.5038 11.1466 10.5779 12.7611C9.84528 14.0265 9.4383 15.4689 9.40776 16.9265C9.35688 18.7081 9.86568 20.4947 10.8475 21.9877C10.8984 22.0788 10.99 22.175 10.9493 22.2914L10.0844 25.4496C11.168 25.1763 12.2516 24.8827 13.3403 24.6094C13.4777 24.5589 13.5947 24.6702 13.7066 24.7309C15.583 25.8573 17.8111 26.2555 19.9642 25.8495C21.2229 25.6105 22.414 25.1009 23.4542 24.3564C25.0796 23.195 26.2671 21.5254 26.8271 19.614C27.331 17.8709 27.2848 16.0159 26.6948 14.2998C26.1731 12.7923 25.2521 11.4529 24.029 10.4229C22.7422 9.33501 21.1693 8.63607 19.4962 8.40849C17.8682 8.19087 16.169 8.42367 14.6631 9.10185L14.658 9.08163Z" fill="#FCFCFC"></path>
      </g>
      <defs>
        <clipPath id="clip0_558_2893">
          <rect width="36" height="36" fill="white"></rect>
        </clipPath>
      </defs>
    </symbol>
    <symbol fill="none" xmlns="http://www.w3.org/2000/svg" viewBox="0 0 24 24" id="icon-youtube">
      <path d="M19.7219 7.7731C19.5274 6.93737 18.8294 6.31622 17.9941 6.22587C16.0145 6 14.0007 6 11.9983 6C9.99583 6 7.9934 6 6.00242 6.21458C5.17857 6.31622 4.48058 6.92608 4.28606 7.7731C4 8.97023 4 10.269 4 11.5C4 12.731 4 14.0411 4.27462 15.2382C4.46914 16.0739 5.16713 16.6951 6.00242 16.7854C7.98196 17 9.99583 17 11.9983 17C14.0007 17 16.0031 17 17.9941 16.7854C18.8294 16.6951 19.5274 16.0739 19.7219 15.2382C19.9965 14.0411 19.9965 12.731 19.9965 11.5C20.0079 10.269 20.0079 8.97023 19.7219 7.7731ZM10.3277 13.6571V9.27515L14.5614 11.4661L10.3277 13.6571Z" fill="#22282F"></path>
    </symbol>
    <symbol fill="none" xmlns="http://www.w3.org/2000/svg" viewBox="0 0 56 64" id="pin">
      <path d="M32.8616 55.5794C46.0082 53.2779 56 41.8058 56 28C56 12.536 43.464 0 28 0C12.536 0 0 12.536 0 28C0 41.8058 9.99177 53.2779 23.1384 55.5794L28 64L32.8616 55.5794Z" fill="#6DE754"></path>
      <rect width="36" height="36" transform="translate(10 10)" fill="#6DE754"></rect>
      <path fill-rule="evenodd" clip-rule="evenodd" d="M26.0926 12.4032C26.7179 12.3275 27.3543 12.2886 28 12.2886C28.6457 12.2886 29.2821 12.3275 29.9074 12.4032C30.0362 12.318 30.1812 12.2104 30.2212 12.1344C30.2915 12.0008 30.3701 11.826 30.4527 11.6426C30.5384 11.4521 30.6283 11.2523 30.7175 11.0794C30.9875 10.5559 31.4636 10 31.4636 10C31.4636 10 32.3137 10.1364 32.8506 10.2803C33.3875 10.4241 34.1919 10.731 34.1919 10.731C34.1919 10.731 34.3262 11.4505 34.2984 12.0389C34.2891 12.2332 34.2671 12.4512 34.2461 12.659C34.2259 12.8592 34.2066 13.0499 34.2006 13.2007C34.197 13.2944 34.2829 13.4833 34.357 13.6278C35.3787 14.0803 36.343 14.6386 37.2363 15.2888C37.4006 15.2813 37.6185 15.2616 37.7005 15.2098C37.8281 15.1293 37.9836 15.0173 38.1468 14.8997L38.1498 14.8976C38.3183 14.7761 38.495 14.6489 38.6578 14.5444C39.1533 14.226 39.8436 13.9826 39.8436 13.9826C39.8436 13.9826 40.5117 14.5258 40.9046 14.9188C41.2977 15.3119 41.8409 15.9799 41.8409 15.9799C41.8409 15.9799 41.5974 16.6701 41.2791 17.1657C41.174 17.3294 41.046 17.5072 40.9238 17.6766L40.9206 17.681C40.8043 17.8426 40.6934 17.9965 40.6137 18.123C40.5677 18.1958 40.547 18.3755 40.5377 18.5299C41.2625 19.488 41.88 20.5317 42.3723 21.6433C42.5168 21.7173 42.7056 21.8031 42.7993 21.7994C42.95 21.7935 43.1407 21.7742 43.3408 21.754C43.5486 21.733 43.7667 21.7109 43.961 21.7017C44.5493 21.6738 45.2688 21.8081 45.2688 21.8081C45.2688 21.8081 45.5758 22.6125 45.7197 23.1494C45.8636 23.6863 46 24.5364 46 24.5364C46 24.5364 45.4441 25.0125 44.9206 25.2825C44.7478 25.3717 44.5479 25.4616 44.3574 25.5473C44.174 25.6299 43.9992 25.7086 43.8657 25.7789C43.7897 25.8189 43.6821 25.9638 43.5968 26.0927C43.6725 26.7179 43.7114 27.3544 43.7114 28C43.7114 28.6456 43.6725 29.2821 43.5968 29.9073C43.6821 30.0362 43.7897 30.1812 43.8657 30.2211C43.9992 30.2914 44.174 30.3701 44.3574 30.4527C44.5479 30.5384 44.7478 30.6283 44.9206 30.7175C45.4441 30.9875 46 31.4636 46 31.4636C46 31.4636 45.8636 32.3137 45.7197 32.8506C45.5758 33.3875 45.2688 34.1919 45.2688 34.1919C45.2688 34.1919 44.5493 34.3262 43.961 34.2983C43.7667 34.2891 43.5486 34.267 43.3408 34.246C43.1407 34.2258 42.95 34.2065 42.7993 34.2006C42.7056 34.1969 42.5168 34.2827 42.3723 34.3567C41.88 35.4683 41.2625 36.512 40.5377 37.4701C40.547 37.6245 40.5677 37.8042 40.6137 37.877C40.6925 38.002 40.8017 38.1537 40.9165 38.3133L40.9206 38.319L40.9238 38.3234C41.046 38.4928 41.174 38.6706 41.2791 38.8343C41.5974 39.3299 41.8409 40.0201 41.8409 40.0201C41.8409 40.0201 41.2977 40.6881 40.9046 41.0812C40.5117 41.4742 39.8436 42.0174 39.8436 42.0174C39.8436 42.0174 39.1533 41.774 38.6578 41.4556C38.4941 41.3505 38.3163 41.2224 38.1468 41.1003C37.9836 40.9827 37.8281 40.8707 37.7005 40.7902C37.6185 40.7384 37.4006 40.7187 37.2363 40.7112C36.343 41.3614 35.3787 41.9197 34.357 42.3722C34.2829 42.5167 34.197 42.7056 34.2006 42.7994C34.2066 42.9501 34.2259 43.1408 34.2461 43.341C34.2671 43.5488 34.2891 43.7668 34.2984 43.9611C34.3262 44.5495 34.1919 45.269 34.1919 45.269C34.1919 45.269 33.3875 45.5759 32.8506 45.7197C32.3137 45.8636 31.4636 46 31.4636 46C31.4636 46 30.9875 45.4441 30.7175 44.9206C30.6283 44.7477 30.5384 44.5479 30.4527 44.3574C30.3701 44.174 30.2915 43.9992 30.2212 43.8656C30.1812 43.7896 30.0362 43.682 29.9074 43.5968C29.2821 43.6725 28.6457 43.7114 28 43.7114C27.3543 43.7114 26.7179 43.6725 26.0926 43.5968C25.9638 43.682 25.8188 43.7896 25.7788 43.8656C25.7085 43.9992 25.6299 44.174 25.5473 44.3574C25.4616 44.5479 25.3717 44.7477 25.2825 44.9206C25.0125 45.4441 24.5364 46 24.5364 46C24.5364 46 23.6863 45.8636 23.1494 45.7197C22.6125 45.5759 21.8081 45.269 21.8081 45.269C21.8081 45.269 21.6738 44.5495 21.7016 43.9611C21.7109 43.7668 21.7329 43.5488 21.7539 43.341C21.7741 43.1408 21.7934 42.9501 21.7994 42.7994C21.803 42.7056 21.7171 42.5167 21.643 42.3722C20.6213 41.9197 19.657 41.3614 18.7637 40.7112C18.5994 40.7187 18.3815 40.7384 18.2996 40.7902C18.1719 40.8707 18.0164 40.9827 17.8532 41.1003L17.8502 41.1024C17.6817 41.2239 17.505 41.3511 17.3422 41.4556C16.8467 41.774 16.1564 42.0174 16.1564 42.0174C16.1564 42.0174 15.4883 41.4742 15.0954 41.0812C14.7023 40.6881 14.1591 40.0201 14.1591 40.0201C14.1591 40.0201 14.4026 39.3299 14.7209 38.8343C14.826 38.6706 14.9541 38.4928 15.0762 38.3234C15.1937 38.1602 15.3058 38.0046 15.3863 37.877C15.4323 37.8042 15.453 37.6245 15.4623 37.4701C14.7375 36.512 14.12 35.4683 13.6277 34.3567C13.4832 34.2827 13.2944 34.1969 13.2007 34.2006C13.05 34.2065 12.8593 34.2258 12.6592 34.246C12.4514 34.267 12.2333 34.2891 12.039 34.2983C11.4507 34.3262 10.7312 34.1919 10.7312 34.1919C10.7312 34.1919 10.4242 33.3875 10.2803 32.8506C10.1364 32.3137 10 31.4636 10 31.4636C10 31.4636 10.5559 30.9875 11.0794 30.7175C11.2523 30.6283 11.4521 30.5384 11.6426 30.4527L11.6442 30.4519C11.8271 30.3696 12.0012 30.2912 12.1343 30.2211C12.2103 30.1812 12.3179 30.0362 12.4032 29.9073C12.3275 29.2821 12.2886 28.6456 12.2886 28C12.2886 27.3544 12.3275 26.7179 12.4032 26.0927C12.3179 25.9638 12.2103 25.8189 12.1343 25.7789C12.0544 25.7368 11.9597 25.6918 11.8573 25.6447C11.7885 25.613 11.7162 25.5805 11.6426 25.5473C11.5925 25.5248 11.5418 25.502 11.4911 25.479C11.4459 25.4584 11.4007 25.4378 11.356 25.417C11.26 25.3724 11.1663 25.3274 11.0794 25.2825C10.5559 25.0125 10 24.5364 10 24.5364C10 24.5364 10.1364 23.6863 10.2803 23.1494C10.4242 22.6125 10.7312 21.8081 10.7312 21.8081C10.7312 21.8081 11.4507 21.6738 12.039 21.7017C12.2333 21.7109 12.4514 21.733 12.6592 21.754C12.7673 21.7649 12.8726 21.7755 12.9703 21.784C13.0535 21.7911 13.1314 21.7967 13.2007 21.7994C13.2944 21.8031 13.4832 21.7173 13.6277 21.6433C14.12 20.5317 14.7375 19.488 15.4623 18.5299C15.453 18.3755 15.4323 18.1958 15.3863 18.123C15.3066 17.9965 15.1957 17.8426 15.0794 17.681L15.0762 17.6766C14.9541 17.5072 14.826 17.3294 14.7209 17.1657C14.4026 16.6701 14.1591 15.9799 14.1591 15.9799C14.1591 15.9799 14.7023 15.3119 15.0954 14.9188C15.4883 14.5258 16.1564 13.9826 16.1564 13.9826C16.1564 13.9826 16.8467 14.226 17.3422 14.5444C17.5059 14.6495 17.6837 14.7776 17.8532 14.8997C18.0164 15.0173 18.1719 15.1293 18.2996 15.2098C18.3815 15.2616 18.5994 15.2813 18.7637 15.2888C19.657 14.6386 20.6213 14.0803 21.643 13.6278C21.7171 13.4833 21.803 13.2944 21.7994 13.2007C21.7934 13.0499 21.7741 12.8592 21.7539 12.659C21.7329 12.4512 21.7109 12.2332 21.7016 12.0389C21.6738 11.4505 21.8081 10.731 21.8081 10.731C21.8081 10.731 22.6125 10.4241 23.1494 10.2803C23.6863 10.1364 24.5364 10 24.5364 10C24.5364 10 25.0125 10.5559 25.2825 11.0794C25.3717 11.2523 25.4616 11.4521 25.5473 11.6426C25.6073 11.7759 25.6652 11.9046 25.7194 12.0162L25.7469 12.0721C25.7577 12.0937 25.7683 12.1145 25.7788 12.1344C25.8188 12.2104 25.9638 12.318 26.0926 12.4032ZM14.9365 28C14.9365 35.2147 20.7852 41.0634 28 41.0634C35.2148 41.0634 41.0635 35.2147 41.0635 28C41.0635 20.7853 35.2148 14.9366 28 14.9366C20.7852 14.9366 14.9365 20.7853 14.9365 28Z" fill="#22282F"></path>
      <mask id="mask0_479_1366" maskUnits="userSpaceOnUse" x="17" y="17" width="22" height="22">
        <path fill-rule="evenodd" clip-rule="evenodd" d="M27.7345 23.2991H37C35.2976 20.0808 31.9109 17.875 28.017 17.875C22.4208 17.875 17.875 22.4132 17.875 28C17.875 33.5868 22.4208 38.125 28.017 38.125C31.9109 38.125 35.2976 35.9192 37 32.7009H27.7345L25.1085 28L27.7345 23.2991ZM28.017 37.0402V36.9498C23.435 36.4978 19.8672 32.6828 19.8672 28C19.8672 23.3172 23.435 19.5022 28.017 19.0502V18.9598C23.1815 19.1587 19.3239 23.1183 19.3239 28C19.3239 32.8817 23.1815 36.8413 28.017 37.0402Z" fill="#EDEFF1"></path>
        <path d="M30.504 24.625H38.125V26.2H31.7016C30.0685 26.2 30.0685 27.8875 30.0685 27.8875V28.1125C30.0685 28.1125 30.0685 29.8 31.7016 29.8H38.125V31.375H30.6129C30.6129 31.375 28 31.15 28 28C28 24.85 30.504 24.625 30.504 24.625Z" fill="#EDEFF1"></path>
      </mask>
      <g mask="url(#mask0_479_1366)">
        <circle cx="28" cy="28" r="10.125" fill="#22282F"></circle>
      </g>
    </symbol>
    <symbol fill="none" xmlns="http://www.w3.org/2000/svg" viewBox="0 0 36 36" id="rotate-arrow-down">
      <path d="M26.9293 24.7581L26.9293 6L30 6L30 30L6 30L6 26.9293L24.7579 26.9293L6 8.17131L8.1713 6L26.9293 24.7581Z" fill="#6DE754"></path>
    </symbol>
    <symbol fill="none" xmlns="http://www.w3.org/2000/svg" viewBox="0 0 16 16" id="rotate-arrow-up">
      <path d="M11.9692 4.99657L11.9692 13.3335L13.334 13.3335L13.334 2.66683L2.66732 2.66683L2.66732 4.03158L11.0042 4.03158L2.66732 12.3685L3.63234 13.3335L11.9692 4.99657Z" fill="#9AFF85"></path>
    </symbol>
  </symbol>
</svg>